<?xml version="1.0" standalone="no"?>
<!DOCTYPE svg PUBLIC "-//W3C//DTD SVG 20010904//EN"
 "http://www.w3.org/TR/2001/REC-SVG-20010904/DTD/svg10.dtd">
<svg version="1.0" xmlns="http://www.w3.org/2000/svg"
 width="1080.000000pt" height="1080.000000pt" viewBox="0 0 1080.000000 1080.000000"
 preserveAspectRatio="xMidYMid meet">

<g transform="translate(0.000000,1080.000000) scale(0.100000,-0.100000)"
fill="#000000" stroke="none">
<path d="M5035 10630 c-3 -5 -1 -10 4 -10 6 0 11 5 11 10 0 6 -2 10 -4 10 -3
0 -8 -4 -11 -10z"/>
<path d="M4985 10607 c-31 -19 -125 -46 -125 -36 0 5 -17 1 -37 -7 -60 -26
-68 -31 -65 -45 2 -10 0 -10 -12 1 -13 10 -16 10 -17 -4 -4 -54 -38 -91 -40
-43 -1 19 -3 17 -15 -10 -8 -18 -21 -33 -31 -33 -19 0 -142 -61 -140 -69 1 -3
-5 -17 -13 -31 -8 -14 -21 -38 -30 -55 -8 -16 -26 -35 -39 -41 l-23 -12 21 -7
c18 -5 20 -10 10 -21 -6 -7 -14 -12 -18 -10 -3 2 -22 -4 -41 -15 -27 -14 -30
-18 -14 -19 11 0 24 3 30 8 5 4 -7 -9 -26 -28 -19 -20 -39 -34 -44 -31 -5 2
-6 -1 -3 -6 4 -6 0 -16 -8 -23 -8 -7 -12 -17 -8 -24 3 -6 3 -8 -2 -4 -10 9
-35 -10 -35 -26 0 -6 5 -4 10 4 21 33 7 -8 -15 -45 -35 -57 -46 -85 -39 -97 4
-6 3 -8 -3 -5 -5 3 -15 -10 -22 -29 -7 -18 -17 -34 -22 -34 -5 0 -9 -5 -9 -11
0 -5 6 -7 13 -3 9 6 9 4 1 -7 -16 -21 -26 -51 -14 -44 9 6 4 -16 -8 -39 -5 -8
-6 -57 -3 -94 1 -8 6 -10 14 -6 6 4 4 -2 -6 -13 -11 -13 -14 -23 -8 -27 7 -5
7 -15 0 -33 -7 -19 -6 -28 2 -34 6 -4 8 -12 4 -19 -12 -20 -15 -80 -3 -80 7 0
6 -5 -2 -15 -9 -11 -9 -15 -1 -15 8 0 9 -6 3 -17 -15 -33 0 -109 19 -97 5 3 4
-7 -3 -22 -9 -18 -9 -29 -2 -31 5 -2 9 -18 7 -36 -1 -17 3 -44 9 -60 8 -22 13
-25 24 -16 11 9 11 3 -2 -26 -8 -21 -12 -45 -8 -54 4 -9 6 -23 5 -30 -2 -13 0
-13 16 -1 16 13 16 13 -1 -8 -12 -13 -14 -22 -7 -22 7 0 9 -5 5 -12 -6 -10 -5
-10 7 -1 13 11 15 7 15 -26 -1 -30 2 -37 12 -29 16 14 17 -13 1 -29 -13 -13
-3 -36 12 -28 5 4 9 1 9 -5 0 -6 -8 -10 -17 -8 -14 3 -17 -4 -14 -42 1 -25 9
-67 16 -95 13 -44 13 -48 0 -31 -17 23 -20 14 -4 -15 5 -11 15 -16 21 -13 7 4
8 3 4 -4 -4 -7 -3 -19 2 -28 7 -13 11 -7 16 24 8 52 25 64 19 14 -4 -34 -3
-35 10 -18 11 15 16 16 22 6 5 -8 4 -11 -3 -6 -8 5 -10 -4 -7 -29 3 -19 1 -35
-5 -35 -14 0 -1 -60 21 -95 l19 -30 -6 65 c-4 36 -11 70 -16 77 -5 6 -5 12 0
15 5 1 12 82 15 178 7 192 21 319 42 365 8 17 21 80 30 140 22 149 33 189 64
233 14 20 35 55 46 76 11 22 28 48 37 58 10 9 29 37 44 60 100 159 188 243
284 269 45 12 222 18 250 9 8 -3 14 0 13 5 -1 6 15 11 34 12 20 1 39 7 43 14
7 11 23 -36 19 -57 -4 -21 2 -26 15 -15 12 10 17 5 27 -30 7 -23 15 -37 17
-30 6 19 22 12 22 -9 0 -11 7 -20 15 -20 8 0 15 5 15 11 0 5 -4 7 -10 4 -5 -3
-10 -1 -10 4 0 23 30 9 36 -16 10 -39 30 -67 39 -54 3 6 11 9 16 6 5 -4 9 0 9
8 0 19 26 29 37 14 5 -7 15 -25 23 -41 13 -24 15 -26 20 -10 3 11 13 20 22 20
10 1 15 -2 12 -7 -3 -5 4 -9 15 -9 13 0 21 -7 21 -17 0 -15 2 -16 10 -3 6 10
10 11 10 3 0 -7 6 -13 14 -13 8 0 17 6 19 13 4 9 6 9 6 -1 1 -7 6 -10 12 -6 8
4 9 -1 4 -16 -6 -18 -4 -22 8 -17 10 4 18 -6 26 -34 11 -35 14 -38 27 -24 20
20 34 19 34 -2 0 -14 2 -15 9 -4 7 11 9 11 13 0 7 -22 38 15 40 48 1 15 4 3 8
-27 l7 -55 1 47 c1 26 6 49 11 52 11 7 41 -54 41 -82 0 -11 7 -25 15 -32 8 -7
15 -24 15 -38 0 -14 3 -22 7 -19 3 4 12 2 19 -4 9 -8 11 -5 8 13 -3 15 0 12 7
-7 20 -51 50 -89 60 -74 8 14 9 11 10 -53 1 -16 5 -25 10 -22 5 3 9 -6 9 -19
0 -13 3 -26 6 -29 3 -4 24 -57 46 -120 30 -83 44 -144 54 -228 7 -63 15 -126
19 -140 7 -31 25 -121 25 -127 0 -2 5 -1 10 2 6 3 10 1 10 -4 0 -6 -5 -11 -11
-11 -14 0 -6 -45 17 -107 15 -39 17 -41 44 -31 46 15 54 32 33 65 -10 15 -29
37 -42 49 l-25 21 21 27 c17 21 22 23 27 10 4 -10 2 -13 -6 -8 -7 5 -8 3 -3
-6 6 -9 4 -11 -5 -5 -9 6 -11 4 -5 -5 6 -9 4 -11 -5 -5 -9 6 -11 4 -6 -4 6 -9
13 -8 29 6 12 10 23 18 24 19 2 0 -6 10 -17 21 -17 19 -17 22 -3 27 12 5 14 9
5 18 -7 7 -12 19 -12 27 1 13 4 12 16 -4 13 -18 14 -17 8 13 -7 36 9 44 33 15
13 -16 13 -16 4 4 -14 27 -14 36 -1 28 6 -3 10 -1 10 4 0 6 9 11 19 11 11 0
23 5 27 12 5 7 2 9 -7 4 -8 -4 -6 -1 5 8 11 9 16 22 12 31 -4 10 -2 14 6 9 7
-5 9 1 6 19 -3 15 -1 24 3 21 12 -7 11 13 -2 38 -8 14 -8 18 0 14 7 -5 10 3 7
23 -2 17 -1 30 3 29 19 -2 22 4 10 19 -12 14 -12 15 -1 9 11 -7 12 -4 3 13 -9
16 -9 21 1 21 11 0 10 2 0 9 -10 6 -10 10 2 21 9 7 13 17 9 23 -9 15 -10 57
-1 57 4 0 7 15 6 33 0 49 9 109 19 116 11 8 15 31 5 31 -5 0 -9 7 -9 15 0 8 4
12 9 9 4 -3 7 6 6 20 -1 15 -6 26 -11 26 -4 0 -5 6 -1 12 5 7 9 19 10 28 2 8
5 24 7 35 3 13 -3 24 -17 32 -16 9 -17 12 -5 13 9 0 22 7 29 15 10 12 9 15 -4
15 -10 0 -14 5 -11 10 3 6 -1 10 -9 10 -18 0 -21 16 -6 25 6 4 8 11 5 16 -4 5
2 9 12 10 11 0 13 3 5 6 -6 2 -10 9 -6 14 3 5 -4 9 -15 9 -12 0 -21 5 -21 10
0 6 4 10 9 10 5 0 11 9 14 20 3 11 1 20 -4 20 -5 0 -9 9 -9 20 0 11 -4 20 -9
20 -6 0 -8 9 -6 20 3 13 -2 20 -13 21 -14 0 -13 2 3 8 19 8 19 8 -3 20 -26 14
-29 31 -4 32 11 1 9 4 -8 9 -14 4 -20 8 -15 9 14 1 17 41 3 41 -6 0 -8 3 -5 6
9 9 -33 45 -44 38 -5 -3 -6 1 -3 9 3 8 -2 17 -11 21 -9 3 -13 11 -9 17 4 7 3
9 -4 5 -6 -3 -17 2 -24 12 -7 10 -26 24 -43 31 -22 8 -23 10 -6 7 18 -4 21 -2
12 7 -6 6 -28 11 -49 10 -31 -1 -33 0 -12 6 23 7 21 9 -15 12 -25 3 -39 9 -38
17 2 6 -2 12 -8 12 -6 0 -8 7 -5 15 4 11 -3 17 -25 22 -16 3 -34 14 -40 25 -6
11 -13 18 -15 15 -2 -2 -20 11 -40 29 -19 19 -42 34 -50 34 -8 0 -12 4 -9 10
3 5 -12 12 -34 16 -25 4 -42 13 -46 23 -3 9 -17 18 -32 19 -15 1 -29 6 -32 10
-14 19 -143 64 -185 64 -26 0 -52 5 -59 12 -7 7 -46 13 -92 15 -43 1 -84 6
-91 11 -6 6 -13 8 -16 5 -2 -3 -42 0 -89 6 -46 6 -95 12 -109 13 -15 1 -24 8
-22 15 2 9 -3 11 -15 6 -10 -4 -31 -9 -46 -11 -15 -2 -36 -8 -45 -13 -10 -5
-28 -9 -42 -8 -14 0 -38 -3 -55 -6 -27 -6 -26 -5 7 11 21 9 38 20 38 25 0 10
-12 8 -35 -6z m-319 -209 c10 -13 12 -17 4 -10 -8 6 -22 12 -33 12 -10 0 -15
5 -12 10 9 15 20 12 41 -12z m-31 -17 l20 -2 -20 -8 c-12 -5 -23 -4 -27 3 -6
8 -8 7 -8 -1 0 -7 -7 -13 -15 -13 -8 0 -15 5 -15 11 0 5 -5 7 -12 3 -6 -4 -8
-3 -5 2 5 9 26 10 82 5z m-40 -30 l30 -7 -37 -5 c-20 -3 -34 -1 -32 3 8 13 -5
9 -31 -8 -14 -9 -25 -12 -25 -6 0 26 40 35 95 23z m-25 -44 c-14 -6 -43 -19
-65 -29 -21 -10 -34 -13 -28 -7 6 6 9 18 6 25 -3 8 0 14 7 14 6 0 8 -5 4 -12
-4 -6 2 -5 14 4 12 8 36 15 54 15 31 0 31 -1 8 -10z m10 -31 c-22 -8 -30 -15
-20 -18 8 -3 -2 -4 -22 -4 -21 1 -38 2 -38 3 0 8 69 31 90 31 21 0 20 -1 -10
-12z"/>
<path d="M4405 10200 c3 -5 8 -10 11 -10 2 0 4 5 4 10 0 6 -5 10 -11 10 -5 0
-7 -4 -4 -10z"/>
<path d="M5708 9248 c-19 -7 -25 -14 -21 -26 6 -14 4 -15 -9 -4 -12 10 -31 11
-79 4 -35 -5 -80 -10 -99 -11 -19 -1 -38 -7 -42 -14 -4 -7 -8 -9 -8 -4 0 4
-15 0 -32 -10 -18 -9 -36 -16 -40 -15 -5 1 -8 -3 -8 -9 0 -6 7 -8 16 -5 8 3
37 -1 64 -10 35 -11 53 -13 67 -6 12 7 25 7 34 1 21 -13 52 -11 43 3 -5 8 3 9
29 5 36 -6 47 7 22 25 -6 5 -3 8 7 8 9 0 20 -4 23 -10 3 -5 12 -10 18 -10 9 0
9 2 0 8 -8 5 2 8 24 9 25 1 32 -2 22 -8 -9 -6 -10 -9 -2 -9 6 0 15 4 18 10 7
12 54 -10 74 -34 15 -18 56 -21 66 -6 3 6 -2 10 -12 11 -12 1 -10 3 7 8 l25 7
-24 8 c-14 5 -33 16 -43 26 -10 9 -40 29 -66 42 -38 20 -52 24 -74 16z m-1
-54 c-3 -3 -12 -4 -19 -1 -8 3 -5 6 6 6 11 1 17 -2 13 -5z"/>
<path d="M4665 9224 c22 -17 12 -19 -17 -3 -16 8 -19 8 -13 -1 5 -8 3 -11 -6
-8 -7 2 -25 -6 -39 -19 -14 -13 -30 -23 -36 -23 -14 0 -48 -39 -62 -73 -15
-35 -15 -37 3 -37 9 0 12 -6 9 -15 -9 -22 29 -19 50 4 10 11 29 22 42 25 14 4
22 11 19 16 -3 5 16 7 45 5 27 -2 52 1 56 6 3 6 20 8 38 5 17 -3 65 -8 107
-11 63 -4 80 -2 98 12 49 42 -4 80 -117 85 -34 2 -62 6 -62 11 0 4 -21 7 -46
7 -25 0 -43 4 -40 9 3 5 -6 11 -21 14 -26 5 -26 4 -8 -9z"/>
<path d="M5690 9150 c-23 -7 -23 -8 -3 -9 12 -1 25 4 28 9 3 6 5 10 3 9 -2 -1
-14 -5 -28 -9z"/>
<path d="M4508 9013 c7 -3 16 -2 19 1 4 3 -2 6 -13 5 -11 0 -14 -3 -6 -6z"/>
<path d="M5492 8984 c-18 -9 -40 -30 -48 -45 -23 -46 -22 -48 42 -40 6 0 9 12
6 26 -3 18 1 27 14 32 11 3 22 11 26 17 4 6 8 -1 8 -16 0 -51 8 -58 64 -58 54
0 76 12 76 42 0 10 6 18 14 18 21 0 31 -21 15 -31 -7 -4 -11 -10 -8 -13 9 -9
119 -23 144 -18 l24 4 -29 25 c-76 64 -271 96 -348 57z"/>
<path d="M4725 8971 c-16 -4 -40 -13 -51 -19 -12 -6 -24 -8 -28 -5 -3 3 -6 1
-6 -6 0 -7 -4 -10 -9 -6 -5 3 -12 1 -16 -5 -4 -6 -11 -7 -17 -4 -6 4 -8 2 -5
-3 4 -6 -4 -18 -18 -27 -26 -17 -32 -40 -14 -52 12 -7 125 23 146 38 6 5 10
18 8 29 -2 11 4 23 16 30 24 12 22 14 35 -26 8 -27 14 -30 56 -33 38 -2 51 1
65 17 22 26 29 26 36 2 3 -13 -1 -21 -12 -24 -9 -2 3 -4 27 -4 23 0 42 4 42 9
0 20 -34 66 -60 82 -30 17 -137 21 -195 7z"/>
<path d="M6422 8867 c4 -21 2 -27 -8 -23 -8 3 -14 1 -14 -4 0 -6 7 -10 15 -10
11 0 15 -11 15 -39 0 -22 4 -42 9 -45 14 -9 7 122 -8 136 -11 11 -13 8 -9 -15z"/>
<path d="M6315 8770 c3 -5 8 -10 11 -10 2 0 4 5 4 10 0 6 -5 10 -11 10 -5 0
-7 -4 -4 -10z"/>
<path d="M6226 8484 c-8 -21 -8 -108 0 -129 5 -13 8 -14 15 -3 6 9 9 7 9 -9 0
-13 5 -23 10 -23 17 0 11 30 -10 57 -17 21 -19 35 -14 75 7 48 2 63 -10 32z"/>
<path d="M4312 8420 c0 -14 2 -19 5 -12 2 6 2 18 0 25 -3 6 -5 1 -5 -13z"/>
<path d="M4996 8393 c-23 -4 -26 -7 -15 -14 9 -7 2 -8 -23 -3 -43 7 -43 8 -22
-45 21 -54 53 -65 157 -57 45 3 87 6 94 6 6 0 19 8 28 17 11 11 38 18 79 20
110 6 141 13 154 33 11 18 10 20 -12 20 -13 0 -26 7 -30 15 -7 20 -104 21
-112 2 -3 -8 -10 -14 -17 -14 -7 0 -28 -7 -47 -16 -33 -14 -39 -13 -105 14
-38 16 -77 28 -85 27 -8 0 -28 -3 -44 -5z m390 -30 c-11 -11 -35 -12 -42 -2
-3 5 7 9 22 9 15 0 24 -3 20 -7z m-61 -23 c-3 -5 -16 -10 -28 -10 -18 0 -19 2
-7 10 20 13 43 13 35 0z"/>
<path d="M4363 8345 c7 -16 12 -38 10 -47 -3 -10 0 -18 6 -18 18 0 12 46 -9
71 l-21 24 14 -30z"/>
<path d="M6211 8334 c0 -11 3 -14 6 -6 3 7 2 16 -1 19 -3 4 -6 -2 -5 -13z"/>
<path d="M6277 8263 c-9 -2 -14 -9 -10 -15 4 -7 0 -9 -9 -5 -10 3 -18 -1 -21
-13 -4 -17 -2 -17 39 -3 52 18 79 44 43 42 -13 -1 -32 -3 -42 -6z"/>
<path d="M5025 8114 c-106 -31 -125 -38 -125 -47 0 -5 -11 -6 -24 -3 -15 4
-28 0 -36 -9 -11 -13 -9 -20 11 -41 22 -24 75 -58 91 -59 9 0 23 -15 24 -26 1
-5 2 -13 3 -19 0 -5 8 -10 16 -10 11 0 14 9 13 32 -3 27 1 32 27 39 17 5 66 9
110 8 44 0 123 5 175 11 52 6 133 12 180 14 47 2 94 6 105 9 11 3 26 6 33 6 6
1 12 5 12 10 0 5 -27 14 -61 20 -34 6 -67 15 -74 21 -25 20 -80 30 -198 35
-66 3 -127 10 -137 15 -25 14 -85 11 -145 -6z m373 -47 c19 -23 -2 -41 -41
-34 -23 4 -37 1 -40 -6 -2 -8 -41 -12 -125 -12 -127 1 -159 10 -130 38 10 11
43 15 128 16 62 0 114 2 116 3 10 10 83 6 92 -5z m63 -20 c-11 -11 -41 -3 -41
11 0 5 12 7 26 4 17 -3 22 -8 15 -15z"/>
<path d="M5097 7843 c-15 -14 -5 -21 36 -26 23 -3 60 -10 82 -15 32 -9 43 -8
55 3 12 13 12 16 -4 28 -18 13 -158 22 -169 10z"/>
<path d="M6136 7768 c-16 -132 -24 -185 -30 -203 -5 -12 -2 -11 8 5 8 14 18
47 21 74 11 74 29 31 22 -52 -7 -88 -76 -226 -202 -403 -156 -219 -252 -372
-324 -515 l-46 -91 -1 96 c0 79 -6 111 -30 181 l-29 85 -45 -3 c-71 -6 -169
-31 -221 -58 -27 -13 -52 -24 -56 -24 -4 1 55 33 132 73 77 40 158 84 180 98
22 14 48 28 58 32 10 4 16 11 13 15 -3 5 0 9 7 9 18 0 107 63 107 75 0 7 -4 7
-13 -1 -8 -6 -17 -7 -21 -3 -4 4 -6 0 -4 -8 2 -10 -4 -14 -19 -13 -13 2 -23
-3 -23 -10 0 -7 -14 -12 -38 -11 -20 0 -41 -2 -47 -5 -5 -3 -19 -7 -30 -8 -11
-2 -24 -8 -29 -13 -6 -6 -28 -10 -50 -10 -23 0 -50 -7 -60 -15 -11 -8 -35 -15
-53 -15 -18 0 -33 -4 -33 -10 0 -5 -7 -10 -15 -10 -7 0 -18 -7 -23 -16 -9 -16
-23 -16 -63 0 -13 6 -15 2 -11 -20 4 -24 3 -25 -15 -15 -12 6 -23 18 -27 26
-3 9 -10 13 -16 10 -6 -4 -8 -11 -5 -16 4 -5 1 -9 -5 -9 -8 0 -10 9 -6 25 4
14 2 25 -3 25 -5 0 -15 15 -22 33 -7 17 -29 47 -47 66 -28 28 -34 42 -36 83
-1 26 -8 54 -14 60 -9 9 -12 9 -12 -1 0 -8 -7 -11 -19 -8 -15 4 -22 -2 -30
-23 -7 -22 -14 -27 -31 -23 -11 3 -28 15 -37 27 -13 18 -15 18 -9 2 5 -16 4
-17 -8 -7 -8 7 -17 22 -19 34 -2 12 -5 2 -6 -23 -1 -45 36 -197 57 -235 6 -11
49 -57 95 -103 71 -71 91 -84 125 -89 27 -4 51 0 73 11 18 9 34 14 36 12 6 -6
-46 -37 -89 -52 -40 -14 -65 -11 -40 5 7 4 -1 12 -24 20 -31 11 -38 11 -54 -4
-18 -17 -21 -17 -47 0 -45 28 -83 67 -76 78 3 6 1 7 -5 3 -19 -12 -54 13 -49
35 3 10 2 17 -2 14 -5 -2 -16 39 -26 91 -20 106 -17 224 9 306 8 27 10 45 5
42 -5 -3 -9 4 -9 15 0 12 -4 21 -10 21 -5 0 -10 -6 -10 -12 0 -7 -35 -31 -78
-52 -42 -22 -114 -64 -159 -92 -120 -77 -307 -174 -473 -244 -153 -65 -265
-125 -365 -195 -33 -23 -80 -51 -105 -62 -89 -40 -152 -138 -176 -275 -9 -46
-24 -114 -35 -153 -21 -76 -24 -160 -9 -215 10 -39 11 -82 4 -185 -3 -38 -6
-97 -7 -131 -2 -48 -8 -69 -29 -100 -33 -48 -34 -59 -8 -102 l20 -33 -30 -17
c-42 -24 -44 -40 -14 -83 19 -27 25 -47 21 -66 -12 -64 -86 -298 -96 -301 -30
-10 -78 -51 -92 -79 -9 -18 -22 -85 -29 -150 l-13 -118 -54 -38 c-76 -54 -88
-75 -74 -134 l12 -48 -94 -95 c-75 -76 -102 -113 -140 -187 -80 -156 -164
-435 -151 -502 5 -24 -2 -38 -40 -85 -25 -31 -46 -60 -46 -65 0 -4 -30 -41
-66 -82 -36 -41 -88 -108 -115 -149 -47 -71 -49 -77 -48 -140 2 -111 -2 -107
157 -188 78 -39 143 -75 144 -79 2 -4 -6 -9 -17 -11 -11 -2 -29 -12 -40 -22
-11 -9 -58 -24 -104 -33 -46 -10 -86 -19 -89 -22 -3 -3 -6 -24 -6 -47 l-1 -43
111 3 111 3 44 -83 c24 -46 42 -86 41 -90 -1 -5 3 -8 8 -8 6 0 10 -6 10 -14 0
-7 11 -29 24 -49 13 -19 22 -38 19 -41 -3 -3 -1 -11 5 -18 7 -9 6 -19 -4 -32
-8 -11 -14 -31 -14 -45 -1 -24 -1 -25 -15 -8 -13 18 -15 16 -26 -25 -7 -23
-17 -49 -23 -56 -7 -10 -6 -16 4 -22 10 -6 3 -10 -22 -15 -34 -7 -114 -75 -87
-75 8 0 5 -5 -5 -13 -10 -8 -30 -12 -45 -10 -21 3 -23 2 -7 -5 24 -11 5 -25
-20 -15 -11 4 -15 3 -11 -4 4 -6 1 -14 -5 -16 -10 -4 -10 -6 0 -6 7 -1 66 23
130 52 64 30 136 62 159 71 23 10 54 31 69 47 15 15 31 26 36 23 13 -8 10 -1
-24 72 l-33 69 -6 295 c-7 320 -3 497 12 546 19 60 162 171 274 213 74 28 185
38 244 21 37 -10 66 -33 170 -139 209 -210 349 -392 376 -489 9 -31 25 -79 37
-107 85 -205 91 -237 57 -315 -22 -52 -22 -66 1 -193 7 -37 10 -70 7 -74 -17
-16 -85 20 -131 68 -57 61 -106 180 -106 259 0 39 -4 52 -20 60 -24 13 -80
107 -80 135 -1 17 -2 18 -13 5 -7 -9 -20 -14 -29 -12 -24 5 -23 -4 12 -100 17
-45 30 -91 30 -103 0 -17 77 -137 100 -155 3 -3 19 -22 35 -43 19 -25 33 -36
44 -32 8 3 12 3 8 -1 -4 -4 22 -38 58 -75 87 -90 107 -146 65 -184 -26 -24
-89 -15 -139 19 -20 14 -46 26 -57 26 -11 0 -29 7 -40 15 -10 8 -25 15 -33 15
-8 0 -41 27 -74 60 -32 33 -75 73 -95 88 -21 15 -39 30 -42 33 -3 3 -11 8 -19
10 -8 3 -29 34 -48 69 -19 36 -31 54 -27 40 14 -54 59 -121 113 -169 125 -112
215 -201 203 -201 -7 0 -10 -4 -7 -10 10 -16 -11 -43 -36 -47 -13 -2 -47 -4
-76 -3 -29 0 -55 -5 -58 -10 -3 -6 -18 -10 -33 -10 -21 0 -24 -2 -12 -10 11
-7 1 -9 -35 -9 -40 1 -45 3 -25 9 23 7 23 8 3 9 -12 1 -25 -3 -28 -9 -3 -5
-23 -7 -44 -4 -25 3 -42 1 -46 -6 -5 -9 -1 -10 16 -5 23 7 23 6 5 -8 -11 -8
-28 -12 -39 -9 -14 3 -18 1 -13 -6 10 -16 -2 -15 -57 4 -30 10 -45 20 -41 27
5 9 4 9 -5 1 -10 -9 -1 -25 42 -70 l55 -58 78 57 c72 52 83 57 132 57 29 0 69
7 89 15 19 8 37 15 39 15 2 0 -45 -80 -105 -178 -63 -104 -195 -354 -318 -603
-116 -233 -231 -458 -255 -499 -24 -41 -69 -118 -99 -170 -31 -52 -84 -158
-118 -235 -35 -77 -78 -173 -97 -214 -19 -40 -34 -77 -34 -82 0 -5 675 -9
1628 -9 l1628 0 36 38 c43 45 140 169 188 240 23 34 52 61 85 79 l50 28 275
-2 c151 -1 439 -3 640 -6 201 -3 448 -2 550 2 l185 6 -2 30 c-1 16 -9 35 -18
41 -8 6 -15 15 -15 20 0 16 -64 68 -80 66 -8 -2 10 19 39 46 l55 49 89 7 c50
3 139 6 199 6 127 0 114 -14 148 155 21 109 28 134 89 350 91 322 114 505 114
885 0 233 -4 309 -27 495 -14 121 -26 254 -26 296 0 41 -6 116 -14 165 -8 49
-18 110 -21 136 -4 29 -20 68 -45 107 -55 85 -168 197 -223 221 -40 18 -48 26
-57 63 -26 100 -44 137 -105 213 -49 61 -78 87 -120 109 -65 33 -72 43 -81
121 -3 33 -15 74 -25 92 -10 18 -21 54 -23 81 -2 27 -12 63 -20 80 -9 16 -16
50 -16 74 0 25 -7 61 -16 82 -15 36 -14 38 7 53 51 35 59 50 48 79 -6 16 -18
36 -27 46 -24 27 -19 93 10 117 20 15 23 27 22 77 -1 32 -4 87 -9 123 -6 53
-3 84 18 170 24 104 35 162 58 315 6 44 20 113 30 154 10 40 21 96 25 125 3
28 10 65 15 81 4 17 11 75 14 130 3 55 11 141 17 191 21 170 -15 296 -137 480
-64 95 -63 95 -315 254 -195 123 -209 132 -313 204 -32 22 -82 72 -116 116
-67 87 -103 120 -191 180 -68 46 -225 115 -285 125 -22 3 -50 8 -62 11 -18 3
-42 43 -113 188 -50 101 -99 191 -110 201 -18 16 -19 15 -24 -27z m-1069
-1236 c6 -4 27 -30 46 -57 66 -96 157 -191 235 -246 23 -16 42 -35 42 -41 0
-6 -10 -3 -22 8 -15 12 -13 8 5 -12 l27 -30 -76 -190 c-135 -335 -169 -457
-242 -872 l-27 -157 0 -534 c0 -395 -3 -535 -12 -538 -6 -2 -13 12 -17 34 -3
21 -17 112 -31 203 -53 341 -72 509 -64 553 4 23 10 89 14 147 3 58 10 148 16
201 9 77 8 118 -5 210 -8 63 -20 164 -26 224 -6 61 -20 168 -32 239 -14 88
-17 130 -10 135 7 4 7 21 2 51 -25 130 -28 178 -21 343 l6 177 33 31 32 30 35
-21 c30 -18 35 -19 35 -6 0 9 8 16 18 16 15 1 16 2 1 13 -9 7 -18 31 -20 55
-4 39 -3 42 21 42 14 0 30 -4 37 -8z m-841 -2698 c15 -64 30 -100 56 -137 12
-16 27 -53 33 -82 l13 -52 -112 -56 c-130 -65 -248 -118 -252 -114 -2 1 6 57
16 122 11 66 20 123 20 127 0 4 36 50 80 103 44 53 88 107 98 120 24 34 35 26
48 -31z m-805 -210 c55 -16 149 -60 149 -69 0 -3 -21 5 -47 19 -80 40 -122 49
-263 56 l-135 6 121 2 c86 1 136 -3 175 -14z m-521 -69 c0 -2 -10 -9 -22 -15
-22 -11 -22 -10 -4 4 21 17 26 19 26 11z m-66 -43 c-12 -9 -42 -33 -67 -52
-81 -64 -132 -151 -123 -211 7 -42 34 -101 53 -112 18 -11 17 -27 -2 -27 -21
0 -67 105 -67 152 1 73 75 174 176 240 47 30 61 36 30 10z m826 -47 c0 -5 -8
2 -18 18 -9 15 -20 27 -24 27 -5 0 -8 6 -8 13 1 6 12 -1 25 -18 14 -16 25 -34
25 -40z m30 -69 c0 -12 -5 -7 -19 24 -11 24 -11 24 3 6 9 -11 16 -24 16 -30z
m-29 -53 c-8 -15 -10 -15 -11 -2 0 17 10 32 18 25 2 -3 -1 -13 -7 -23z m-384
-1409 c-3 -3 -12 -4 -19 -1 -8 3 -5 6 6 6 11 1 17 -2 13 -5z"/>
<path d="M5365 6140 c-10 -11 -16 -22 -13 -25 3 -3 13 4 23 15 10 11 16 22 13
25 -3 3 -13 -4 -23 -15z"/>
<path d="M4860 7523 c1 -23 73 -103 93 -103 18 0 29 -37 14 -47 -13 -8 45 -23
103 -28 20 -1 52 -9 70 -18 37 -16 70 -19 70 -5 0 4 3 7 8 7 35 -6 92 3 90 13
-2 8 7 12 25 10 15 -2 39 4 53 13 13 9 28 13 33 11 11 -7 101 23 101 34 0 5
10 10 23 12 31 4 36 43 5 51 -12 4 -25 1 -29 -4 -4 -8 -13 -8 -25 -1 -12 6
-44 6 -89 -1 -135 -19 -360 -6 -389 23 -6 6 -22 10 -38 10 -15 0 -42 9 -60 20
-41 25 -58 25 -58 3z"/>
<path d="M5680 7494 c0 -8 5 -12 10 -9 6 4 8 11 5 16 -9 14 -15 11 -15 -7z"/>
<path d="M4812 7400 c0 -14 2 -19 5 -12 2 6 2 18 0 25 -3 6 -5 1 -5 -13z"/>
<path d="M4844 7362 c3 -6 2 -13 -4 -17 -5 -3 -10 -1 -10 4 0 6 -5 11 -12 11
-6 0 1 -13 17 -30 16 -16 31 -27 34 -24 3 3 -1 9 -8 14 -8 4 -11 15 -8 24 3 8
1 18 -5 22 -6 4 -8 3 -4 -4z"/>
<path d="M4820 7300 c0 -5 5 -10 10 -10 6 0 10 5 10 10 0 6 -4 10 -10 10 -5 0
-10 -4 -10 -10z"/>
<path d="M5000 7223 c0 -13 5 -23 10 -23 13 0 13 11 0 30 -8 12 -10 11 -10 -7z"/>
<path d="M5730 7190 c-14 -11 -20 -20 -14 -20 6 0 19 9 29 20 23 25 17 25 -15
0z"/>
<path d="M3221 2690 c-1 -3 8 -27 19 -55 10 -27 19 -43 19 -35 0 14 -36 101
-38 90z"/>
<path d="M3290 2500 c6 -11 13 -20 16 -20 2 0 0 9 -6 20 -6 11 -13 20 -16 20
-2 0 0 -9 6 -20z"/>
<path d="M2660 2501 c0 -6 4 -13 10 -16 6 -3 7 1 4 9 -7 18 -14 21 -14 7z"/>
<path d="M1541 2284 c0 -11 3 -14 6 -6 3 7 2 16 -1 19 -3 4 -6 -2 -5 -13z"/>
<path d="M2951 2269 c-1 -9 2 -19 7 -23 4 -4 15 -26 24 -49 9 -23 17 -35 17
-27 1 21 -47 119 -48 99z"/>
<path d="M3150 2266 c0 -13 41 -88 46 -83 3 2 -5 22 -17 43 -24 43 -29 51 -29
40z"/>
<path d="M1522 2150 c0 -14 2 -19 5 -12 2 6 2 18 0 25 -3 6 -5 1 -5 -13z"/>
<path d="M2067 2099 c-4 -16 -11 -19 -29 -14 -21 5 -21 5 -4 -6 15 -9 16 -13
5 -20 -8 -5 -18 -9 -24 -9 -5 0 -3 5 5 10 18 12 2 12 -25 0 -13 -6 -15 -9 -5
-9 13 -1 13 -2 0 -11 -8 -5 -22 -10 -30 -10 -13 0 -13 1 0 10 8 5 11 10 6 10
-5 0 -17 -7 -27 -16 -14 -13 -21 -13 -40 -4 -19 11 -25 10 -36 -6 -7 -10 -13
-24 -13 -31 0 -8 -21 -35 -47 -61 -43 -42 -63 -90 -35 -85 6 2 9 -3 6 -11 -8
-20 23 -46 54 -46 23 -1 25 -2 9 -11 -9 -6 -27 -7 -40 -4 -19 5 -20 5 -4 -5
10 -7 32 -9 50 -5 38 8 155 66 213 106 23 15 64 37 92 47 70 27 86 44 78 86
-7 36 -69 101 -87 91 -15 -10 -61 4 -54 15 3 6 2 10 -3 10 -5 0 -12 -9 -15
-21z m-240 -275 c-3 -3 -12 -4 -19 -1 -8 3 -5 6 6 6 11 1 17 -2 13 -5z m0 -20
c-3 -3 -12 -4 -19 -1 -8 3 -5 6 6 6 11 1 17 -2 13 -5z"/>
<path d="M2218 2113 c7 -3 16 -2 19 1 4 3 -2 6 -13 5 -11 0 -14 -3 -6 -6z"/>
<path d="M2178 2103 c7 -3 16 -2 19 1 4 3 -2 6 -13 5 -11 0 -14 -3 -6 -6z"/>
<path d="M1510 2046 c0 -8 4 -17 9 -20 5 -4 7 3 4 14 -6 23 -13 26 -13 6z"/>
<path d="M1509 1972 c6 -12 16 -24 22 -28 8 -4 8 -1 0 14 -6 12 -16 24 -22 28
-8 4 -8 1 0 -14z"/>
<path d="M1587 1903 c-8 -12 30 -49 40 -40 3 4 1 7 -6 7 -6 0 -15 10 -20 22
-4 12 -11 17 -14 11z"/>
<path d="M1640 1856 c0 -2 7 -9 15 -16 9 -7 15 -8 15 -2 0 5 -7 12 -15 16 -8
3 -15 4 -15 2z"/>
<path d="M1736 1831 c-3 -5 1 -14 9 -21 8 -7 12 -17 8 -23 -4 -6 -1 -7 6 -3 9
6 9 12 -3 25 -9 10 -13 21 -9 24 3 4 4 7 0 7 -3 0 -8 -4 -11 -9z"/>
</g>
</svg>
