<?xml version="1.0" standalone="no"?>
<!DOCTYPE svg PUBLIC "-//W3C//DTD SVG 20010904//EN"
 "http://www.w3.org/TR/2001/REC-SVG-20010904/DTD/svg10.dtd">
<svg version="1.0" xmlns="http://www.w3.org/2000/svg"
 width="1024.000000pt" height="1024.000000pt" viewBox="0 0 1024.000000 1024.000000"
 preserveAspectRatio="xMidYMid meet">

<g transform="translate(0.000000,1024.000000) scale(0.100000,-0.100000)"
fill="#000000" stroke="none">
<path d="M0 9669 c0 -502 2 -575 16 -607 9 -21 20 -46 25 -57 13 -32 20 -183
8 -191 -12 -7 -5 -103 17 -234 8 -47 14 -103 14 -124 0 -57 17 -33 25 34 3 30
9 59 13 65 10 13 29 71 37 115 4 19 12 41 17 47 6 7 8 20 4 28 -3 8 -1 15 5
15 6 0 9 8 8 18 -4 41 2 73 11 67 6 -4 8 -16 5 -28 -3 -12 17 23 44 78 28 56
46 104 41 109 -12 12 -30 -2 -30 -25 0 -10 -7 -19 -14 -19 -12 0 -11 8 6 40
27 50 75 103 87 95 6 -3 15 5 22 17 6 13 38 50 70 84 46 49 61 59 75 51 11 -7
15 -6 10 1 -15 25 26 57 149 117 131 64 189 85 235 85 15 0 -22 -22 -95 -58
-66 -32 -136 -67 -155 -77 -19 -10 -83 -66 -142 -125 -86 -85 -113 -119 -136
-171 -30 -66 -53 -197 -33 -184 6 3 11 16 11 28 0 12 4 29 10 37 8 12 10 12
16 -3 8 -21 32 -22 55 -1 26 24 65 11 77 -26 15 -42 50 -42 44 0 -2 17 -10 30
-18 30 -8 0 -14 7 -14 16 0 12 6 11 28 -8 20 -16 27 -30 24 -45 -4 -19 0 -23
20 -23 14 0 28 3 32 7 16 16 44 12 49 -8 3 -11 11 -18 17 -17 7 2 15 -3 18
-11 3 -8 0 -11 -7 -7 -7 5 -11 -3 -11 -23 0 -21 6 -32 20 -36 11 -3 20 -15 20
-25 0 -20 35 -50 57 -50 7 0 13 11 13 25 0 17 4 23 15 19 10 -4 19 4 27 22 11
29 12 29 16 5 2 -13 12 -26 23 -28 10 -3 19 -9 19 -14 0 -5 12 -2 26 8 25 16
27 16 40 -2 13 -17 15 -17 26 -3 7 9 22 18 33 20 12 2 21 13 23 27 2 13 -1 21
-6 17 -5 -3 -19 4 -32 16 l-22 21 23 13 c33 18 36 17 35 -8 -1 -17 5 -23 23
-24 24 -1 71 -48 71 -71 0 -7 7 -16 15 -19 8 -4 15 -12 15 -18 0 -7 11 -18 25
-24 34 -16 40 -15 26 2 -16 20 5 32 25 15 13 -10 17 -10 25 2 5 8 9 11 9 6 0
-4 17 3 38 16 20 13 42 22 48 20 7 -2 9 8 6 27 -2 16 -8 28 -12 25 -5 -3 -6 3
-3 14 5 18 41 41 66 41 27 0 39 17 28 38 -8 16 -7 21 5 26 22 9 24 8 24 -9 0
-17 25 -20 35 -5 4 6 11 8 16 5 5 -4 9 -1 9 4 0 6 -4 11 -10 11 -5 0 -10 7
-10 15 0 8 -5 15 -11 15 -15 0 0 41 23 64 12 11 23 15 27 9 9 -13 41 -24 41
-14 0 5 -5 11 -12 13 -9 3 -9 6 0 12 8 4 16 -2 22 -18 5 -14 17 -26 27 -27 11
0 13 -3 6 -6 -17 -6 -16 -23 3 -63 9 -17 17 -43 17 -56 0 -13 4 -24 9 -24 5 0
6 5 3 10 -3 6 3 10 14 10 12 0 21 -6 21 -14 0 -25 19 -29 56 -11 31 15 35 20
32 51 -1 18 2 33 7 31 6 -1 9 -5 7 -9 -1 -5 4 -8 12 -8 15 0 41 -54 39 -82 -1
-10 2 -18 8 -18 5 0 9 3 9 8 0 4 18 26 39 49 41 44 42 51 16 116 -4 9 -3 17 2
17 6 0 22 11 36 24 l26 24 7 -44 c3 -24 10 -47 15 -50 12 -7 11 18 -1 51 -8
21 -6 30 10 47 16 18 20 19 20 5 0 -8 -5 -19 -10 -22 -18 -11 10 -35 40 -35
16 0 31 -6 34 -12 5 -10 7 -10 12 0 3 6 17 12 31 12 21 0 24 2 13 15 -10 13
-9 15 9 15 11 0 21 6 21 14 0 8 8 16 17 18 15 3 13 8 -11 30 -28 25 -28 48 -1
48 8 0 19 -9 25 -20 7 -14 21 -20 44 -20 38 0 90 23 78 35 -11 11 35 -4 113
-37 40 -18 71 -26 73 -20 4 13 75 5 125 -14 20 -8 47 -14 59 -14 19 0 72 -21
175 -72 29 -14 47 -18 55 -11 24 19 115 15 163 -6 25 -11 73 -25 105 -31 33
-6 80 -17 104 -24 25 -8 47 -12 49 -9 10 9 198 -88 311 -161 66 -42 138 -81
160 -87 81 -22 293 -138 400 -219 120 -92 267 -177 388 -225 71 -28 89 -43
153 -123 22 -28 41 -49 43 -47 2 2 -6 21 -17 44 -12 22 -21 42 -21 44 0 10
111 -17 162 -40 32 -14 65 -23 74 -19 12 5 15 2 10 -9 -4 -12 -2 -13 12 -7 9
5 24 7 32 5 8 -3 -3 7 -25 21 -22 14 -46 26 -52 26 -7 0 -13 3 -13 8 0 8 -21
18 -185 90 -60 27 -132 63 -159 81 -28 17 -58 31 -67 31 -10 0 -39 9 -65 20
-33 15 -44 24 -37 31 15 15 116 -14 233 -67 99 -45 231 -81 251 -68 18 11 -19
34 -54 34 -16 0 -26 4 -22 10 3 6 -3 10 -14 10 -11 0 -36 9 -56 20 -20 11 -47
20 -61 20 -13 0 -41 7 -62 16 -82 35 -178 64 -213 64 -51 0 -62 20 -12 21 74
1 92 22 28 33 -15 3 -44 16 -64 30 -20 13 -54 32 -76 41 -22 10 -49 22 -60 28
-11 6 -31 16 -44 23 -13 7 -27 17 -30 22 -3 4 -28 23 -56 42 -54 36 -147 107
-180 137 -11 10 -30 17 -41 15 -11 -2 -55 20 -99 49 -44 28 -100 58 -125 67
-25 8 -53 19 -62 23 -10 5 -24 9 -31 9 -21 0 -48 24 -51 45 -2 14 -16 23 -49
31 -26 7 -64 22 -84 34 -28 17 -58 24 -111 26 -40 2 -92 8 -115 14 -23 5 -73
10 -112 10 -85 0 -124 10 -234 62 -68 32 -94 39 -123 35 -28 -4 -52 2 -90 20
-102 48 -201 88 -258 103 -25 7 -56 20 -70 29 -35 25 -144 82 -161 85 -26 4
-70 39 -85 68 -14 27 -30 37 -111 70 -18 7 -33 16 -33 20 0 5 -8 8 -18 8 -10
0 -28 7 -41 16 -12 9 -39 18 -59 21 -74 8 -84 12 -77 33 5 14 2 20 -9 20 -9 0
-16 -5 -16 -11 0 -5 -5 -7 -11 -3 -8 5 -8 9 1 14 9 6 7 11 -9 19 -17 10 -21 9
-21 -4 0 -16 -35 -21 -44 -6 -4 5 4 7 16 4 21 -5 21 -3 -6 21 -16 14 -33 26
-38 26 -13 0 -9 38 4 42 7 3 5 7 -6 11 -9 4 -15 3 -12 -2 4 -5 -10 -5 -31 -1
-20 5 -42 6 -47 2 -14 -8 -40 -5 -90 10 -31 10 -35 13 -20 19 14 6 11 8 -13 8
-18 1 -33 4 -33 9 0 14 62 11 87 -5 23 -16 24 -17 7 -24 -14 -6 -11 -8 14 -8
17 -1 32 2 32 7 0 4 23 7 50 7 28 0 50 -3 50 -8 0 -4 12 -5 28 -1 21 4 24 3
12 -5 -12 -10 -10 -11 10 -10 14 1 46 1 72 1 40 -2 47 -5 42 -19 -5 -15 -4
-15 4 -4 9 12 16 9 39 -18 15 -18 38 -43 49 -56 12 -13 19 -27 15 -31 -3 -4 0
-4 7 0 9 5 3 19 -23 49 -19 22 -35 44 -35 47 0 4 -19 20 -41 35 -32 21 -38 29
-28 36 8 5 28 6 45 3 28 -5 33 -3 42 25 7 20 20 33 36 37 34 8 33 13 -9 54
-19 19 -35 42 -35 53 0 11 -5 15 -11 11 -8 -4 -8 0 0 15 23 42 50 17 51 -46 0
-34 39 -28 52 8 3 8 23 41 43 73 34 54 38 57 54 42 21 -19 61 -21 62 -3 1 6 5
1 9 -13 l8 -25 1 25 c2 23 3 24 15 7 13 -17 14 -17 20 0 5 11 1 22 -9 29 -13
10 -12 13 12 19 66 18 92 8 49 -20 -24 -16 -24 -17 -5 -36 10 -10 25 -19 32
-19 7 0 19 -10 27 -21 34 -49 60 -63 60 -34 0 8 4 15 9 15 18 0 21 33 6 56
-10 15 -25 24 -41 24 l-25 0 18 31 c11 19 24 28 34 26 9 -3 23 -1 30 4 10 6
10 9 2 9 -7 0 -10 7 -7 15 7 18 26 20 23 3 -4 -31 2 -47 19 -51 16 -4 16 -5 0
-6 -21 -1 -22 -10 -3 -35 20 -26 31 -13 27 33 -3 31 -7 38 -20 34 -10 -4 -13
-2 -8 5 4 7 18 12 32 12 23 0 29 -9 25 -39 -3 -17 18 -4 42 26 10 13 25 23 33
23 8 0 14 5 14 11 0 6 9 9 20 6 10 -3 21 0 23 7 3 7 15 1 31 -14 26 -23 28
-24 38 -7 7 13 17 17 33 13 27 -7 45 11 21 20 -9 3 -16 13 -16 20 0 13 -44 15
-290 14 l-290 -2 0 -23 c0 -36 -16 -38 -43 -5 l-26 30 -1005 0 -1006 0 0 -571z
m1875 531 c3 -5 1 -10 -4 -10 -6 0 -11 5 -11 10 0 6 2 10 4 10 3 0 8 -4 11
-10z m-867 -221 c14 -22 12 -25 -30 -73 -16 -17 -21 -18 -43 -6 -33 18 -32 25
9 66 40 40 47 41 64 13z m-78 -3 c0 -19 -135 -146 -155 -146 -12 0 -55 -65
-55 -82 1 -8 6 -7 14 4 7 10 16 15 19 11 4 -3 7 -2 7 4 0 6 21 20 48 31 26 11
55 30 64 41 16 19 58 30 58 15 0 -12 -27 -32 -61 -43 -19 -6 -57 -32 -84 -57
-58 -53 -105 -81 -105 -63 0 7 7 21 16 30 15 16 15 23 3 51 -11 26 -11 32 0
36 15 5 46 34 52 48 5 12 119 108 144 122 27 15 35 15 35 -2z m134 -51 c3 -9
0 -15 -9 -15 -9 0 -12 6 -9 15 4 8 7 15 9 15 2 0 5 -7 9 -15z m180 -45 c9 0
16 5 16 10 0 6 8 10 18 10 16 -1 16 -1 0 -14 -10 -7 -18 -18 -18 -25 0 -6 -13
-11 -30 -11 -27 0 -30 3 -30 33 1 29 2 30 14 15 7 -10 21 -18 30 -18z m-130 4
c9 -3 16 -15 16 -25 0 -10 7 -19 15 -19 8 0 15 9 15 20 0 11 7 20 15 20 28 0
17 -39 -12 -46 -16 -3 -47 -12 -71 -20 -38 -13 -45 -12 -59 2 -10 9 -18 12
-22 5 -8 -12 -62 -33 -69 -26 -3 3 0 5 6 5 7 0 12 17 13 43 0 23 3 36 6 30 2
-7 13 -13 24 -13 10 0 19 -4 19 -10 0 -5 5 -10 10 -10 6 0 10 10 10 23 0 18 2
19 10 7 6 -9 10 -10 10 -3 0 6 10 14 23 16 12 2 23 5 24 6 1 0 8 -2 17 -5z
m195 -28 c10 -11 7 -14 -12 -12 -15 0 -23 6 -20 14 7 16 18 15 32 -2z m396
-55 c-3 -6 -14 -11 -23 -11 -15 1 -15 2 2 15 21 16 32 13 21 -4z m-1045 -63
c-11 -18 -26 -43 -32 -55 -7 -15 -20 -23 -35 -23 -29 0 -25 8 31 68 47 50 67
55 36 10z m738 -225 c11 -11 11 -13 0 -14 -120 -5 -167 -5 -225 1 l-68 6 100
8 c55 4 105 9 110 11 24 7 71 1 83 -12z m307 -142 c62 -32 67 -36 43 -39 -16
-2 -28 -9 -28 -18 0 -15 -12 -19 -24 -6 -4 4 -25 7 -46 8 -29 0 -49 10 -89 43
-28 24 -51 47 -51 52 0 22 125 -4 195 -40z m-197 -59 c9 9 12 7 12 -10 0 -12
4 -22 9 -22 5 0 18 -14 29 -32 42 -67 -24 -106 -74 -43 l-24 30 0 -28 c0 -25
-3 -28 -27 -25 -17 2 -27 10 -29 22 -4 28 -21 41 -20 15 1 -12 -5 -24 -11 -26
-7 -3 -13 2 -13 11 0 11 -9 16 -31 16 l-31 0 33 33 c18 17 39 31 47 29 8 -2
18 0 21 5 11 15 66 30 82 22 9 -5 21 -3 27 3z m567 -48 c33 -16 40 -22 23 -19
-16 3 -52 17 -80 30 -38 18 -44 23 -23 19 17 -3 53 -16 80 -30z m-139 18 c28
-19 18 -109 -12 -98 -7 3 -14 -8 -18 -27 -6 -29 -7 -30 -23 -14 -13 13 -14 19
-4 30 6 8 14 38 18 66 6 49 15 59 39 43z m-749 -77 c70 -35 81 -105 17 -105
-30 0 -35 -4 -40 -30 -6 -26 -34 -44 -34 -22 0 5 -12 14 -27 21 -16 7 -23 15
-16 19 6 4 18 31 26 60 24 81 25 81 74 57z m-847 -31 c0 -8 -4 -14 -10 -14 -5
0 -10 9 -10 21 0 11 5 17 10 14 6 -3 10 -13 10 -21z m1407 -16 c-3 -7 -5 -2
-5 12 0 14 2 19 5 13 2 -7 2 -19 0 -25z m-437 -3 c0 -3 -9 -22 -20 -42 -21
-40 -24 -36 -14 16 4 17 13 31 20 31 8 0 14 -2 14 -5z m-969 -38 c-8 -8 -11
-7 -11 4 0 20 13 34 18 19 3 -7 -1 -17 -7 -23z m1017 -96 c3 -8 -1 -12 -9 -9
-7 2 -15 10 -17 17 -3 8 1 12 9 9 7 -2 15 -10 17 -17z m-333 -61 c3 -5 2 -10
-4 -10 -5 0 -13 5 -16 10 -3 6 -2 10 4 10 5 0 13 -4 16 -10z m685 -4 c0 -3 -4
-8 -10 -11 -5 -3 -10 -1 -10 4 0 6 5 11 10 11 6 0 10 -2 10 -4z m-800 -16 c0
-5 -7 -10 -15 -10 -8 0 -15 5 -15 10 0 6 7 10 15 10 8 0 15 -4 15 -10z m-160
-15 c19 -23 -7 -40 -65 -42 -34 -2 -45 1 -35 7 8 5 23 10 32 10 10 0 22 9 28
20 13 24 23 25 40 5z m920 5 c0 -5 -4 -10 -10 -10 -5 0 -10 5 -10 10 0 6 5 10
10 10 6 0 10 -4 10 -10z m70 -26 c0 -13 -4 -24 -9 -24 -13 0 -24 37 -16 50 10
16 25 1 25 -26z m-490 -64 c0 -5 -7 -7 -15 -4 -8 4 -12 10 -9 15 6 11 24 2 24
-11z m-90 -26 c0 -8 5 -14 12 -14 6 0 3 -9 -7 -20 l-19 -21 -20 20 c-19 20
-19 21 -2 40 20 22 36 19 36 -5z m2675 -24 c3 -5 1 -10 -4 -10 -6 0 -11 5 -11
10 0 6 2 10 4 10 3 0 8 -4 11 -10z m335 -216 c36 -14 54 -34 31 -34 -22 0 -70
23 -75 36 -7 18 -5 18 44 -2z"/>
<path d="M2761 10214 c-28 -35 -27 -71 0 -79 14 -5 25 -2 30 6 7 11 9 10 9 -5
0 -13 5 -17 20 -13 28 7 25 -10 -6 -36 l-25 -22 29 -30 c16 -16 32 -39 36 -50
6 -16 9 -17 17 -5 8 12 9 10 4 -7 -6 -22 16 -46 23 -25 2 7 8 12 13 12 4 0 6
-7 2 -16 -5 -13 -2 -15 18 -9 13 4 36 16 51 26 14 11 30 19 36 19 13 0 33 50
34 86 1 33 -21 81 -49 106 -17 16 -27 17 -73 6 -10 -2 -16 6 -18 25 -4 29 7
34 38 15 14 -9 24 -9 42 0 13 6 52 13 88 15 36 2 -17 4 -117 5 l-182 2 -20
-26z"/>
<path d="M3393 10223 c15 -17 12 -18 -49 -20 -52 -1 -73 -7 -105 -27 -40 -27
-50 -46 -25 -46 8 0 26 -4 40 -9 24 -10 24 -10 10 -57 -12 -40 -12 -51 -1 -68
12 -17 23 -19 75 -17 61 2 132 -13 132 -29 0 -4 -20 -14 -45 -22 -24 -8 -42
-11 -39 -7 3 5 -1 7 -8 4 -7 -2 -26 -9 -41 -15 l-28 -10 26 -24 c15 -14 40
-28 56 -31 16 -4 29 -13 29 -21 0 -9 9 -13 29 -10 28 3 30 1 25 -24 -5 -23 -1
-29 28 -43 49 -23 85 -30 92 -18 4 6 23 11 42 11 28 0 34 4 35 23 0 21 1 21 9
2 5 -11 9 -16 9 -12 1 5 28 -19 60 -52 68 -70 86 -77 75 -28 -8 35 -8 39 -6
80 1 18 8 27 19 27 25 0 83 -23 83 -33 0 -4 9 -2 20 6 21 14 66 12 76 -4 8
-13 42 -11 47 4 3 9 7 9 19 -1 12 -10 22 -9 52 3 20 8 46 13 59 10 32 -8 116
68 98 89 -15 18 0 29 31 21 16 -4 33 1 51 15 22 18 27 19 27 6 0 -9 -4 -16 -8
-16 -14 0 -32 -48 -32 -85 0 -28 4 -35 19 -35 25 0 51 36 51 71 0 66 27 76 80
29 25 -23 37 -27 51 -20 20 11 49 3 49 -12 0 -6 -7 -5 -15 2 -12 10 -19 10
-27 2 -17 -17 -39 -14 -68 8 -41 32 -54 26 -46 -22 10 -60 37 -118 55 -118 14
1 13 3 -1 14 -10 7 -18 16 -18 20 0 13 28 5 45 -14 23 -26 31 -25 39 3 6 21 7
21 20 5 19 -25 27 -22 20 7 -4 15 -2 25 4 25 6 0 13 8 15 18 3 11 5 9 6 -8 1
-24 2 -24 23 10 12 19 23 37 25 39 1 2 12 -4 22 -13 34 -31 62 -17 85 44 14
36 22 48 24 35 10 -70 25 -81 66 -50 26 20 36 19 36 -2 1 -22 23 -53 39 -53 6
0 38 -9 71 -21 72 -25 156 -19 141 10 -15 29 -23 73 -11 66 5 -3 10 -15 10
-25 0 -16 6 -18 43 -15 23 2 56 6 72 9 17 3 47 9 68 12 41 7 41 7 27 34 -6 12
-6 27 -1 42 7 17 10 19 10 6 1 -10 6 -18 12 -18 5 0 7 5 4 11 -4 6 2 20 13 32
11 12 23 34 27 48 5 21 0 31 -25 53 -17 14 -25 26 -17 26 9 0 12 9 9 30 -3 23
0 30 12 30 10 0 15 -3 13 -7 -3 -5 14 -9 36 -10 23 -1 53 -3 66 -5 33 -4 37
15 6 32 -26 14 -35 36 -11 27 8 -3 16 -1 18 4 2 6 34 10 71 10 37 0 83 7 102
15 36 15 110 10 121 -7 3 -5 17 -6 32 -3 15 3 23 2 17 -3 -13 -11 -17 -53 -5
-53 6 0 10 6 10 14 0 8 8 17 18 20 30 9 103 0 111 -13 5 -7 12 -11 17 -9 5 1
10 -5 12 -14 2 -10 -1 -18 -7 -18 -6 0 -11 5 -11 10 0 6 -7 10 -15 10 -8 0
-15 8 -16 18 0 15 -1 15 -7 1 -10 -24 -78 -99 -84 -93 -3 2 -11 -2 -18 -11
-15 -18 -11 -19 25 -5 15 6 31 8 35 5 11 -7 -22 -44 -33 -38 -4 3 -14 0 -21
-6 -10 -9 -15 -8 -19 2 -6 15 -30 16 -59 3 -12 -6 -15 -16 -11 -42 4 -27 2
-34 -11 -34 -17 0 -21 12 -8 24 4 4 7 20 7 36 0 22 -4 27 -22 26 -14 0 -23 -7
-23 -17 0 -9 -6 -16 -12 -15 -7 0 -14 -3 -16 -9 -2 -5 -11 -18 -19 -28 -15
-16 -15 -18 1 -30 16 -12 14 -16 -25 -43 -54 -36 -90 -74 -83 -85 3 -5 0 -9
-5 -9 -6 0 -11 -5 -11 -10 0 -6 11 -3 24 6 14 8 22 22 20 29 -3 7 3 16 15 20
12 3 21 10 21 15 0 7 60 40 73 40 8 0 -44 -105 -54 -108 -5 -2 -9 -9 -9 -16 0
-6 -20 -32 -45 -56 -25 -24 -45 -40 -45 -36 0 5 -7 3 -15 -4 -8 -6 -18 -9 -23
-6 -5 3 -22 -6 -38 -21 -17 -16 -22 -24 -11 -20 11 4 17 2 17 -9 0 -10 18 -1
53 28 73 60 112 103 159 176 23 34 45 62 50 62 5 0 4 -9 -2 -19 -5 -11 -10
-29 -10 -41 0 -12 -4 -18 -10 -15 -5 3 -7 0 -4 -8 2 -7 0 -26 -6 -42 -6 -15
-8 -30 -5 -34 9 -8 25 21 25 45 0 12 6 27 14 34 8 6 16 24 18 38 2 21 9 28 31
30 15 2 27 8 27 13 0 6 4 8 10 4 5 -3 14 13 20 35 10 36 21 48 88 91 43 28 85
48 95 45 9 -2 15 -1 13 3 -5 8 111 81 118 74 3 -3 22 -6 43 -7 29 -2 185 -56
201 -71 2 -1 -9 -16 -23 -33 -36 -44 -31 -48 17 -13 48 36 63 37 161 15 51
-12 79 -24 100 -45 23 -23 32 -27 47 -19 13 7 28 6 47 -1 15 -7 55 -13 88 -14
64 -3 165 -36 185 -60 9 -11 9 -15 1 -15 -6 0 -10 -3 -10 -7 4 -23 -2 -43 -11
-38 -6 3 -18 -7 -28 -24 -9 -17 -23 -31 -29 -31 -17 0 -16 -15 2 -30 8 -7 13
-16 10 -20 -3 -5 -1 -20 5 -34 8 -21 7 -26 -6 -26 -8 0 -12 5 -9 10 11 18 -82
4 -101 -15 -18 -17 -19 -16 -27 16 -4 19 -16 41 -26 49 -10 9 -16 20 -14 26 6
18 -32 44 -68 46 -42 1 -119 -12 -119 -22 0 -3 -10 -6 -22 -6 -18 1 -24 -5
-26 -26 -2 -16 -9 -28 -16 -28 -7 0 -19 -12 -27 -27 -26 -50 -59 -71 -59 -38
0 21 -27 30 -45 15 -22 -18 -18 -30 8 -30 13 0 27 -3 30 -7 8 -7 -38 -33 -59
-33 -8 0 -14 -5 -14 -12 0 -6 3 -8 7 -5 10 11 33 -13 33 -34 0 -11 5 -19 10
-19 6 0 10 -7 10 -15 0 -8 7 -15 15 -15 9 0 18 -6 21 -14 7 -18 34 -9 34 11 0
8 7 21 15 29 13 14 16 12 27 -10 13 -30 9 -36 -22 -39 -12 -1 -29 -11 -37 -23
-12 -20 -11 -27 13 -70 15 -27 38 -58 52 -70 19 -15 23 -26 17 -43 -5 -18 -2
-24 15 -28 12 -3 17 -9 12 -12 -6 -3 -14 -19 -18 -35 -6 -26 -5 -27 14 -17 12
6 24 16 27 21 3 6 15 10 26 10 20 0 20 0 -1 -30 -12 -16 -32 -33 -45 -36 -13
-3 -26 -12 -29 -20 -3 -8 -12 -14 -20 -14 -14 0 -26 -53 -26 -112 0 -15 -7
-32 -17 -37 -17 -10 -16 -12 6 -31 31 -26 47 -25 73 5 12 14 28 25 35 25 7 0
13 8 13 17 0 13 3 14 12 5 9 -9 7 -16 -7 -32 -17 -18 -17 -22 -4 -36 8 -8 39
-17 67 -21 51 -6 52 -5 52 21 0 29 9 33 29 14 11 -10 14 -10 18 0 3 7 24 12
54 12 30 0 64 8 86 20 45 24 63 25 63 5 0 -8 6 -15 14 -15 8 0 21 7 30 15 20
20 35 19 36 -2 2 -45 1 -66 -4 -70 -2 -2 -29 7 -59 21 -29 14 -57 26 -61 26
-4 0 -6 -19 -5 -42 3 -33 0 -42 -16 -48 -20 -7 -72 14 -87 35 -4 6 -8 -5 -8
-23 0 -22 -6 -34 -17 -38 -46 -16 -79 -35 -90 -53 -21 -34 21 -54 103 -49 55
2 69 0 78 -14 8 -13 5 -22 -13 -42 -33 -35 -16 -65 38 -64 56 1 70 12 47 37
-22 25 -15 37 24 43 25 4 30 1 30 -17 0 -12 -3 -25 -7 -29 -12 -12 -10 -47 2
-42 8 3 11 -8 9 -35 -1 -21 2 -39 7 -39 5 0 9 5 9 10 0 6 7 10 15 10 8 0 15
-4 15 -10 0 -5 10 -10 23 -10 38 0 54 -16 40 -39 -10 -15 -9 -22 2 -31 22 -18
19 -28 -20 -52 -39 -26 -42 -35 -17 -54 14 -10 20 -10 35 3 16 15 19 14 45
-10 l28 -27 31 43 c29 40 30 44 16 70 -13 26 -13 30 9 51 13 13 33 28 45 35
40 21 115 8 99 -17 -4 -6 2 -8 14 -5 31 8 24 -16 -10 -35 -25 -15 -50 -53 -56
-87 -1 -5 -5 -18 -9 -27 -4 -11 -3 -18 5 -18 6 0 9 -4 6 -9 -10 -15 38 -40 57
-29 9 5 17 5 17 1 0 -5 9 -9 20 -9 11 0 20 4 20 8 0 4 7 8 15 8 25 0 5 30 -31
45 -42 17 -44 43 -4 57 19 6 36 22 45 42 l13 31 1 -38 c1 -29 9 -47 35 -74 39
-42 53 -37 62 18 l7 40 21 -21 c12 -11 27 -20 32 -20 17 0 66 44 90 83 37 57
49 49 49 -35 0 -153 22 -237 54 -205 8 8 11 7 13 -4 0 -7 4 9 7 36 l6 50 38
-3 c37 -4 38 -3 31 25 -11 46 -22 61 -70 93 -25 18 -43 37 -41 43 4 12 11 12
70 0 17 -3 27 -1 27 6 0 7 5 9 10 6 6 -3 10 -14 10 -24 0 -20 76 -131 90 -131
4 0 25 24 46 52 l37 53 11 -45 c11 -44 12 -45 55 -48 24 -2 48 1 52 5 12 12
14 51 5 91 -7 30 -6 32 18 32 14 0 46 -7 71 -16 36 -12 50 -13 60 -4 8 7 20
10 27 8 16 -6 38 15 38 36 0 8 -16 27 -35 42 -31 23 -42 26 -85 21 -56 -7
-150 24 -150 49 0 18 14 18 29 0 18 -21 63 -29 95 -16 16 6 54 11 86 12 50 1
60 5 65 22 6 20 7 19 19 -6 14 -33 44 -57 69 -58 21 0 23 37 3 85 -14 32 -13
35 2 35 9 0 62 -19 117 -42 75 -32 111 -54 144 -88 48 -48 41 -20 -8 34 l-26
30 30 -19 c17 -10 51 -36 78 -57 26 -22 47 -36 47 -32 0 4 5 3 12 -4 7 -7 22
-12 34 -12 32 0 40 -18 12 -29 -20 -9 -11 -16 14 -12 4 0 5 -5 2 -12 -3 -8 4
-18 14 -23 11 -5 35 -21 53 -36 50 -41 158 -115 204 -139 22 -12 43 -27 47
-33 4 -6 8 -7 8 -3 0 4 12 -4 28 -18 15 -14 51 -37 80 -51 28 -14 52 -29 52
-34 0 -12 38 -32 65 -35 11 -1 26 -3 32 -4 7 0 40 -28 72 -61 33 -33 66 -60
74 -60 9 0 17 -4 19 -8 2 -5 28 -26 58 -49 30 -22 61 -47 69 -56 7 -10 20 -17
27 -17 7 0 12 -6 10 -12 -1 -7 -1 -10 1 -5 9 15 26 6 79 -45 48 -46 58 -51 74
-40 27 16 28 16 35 -18 7 -31 19 -38 31 -19 4 8 9 7 15 -2 5 -8 9 52 9 144 l0
157 -55 27 c-39 19 -55 33 -56 48 -1 16 -2 17 -6 3 -3 -14 -9 -16 -22 -8 -10
5 -21 6 -25 3 -3 -3 -6 -1 -6 5 0 6 -6 9 -14 6 -8 -3 -22 3 -32 14 -9 11 -24
18 -33 15 -9 -2 -24 4 -34 14 -9 10 -35 36 -57 59 -22 22 -40 50 -40 61 0 12
-7 24 -16 27 -9 4 -14 13 -10 22 4 10 2 13 -6 8 -6 -4 -16 0 -23 9 -6 9 -30
17 -56 19 -36 2 -44 6 -44 23 0 13 -6 20 -17 19 -10 -1 -15 2 -12 7 7 12 41
11 49 -1 3 -5 11 -10 17 -10 6 0 3 8 -8 18 -20 19 -40 22 -64 7 -8 -4 -12 -5
-8 0 14 15 -96 86 -121 77 -10 -3 -12 0 -7 13 6 16 2 17 -33 11 -33 -5 -39 -3
-44 14 -5 20 -27 28 -27 10 0 -5 -5 -10 -11 -10 -6 0 -9 9 -6 19 7 30 -7 45
-31 32 -15 -8 -23 -7 -32 4 -7 8 -9 15 -4 15 4 0 -3 12 -17 26 -23 25 -23 26
-2 15 30 -15 37 -14 19 4 -8 8 -17 15 -21 15 -3 0 -23 11 -43 25 -20 14 -31
25 -25 25 7 0 15 -5 18 -10 4 -7 13 -6 27 1 11 6 28 9 38 6 18 -5 37 19 25 31
-3 3 -5 0 -5 -7 0 -8 -5 -9 -19 -1 -11 5 -27 10 -36 10 -9 0 -23 7 -31 15 -17
17 -39 21 -29 5 3 -5 2 -10 -4 -10 -6 0 -8 -7 -5 -15 5 -11 2 -13 -10 -9 -10
4 -15 13 -12 20 3 8 1 14 -4 14 -6 0 -10 -7 -10 -15 0 -9 -6 -12 -15 -9 -10 4
-13 13 -9 26 4 13 1 19 -8 17 -26 -3 -38 1 -35 14 1 6 -6 11 -16 11 -10 -1
-16 0 -14 3 3 2 -6 15 -19 28 -13 13 -21 30 -18 38 8 21 -14 31 -33 15 -15
-11 -16 -11 -10 5 4 11 2 17 -6 16 -33 -4 -45 2 -40 20 2 10 -3 25 -12 35 -29
28 -49 16 -23 -15 7 -7 4 -6 -6 3 -16 14 -17 19 -6 33 9 11 16 13 24 5 5 -5
14 -10 20 -10 5 0 -5 15 -23 34 -28 29 -30 34 -12 29 12 -3 21 -1 21 6 0 13
-44 25 -70 18 -11 -3 -20 -1 -20 4 0 5 -8 9 -18 9 -20 0 -45 24 -55 53 -4 9
-10 16 -14 15 -10 -4 -13 6 -12 30 0 14 2 14 9 -3 8 -18 9 -18 9 5 1 28 -8 44
-27 48 -9 2 -11 -4 -7 -18 10 -33 -3 -23 -21 17 -11 21 -20 31 -22 23 -3 -8 0
-16 7 -18 6 -2 11 -8 11 -14 0 -6 -6 -6 -15 2 -8 7 -15 18 -15 24 0 7 -11 23
-24 35 -13 13 -27 34 -30 47 -4 13 -11 24 -16 24 -6 0 -10 7 -10 15 0 15 -25
21 -33 8 -2 -5 -2 -2 0 6 2 8 -2 11 -11 8 -21 -8 -27 3 -14 27 10 19 10 20 -5
7 -15 -12 -17 -11 -17 2 0 9 -9 21 -20 27 -11 6 -20 17 -20 24 0 7 -18 26 -40
41 -21 15 -39 30 -38 34 3 23 -4 32 -20 27 -13 -4 -23 1 -32 19 -7 14 -17 25
-22 25 -4 0 -8 4 -8 9 0 5 -33 41 -72 80 l-73 72 23 18 c12 11 22 24 22 30 0
6 6 11 14 11 18 0 67 -40 61 -50 -6 -10 -55 -8 -72 3 -8 5 -13 4 -13 -3 0 -6
7 -13 16 -17 9 -3 28 -17 42 -30 22 -20 27 -22 34 -8 5 8 7 18 5 23 -3 4 6 15
19 25 19 14 22 15 18 2 -3 -8 3 -33 15 -55 21 -40 13 -53 -16 -25 -17 18 -34
16 -41 -5 -3 -7 0 -10 5 -7 5 3 31 -10 58 -28 28 -19 57 -34 66 -35 9 0 19 -6
22 -14 4 -9 14 -12 28 -9 19 5 20 7 6 18 -15 11 -15 14 -1 34 15 20 15 24 0
40 -21 23 -20 31 3 31 11 0 23 5 26 10 3 6 1 10 -6 10 -7 0 -9 8 -6 21 7 26
-8 68 -30 84 -16 12 -16 14 0 38 27 42 22 57 -18 57 l-36 0 16 31 c9 16 23 33
30 36 23 8 6 25 -17 17 -14 -4 -18 -3 -13 5 8 14 77 11 72 -3 -2 -6 6 -15 17
-21 15 -8 22 -23 26 -55 3 -25 13 -56 22 -69 11 -16 14 -29 8 -36 -5 -7 -4
-20 4 -35 10 -20 19 -24 46 -22 19 1 42 10 52 19 14 12 18 13 18 3 0 -8 10
-25 23 -38 l22 -24 -25 4 c-30 4 -60 -37 -59 -80 0 -15 3 -21 6 -14 8 21 23
13 23 -12 0 -13 -7 -29 -15 -36 -23 -19 -18 -33 10 -28 14 3 28 1 31 -4 3 -5
15 -1 25 8 11 10 29 18 39 19 23 2 33 -36 28 -100 -3 -39 -4 -40 -53 -48 -53
-9 -65 -19 -65 -55 0 -20 16 -59 30 -72 23 -20 49 -71 44 -84 -3 -9 -1 -16 5
-16 6 0 8 -8 4 -17 -3 -10 -3 -15 2 -11 4 4 30 -10 58 -32 27 -22 54 -40 59
-40 16 0 25 43 14 72 -11 30 -25 34 -57 17 -16 -8 -25 -7 -40 7 -23 21 -26 49
-4 40 8 -3 22 -9 30 -12 13 -5 13 -1 0 36 -22 62 -20 74 8 55 21 -13 25 -13
50 11 15 13 29 37 32 52 3 15 10 43 16 63 5 21 7 43 4 51 -6 16 29 58 49 58
20 0 46 -34 47 -61 0 -13 4 -32 7 -42 6 -15 10 -13 25 13 20 33 47 39 67 15
19 -23 49 -19 43 5 -4 13 4 28 27 46 22 19 28 30 21 37 -6 6 -11 22 -11 35 0
22 3 23 38 18 20 -3 60 -8 87 -12 59 -7 111 -30 119 -50 3 -9 1 -25 -6 -37
-17 -31 -17 -57 -1 -57 8 0 11 -5 7 -11 -3 -6 -15 -9 -25 -6 -11 3 -17 1 -13
-4 5 -9 -22 -14 -61 -11 -11 1 -34 10 -52 19 -24 13 -37 14 -55 6 -23 -10 -23
-11 12 -27 l35 -16 -50 4 c-27 2 -45 1 -38 -1 15 -6 5 -33 -12 -33 -7 0 -15 5
-17 12 -3 7 -13 5 -31 -7 -24 -15 -31 -16 -55 -5 -15 8 -33 12 -39 11 -7 -1
-13 4 -13 11 0 8 -5 6 -11 -5 -7 -13 -5 -25 7 -47 21 -34 15 -46 -14 -31 -32
17 -63 13 -83 -11 -21 -23 -26 -53 -7 -42 7 5 9 2 5 -9 -7 -17 53 -77 78 -77
7 0 16 -13 20 -29 3 -16 12 -32 20 -35 8 -3 11 -13 8 -25 -3 -12 -1 -21 4 -21
20 0 63 26 68 42 3 9 12 19 21 22 11 4 13 0 8 -19 -5 -19 0 -26 24 -39 16 -8
41 -17 55 -20 14 -2 34 -9 44 -14 12 -7 26 -6 45 4 15 8 34 11 42 8 9 -4 24 0
33 7 14 12 16 12 11 -1 -10 -27 78 -13 101 16 19 24 20 24 26 5 7 -24 30 -30
73 -18 19 5 36 7 38 5 2 -2 5 -20 6 -39 3 -32 1 -34 -27 -33 -26 1 -30 -2 -32
-28 -1 -17 -8 -37 -14 -44 -14 -17 -15 -15 31 -36 l34 -17 -26 -6 c-14 -4 -35
-2 -46 4 -37 20 -55 3 -48 -43 3 -24 2 -33 -3 -22 -5 14 -10 16 -15 8 -6 -9
-10 -9 -19 1 -22 24 -38 57 -27 57 6 0 15 10 20 23 8 20 9 20 9 3 1 -13 4 -17
11 -10 11 11 2 54 -11 54 -5 0 -9 5 -9 11 0 5 6 7 13 3 8 -5 8 -3 -2 9 -14 18
-31 14 -31 -6 0 -7 -7 -20 -15 -31 -13 -18 -15 -18 -41 3 -15 11 -22 21 -16
21 5 0 15 14 21 30 l10 31 -29 -21 c-17 -12 -28 -26 -24 -31 3 -5 2 -9 -3 -8
-18 3 -33 -2 -33 -11 0 -5 5 -10 11 -10 18 0 60 -50 53 -62 -4 -6 2 -6 15 1
21 12 31 -2 10 -15 -6 -3 -9 -17 -6 -30 2 -13 0 -24 -4 -24 -5 0 -9 -4 -9 -10
0 -5 9 -10 19 -10 12 0 26 -14 39 -40 10 -22 21 -37 24 -35 2 3 4 -26 4 -63
-1 -71 3 -79 47 -101 25 -13 31 -25 30 -57 0 -6 7 -9 17 -7 15 4 80 -48 80
-65 0 -9 117 -75 147 -84 12 -3 35 -15 50 -26 15 -10 46 -27 68 -37 22 -10 45
-21 50 -23 6 -3 7 -2 3 3 -4 4 0 14 10 21 15 12 13 13 -15 8 -29 -6 -33 -4
-33 16 0 16 4 20 15 16 21 -8 19 27 -2 46 -26 23 -62 31 -120 29 -29 -1 -53
-1 -53 1 0 2 11 25 24 53 25 52 21 75 -13 75 -37 1 -77 59 -51 75 6 3 10 13
10 22 0 14 -3 13 -21 -3 -20 -18 -21 -18 -58 3 l-38 22 -17 -30 c-10 -17 -15
-33 -12 -36 5 -5 -18 -33 -28 -33 -2 0 -4 19 -4 43 1 88 -1 94 -37 117 -19 12
-35 28 -35 35 0 32 99 55 121 29 15 -18 35 -18 42 1 4 8 38 30 77 50 63 32 71
34 76 18 14 -44 44 -88 63 -91 27 -4 34 -29 16 -55 -8 -12 -15 -26 -15 -32 0
-14 87 -18 95 -5 3 6 16 10 28 10 20 0 22 -4 19 -40 -4 -36 -1 -41 24 -50 34
-13 59 -9 60 10 1 8 2 20 3 27 0 6 10 15 21 18 27 9 25 20 -8 64 -16 20 -32
44 -35 54 -8 20 -37 23 -37 3 0 -11 -20 -26 -36 -26 -2 0 -7 15 -12 33 -8 28
-12 32 -38 29 l-28 -3 19 23 c78 92 134 115 126 50 -1 -8 4 -19 12 -25 8 -7
17 -31 21 -55 6 -43 20 -74 44 -100 6 -7 12 -10 12 -5 0 4 7 -1 15 -11 13 -17
15 83 15 822 l0 842 -1700 0 c-935 0 -1700 -2 -1700 -5 0 -11 62 -35 92 -36
33 0 33 0 11 -16 -30 -20 -29 -30 4 -60 19 -19 34 -24 60 -21 22 3 33 0 33 -9
0 -7 7 -10 15 -7 18 7 21 -36 4 -53 -8 -8 -6 -14 9 -22 11 -6 22 -22 24 -35 5
-23 1 -26 -36 -31 -40 -6 -137 11 -199 34 l-28 11 19 28 c14 18 18 37 15 56
-4 20 -8 24 -15 14 -5 -8 -6 -3 -2 15 5 24 3 27 -19 27 -14 0 -32 3 -41 6 -22
8 -32 -41 -15 -72 17 -33 -2 -55 -28 -32 -10 9 -29 16 -43 16 -26 0 -94 15
-120 26 -8 4 -25 22 -38 41 -12 19 -27 35 -32 35 -6 0 -10 9 -10 21 0 11 -5
17 -10 14 -6 -4 -8 -12 -4 -18 3 -7 -3 -2 -14 11 -28 31 -51 28 -64 -8 -8 -25
-13 -28 -24 -19 -8 6 -14 18 -14 25 0 8 -11 14 -26 14 -18 0 -25 -4 -21 -14 4
-10 0 -12 -14 -9 -15 4 -18 2 -13 -12 6 -15 4 -15 -14 -4 -23 15 -20 29 7 29
16 0 51 38 51 54 0 3 -162 5 -360 5 -355 0 -360 0 -350 -19 12 -22 18 -24 39
-11 9 6 19 5 26 -2 16 -15 9 -27 -15 -27 -18 0 -90 37 -90 47 0 2 5 1 12 -3 6
-4 8 -3 5 3 -8 13 -97 15 -97 2 0 -6 -7 -6 -19 1 -23 12 -34 13 -28 3 3 -5 0
-21 -7 -36 l-11 -29 -23 20 c-14 12 -19 23 -12 27 5 3 10 10 10 16 0 13 -27
11 -34 -3 -5 -10 -7 -10 -12 0 -4 9 -215 12 -1001 12 -948 0 -995 -1 -980 -17z
m2187 -18 c0 -8 8 -15 18 -16 9 0 -3 -6 -27 -14 -24 -7 -56 -13 -72 -13 -28 1
-29 2 -15 22 8 12 19 20 25 19 6 -2 11 1 11 5 0 4 14 9 30 10 21 2 30 -2 30
-13z m3185 -13 c-3 -3 -11 0 -18 7 -9 10 -8 11 6 5 10 -3 15 -9 12 -12z
m-5121 -27 c11 -8 16 -18 11 -22 -4 -5 -10 -3 -12 4 -2 7 -11 9 -20 6 -11 -4
-14 -2 -9 5 4 7 2 12 -3 12 -6 0 -11 -4 -11 -10 0 -5 -10 -10 -21 -10 -16 0
-19 3 -11 13 15 18 53 19 76 2z m5044 -54 c-24 -36 -40 -50 -57 -50 -20 -1
-22 3 -17 23 5 21 3 23 -16 18 -21 -5 -21 -5 1 17 16 16 31 21 47 18 15 -3 34
3 47 13 33 27 32 17 -5 -39z m-2578 29 c0 -5 -10 -10 -22 -10 -19 0 -20 2 -8
10 19 13 30 13 30 0z m18 -50 c-12 -11 -29 -17 -35 -15 -7 2 -12 0 -10 -6 1
-5 -17 -18 -41 -29 -23 -11 -40 -15 -37 -10 3 5 1 11 -5 15 -16 10 -12 28 5
21 8 -3 22 -9 32 -13 11 -4 14 -3 9 6 -5 8 0 18 13 27 12 9 19 19 16 24 -3 5
11 7 30 5 21 -2 35 1 36 8 0 8 2 8 6 -1 2 -7 -6 -21 -19 -32z m-2750 1 c-7
-12 -16 -21 -21 -21 -4 0 0 11 9 25 20 30 31 26 12 -4z m6370 -3 c-2 -6 -10
-14 -16 -16 -7 -2 -10 2 -6 12 7 18 28 22 22 4z m-1371 -24 c-3 -3 -12 -4 -19
-1 -8 3 -5 6 6 6 11 1 17 -2 13 -5z m246 -60 c-1 -4 -11 -11 -22 -16 -21 -7
-37 5 -26 22 7 12 51 7 48 -6z m-3403 -11 c0 -3 -7 -15 -16 -24 -9 -10 -25
-42 -35 -71 -13 -38 -18 -46 -18 -27 -1 14 -8 34 -16 45 -17 22 -20 54 -5 54
6 0 10 -4 10 -10 0 -19 29 -10 47 15 17 23 33 32 33 18z m3785 -23 c-3 -5 -10
-10 -16 -10 -5 0 -9 5 -9 10 0 6 7 10 16 10 8 0 12 -4 9 -10z m-1741 -44 c-7
-19 -26 -17 -32 5 -3 11 -2 11 7 -1 9 -12 11 -11 11 10 0 16 3 21 10 14 6 -6
8 -18 4 -28z m-3164 3 c0 -5 -4 -7 -10 -4 -5 3 -10 2 -10 -4 0 -6 -7 -8 -15
-5 -24 9 -17 24 10 24 14 0 25 -5 25 -11z m-627 -14 c-3 -9 -8 -14 -10 -11 -3
3 -2 9 2 15 9 16 15 13 8 -4z m5517 5 c0 -4 -9 -15 -20 -25 -17 -16 -20 -16
-20 -2 0 8 -6 18 -12 21 -7 3 -2 3 11 0 13 -4 21 -2 18 3 -4 5 0 10 8 10 8 0
15 -3 15 -7z m311 -32 c6 -12 2 -20 -16 -32 -32 -21 -32 -21 -27 18 4 36 26
43 43 14z m-4301 3 c0 -6 -4 -13 -10 -16 -5 -3 -10 1 -10 9 0 9 5 16 10 16 6
0 10 -4 10 -9z m3791 -11 c0 10 2 11 6 3 2 -7 10 -13 17 -13 7 0 28 -14 46
-31 32 -31 33 -31 61 -15 39 23 53 17 60 -29 8 -48 -6 -61 -41 -38 -14 9 -41
19 -60 23 -26 4 -36 11 -38 28 -2 13 -10 22 -20 22 -19 0 -52 33 -52 53 0 8 4
7 10 -3 9 -13 10 -13 11 0z m-356 -10 c-6 -10 -40 -8 -51 3 -4 4 7 7 25 7 19
0 30 -4 26 -10z m-4848 -37 c24 -3 43 -10 43 -15 0 -16 -91 1 -109 20 -15 15
-14 15 4 8 10 -4 38 -10 62 -13z m1090 -14 c-13 -20 -27 -25 -27 -9 0 6 5 10
11 10 6 0 9 7 6 14 -4 10 -1 13 8 10 11 -5 12 -10 2 -25z m-916 -21 c21 -17
37 -33 35 -36 -6 -5 -86 51 -86 61 0 13 10 8 51 -25z m1364 11 c11 -16 1 -19
-13 -3 -7 8 -8 14 -3 14 5 0 13 -5 16 -11z m2059 -4 c-8 -20 5 -19 28 2 16 14
21 15 46 2 15 -8 31 -20 35 -27 7 -10 12 -10 23 -1 12 9 13 9 9 -2 -6 -15 -50
-39 -73 -39 -7 0 -10 5 -7 10 3 6 1 10 -5 10 -6 0 -10 -6 -9 -12 4 -32 -1 -41
-15 -29 -11 9 -15 9 -18 0 -6 -17 -28 -2 -28 19 0 9 -11 26 -23 37 l-24 20 21
11 c30 17 46 16 40 -1z m1043 -11 c-3 -3 -12 -4 -19 -1 -8 3 -5 6 6 6 11 1 17
-2 13 -5z m-3653 -44 c-6 -5 -24 21 -24 34 0 6 6 1 14 -10 8 -10 12 -21 10
-24z m4596 25 c0 -8 -4 -15 -9 -15 -5 0 -11 7 -15 15 -3 9 0 15 9 15 8 0 15
-7 15 -15z m-5660 -5 c0 -5 -2 -10 -4 -10 -3 0 -8 5 -11 10 -3 6 -1 10 4 10 6
0 11 -4 11 -10z m3285 -30 c-3 -5 -10 -10 -16 -10 -5 0 -9 5 -9 10 0 6 7 10
16 10 8 0 12 -4 9 -10z m2556 -17 c-17 -20 -20 -34 -15 -62 4 -20 8 -37 9 -39
1 -2 19 7 39 19 20 12 39 20 41 18 2 -2 6 -21 10 -41 l7 -38 -53 0 c-73 0
-190 18 -205 31 -16 13 -7 39 15 39 9 0 45 23 81 50 73 55 104 66 71 23z
m-308 -6 c3 -8 -1 -14 -9 -14 -15 0 -18 9 -7 20 9 9 10 9 16 -6z m-2293 -37
c0 -5 -2 -10 -4 -10 -3 0 -8 5 -11 10 -3 6 -1 10 4 10 6 0 11 -4 11 -10z m393
-12 c-21 -11 -53 -34 -70 -51 -33 -30 -43 -24 -23 14 6 10 17 19 25 19 8 0 15
8 15 18 0 13 10 17 46 19 l46 2 -39 -21z m2417 14 c0 -4 -7 -18 -16 -30 -9
-13 -14 -34 -12 -47 10 -51 -63 -35 -82 18 -17 51 -14 58 30 55 22 -1 40 -6
40 -10 0 -4 5 -8 10 -8 6 0 10 7 10 15 0 8 5 15 10 15 6 0 10 -3 10 -8z
m-2989 -56 c-20 -24 13 -29 78 -10 20 6 23 4 18 -9 -3 -9 0 -18 9 -21 22 -9
18 -56 -5 -56 -11 0 -27 -7 -36 -16 -11 -12 -19 -14 -27 -6 -6 6 -16 8 -23 5
-18 -6 -57 16 -49 28 3 6 12 8 20 5 18 -7 18 9 -1 28 -18 18 -19 25 -2 59 7
15 16 22 21 17 6 -6 4 -15 -3 -24z m1532 17 c-7 -3 -13 -11 -13 -18 0 -14 -31
-25 -75 -25 l-30 0 25 20 c24 18 41 24 85 27 11 0 14 -1 8 -4z m-1318 -33 c3
-5 1 -10 -4 -10 -6 0 -11 5 -11 10 0 6 2 10 4 10 3 0 8 -4 11 -10z m253 -74
c2 28 19 40 64 47 29 4 36 3 31 -9 -3 -8 -9 -14 -14 -14 -6 0 -5 -8 0 -19 8
-14 7 -22 -4 -31 -8 -7 -15 -19 -15 -27 0 -8 -5 -11 -11 -8 -5 4 -18 -1 -27
-12 -10 -11 -33 -19 -57 -20 -22 -1 -55 -5 -72 -9 -37 -7 -39 -2 -18 49 8 19
11 37 8 40 -8 9 17 37 33 37 7 0 15 -10 17 -22 3 -17 5 -14 6 10 1 25 5 32 21
32 11 0 21 6 22 13 0 6 4 -8 8 -33 4 -25 8 -35 8 -24z m940 26 c3 -17 -2 -22
-17 -22 -22 0 -25 8 -15 35 9 22 28 14 32 -13z m491 17 c-18 -11 -59 -12 -59
-1 0 4 16 9 37 9 24 1 32 -2 22 -8z m571 -19 c0 -12 -5 -17 -14 -14 -8 3 -12
13 -9 25 6 23 23 15 23 -11z m-919 -53 c-6 -6 -11 -19 -11 -29 0 -10 -5 -18
-11 -18 -7 0 -9 -12 -5 -34 6 -29 3 -35 -14 -41 -11 -3 -20 -11 -20 -16 0 -5
-23 -9 -52 -9 -46 0 -50 -2 -33 -13 13 -10 15 -16 6 -21 -9 -6 -9 -12 1 -24 9
-12 6 -11 -10 2 -24 21 -38 16 -29 -9 4 -9 19 -15 37 -15 34 0 70 -30 70 -59
0 -30 -18 -35 -48 -14 -41 27 -54 31 -90 22 -32 -7 -33 -6 -27 20 4 20 0 32
-14 45 -19 18 -21 17 -56 -4 -45 -28 -86 -81 -94 -123 -7 -31 -8 -32 -54 -29
-57 4 -70 -5 -103 -70 -13 -26 -30 -48 -37 -48 -8 0 -7 -4 3 -10 17 -11 10
-13 -13 -4 -9 3 -13 13 -9 26 4 17 2 20 -12 15 -10 -4 -24 -7 -32 -7 -9 0 -12
-4 -9 -10 13 -20 -12 -9 -36 16 -33 36 -61 45 -75 25 -10 -13 -15 -13 -27 -2
-9 7 -20 10 -25 7 -5 -3 -8 5 -7 17 1 15 9 23 26 25 13 2 30 9 37 14 15 13 16
60 1 75 -9 9 -7 16 5 29 10 9 15 26 12 36 -4 18 -3 19 13 4 10 -9 22 -16 27
-16 6 0 20 -11 32 -25 23 -26 60 -32 92 -15 16 8 19 19 16 56 -3 41 -1 46 23
55 14 6 36 8 48 6 12 -2 20 0 17 5 -3 5 -8 24 -10 43 -4 32 -2 35 23 35 34 1
63 21 63 44 0 21 6 20 37 -4 44 -34 73 -22 73 30 0 18 19 30 46 30 18 0 18
-29 -1 -54 -20 -27 -10 -36 40 -36 24 0 56 -7 72 -16 27 -16 31 -16 66 1 40
19 46 38 20 67 -15 17 -15 18 5 18 23 0 51 34 54 65 0 11 3 5 5 -14 3 -18 0
-38 -6 -44z m1666 57 c2 -7 -8 -10 -24 -8 -39 3 -40 3 -23 14 18 12 42 9 47
-6z m-2107 -21 c0 -5 -12 -16 -25 -26 -19 -14 -29 -15 -45 -7 -31 16 -25 33
10 27 16 -4 32 -2 35 3 7 12 25 13 25 3z m1953 -42 l28 -6 -43 -33 c-43 -33
-43 -33 -47 -10 -1 13 -8 26 -15 31 -8 5 -7 10 4 17 16 11 30 11 73 1z m-2543
-51 c0 -5 -4 -10 -10 -10 -5 0 -10 5 -10 10 0 6 5 10 10 10 6 0 10 -4 10 -10z
m1210 -30 c0 -11 -6 -20 -14 -20 -9 0 -12 7 -9 20 3 11 9 20 14 20 5 0 9 -9 9
-20z m1360 0 c0 -5 -7 -10 -16 -10 -8 0 -12 5 -9 10 3 6 10 10 16 10 5 0 9 -4
9 -10z m-575 -20 c3 -5 1 -10 -4 -10 -6 0 -11 5 -11 10 0 6 2 10 4 10 3 0 8
-4 11 -10z m660 0 c-3 -5 -11 -10 -16 -10 -6 0 -7 5 -4 10 3 6 11 10 16 10 6
0 7 -4 4 -10z m-2935 -25 c0 -2 -9 -9 -20 -15 -16 -9 -18 -8 -14 5 5 13 34 22
34 10z m2780 -4 c0 -5 -7 -12 -16 -15 -9 -3 -14 -13 -11 -21 4 -9 1 -12 -9 -8
-18 7 -18 12 4 34 19 20 32 24 32 10z m-1108 -124 c7 -15 7 -22 -3 -28 -20
-12 -39 9 -39 43 0 26 2 29 16 18 8 -8 20 -22 26 -33z m1676 15 c2 -7 -2 -10
-12 -6 -9 3 -16 11 -16 16 0 13 23 5 28 -10z m-1524 -61 c-6 -6 -34 20 -34 32
0 6 8 2 19 -9 10 -10 17 -21 15 -23z m1566 13 c0 -8 -5 -12 -10 -9 -6 4 -8 11
-5 16 9 14 15 11 15 -7z m-1975 -4 c3 -5 1 -10 -4 -10 -6 0 -11 5 -11 10 0 6
2 10 4 10 3 0 8 -4 11 -10z m-1375 -45 c7 -9 8 -15 2 -15 -5 0 -12 7 -16 15
-3 8 -4 15 -2 15 2 0 9 -7 16 -15z m2320 -15 c0 -5 -2 -10 -4 -10 -3 0 -8 5
-11 10 -3 6 -1 10 4 10 6 0 11 -4 11 -10z m-1190 -36 c0 -19 4 -23 23 -20 12
3 25 5 30 5 4 1 7 8 7 16 0 8 4 15 8 15 5 0 7 -14 4 -31 -4 -24 0 -31 17 -36
11 -3 21 -9 21 -14 0 -19 28 -8 34 14 6 21 7 21 17 3 9 -14 8 -20 -2 -27 -11
-7 -10 -9 4 -9 9 0 17 5 17 10 0 6 9 10 19 10 11 0 23 9 26 20 7 21 35 28 35
8 0 -6 -8 -20 -17 -31 -17 -19 -17 -19 5 -13 16 6 22 3 22 -9 0 -10 -5 -14
-12 -9 -10 6 -10 4 0 -7 6 -7 12 -21 12 -30 0 -9 12 -21 28 -26 78 -28 97 -32
105 -24 9 9 50 1 85 -18 15 -8 23 -7 32 4 16 19 34 19 27 0 -3 -7 3 -24 13
-37 11 -13 19 -17 20 -10 0 7 13 12 29 12 16 0 31 -6 34 -12 4 -10 7 -10 18 0
11 10 11 16 1 32 -7 11 -8 20 -2 20 5 0 14 -9 20 -20 6 -11 14 -19 18 -16 4 2
13 -2 19 -9 10 -11 8 -18 -14 -34 -26 -22 -25 -23 16 -25 13 -1 26 -6 28 -13
3 -7 -3 -9 -16 -6 -33 9 -12 -46 24 -62 17 -7 23 -14 15 -15 -8 -1 -24 -4 -35
-7 -50 -13 -114 1 -137 31 -10 11 -18 15 -18 9 0 -7 -7 -13 -15 -13 -8 0 -14
3 -14 8 3 18 -2 26 -10 14 -6 -10 -10 -10 -21 3 -8 10 -9 15 -1 15 6 0 11 5
11 10 0 7 -6 8 -16 2 -13 -7 -28 -2 -58 18 -22 16 -44 26 -49 23 -5 -3 -11 4
-14 15 -7 29 -35 37 -50 16 -10 -14 -16 -15 -25 -6 -9 9 -9 12 1 12 7 0 9 5 6
10 -4 6 -10 8 -15 5 -13 -8 -61 25 -54 36 3 5 -1 6 -9 3 -8 -3 -21 3 -28 14
-11 14 -28 19 -69 20 -70 3 -110 11 -110 23 0 5 -11 14 -25 19 -14 5 -25 16
-25 24 0 9 -14 18 -37 22 -21 4 -32 9 -25 12 10 3 8 8 -5 18 -17 13 -17 13 0
14 24 0 22 21 -3 27 -47 12 -11 31 48 25 26 -3 32 -9 32 -28z m210 2 c0 -2 -7
-9 -15 -16 -12 -10 -15 -10 -15 4 0 9 7 16 15 16 8 0 15 -2 15 -4z m923 -3
c-7 -2 -19 -2 -25 0 -7 3 -2 5 12 5 14 0 19 -2 13 -5z m-1946 -15 c6 -7 13
-22 15 -33 3 -11 9 -27 12 -36 5 -11 1 -18 -14 -22 -16 -4 -24 3 -39 33 -23
49 -3 95 26 58z m1923 -8 c0 -5 -5 -10 -11 -10 -5 0 -7 5 -4 10 3 6 8 10 11
10 2 0 4 -4 4 -10z m-735 -52 c-4 -37 -4 -38 -20 -38 -9 0 -15 -9 -15 -21 0
-34 -44 -21 -48 14 -2 17 1 27 10 27 7 0 24 12 37 25 26 28 39 26 36 -7z m200
2 c-3 -5 -11 -10 -16 -10 -6 0 -7 5 -4 10 3 6 11 10 16 10 6 0 7 -4 4 -10z
m-1228 -61 c-20 -12 -136 -24 -126 -14 8 7 85 23 119 24 23 0 23 -1 7 -10z
m1027 -4 c3 -8 1 -15 -3 -15 -5 0 -11 7 -15 15 -3 8 -1 15 3 15 5 0 11 -7 15
-15z m-973 -66 c-11 -15 -21 -33 -21 -39 0 -5 -6 -10 -13 -10 -8 0 -13 9 -11
23 1 12 3 25 3 30 1 4 7 7 14 7 7 0 19 10 26 23 10 15 16 18 19 9 2 -8 -5 -27
-17 -43z m-31 32 c-8 -5 -32 -11 -53 -14 -33 -5 -37 -4 -27 8 7 9 30 15 54 15
27 -1 36 -3 26 -9z m208 -6 c25 -18 25 -62 -1 -57 -8 1 -18 -2 -22 -8 -3 -5
-13 -10 -21 -10 -12 0 -14 9 -10 43 3 23 5 43 5 45 2 7 30 0 49 -13z m-108
-35 c0 -5 -2 -10 -4 -10 -3 0 -8 5 -11 10 -3 6 -1 10 4 10 6 0 11 -4 11 -10z
m177 4 c-3 -3 -12 -4 -19 -1 -8 3 -5 6 6 6 11 1 17 -2 13 -5z m929 -21 c-10
-10 -19 5 -10 18 6 11 8 11 12 0 2 -7 1 -15 -2 -18z m-1071 7 c3 -5 -1 -10
-10 -10 -9 0 -13 5 -10 10 3 6 8 10 10 10 2 0 7 -4 10 -10z m465 0 c0 -5 -4
-10 -10 -10 -5 0 -10 5 -10 10 0 6 5 10 10 10 6 0 10 -4 10 -10z m-20 -40 c5
0 10 5 12 12 3 7 10 8 17 4 9 -6 7 -13 -9 -28 -18 -17 -24 -18 -31 -7 -7 12
-9 12 -9 0 0 -10 -6 -9 -26 4 -22 14 -28 15 -35 4 -30 -52 -34 -54 -80 -36
-33 13 -45 14 -51 5 -6 -10 -10 -10 -20 0 -6 6 -23 12 -37 12 -19 0 -22 3 -12
9 11 7 10 10 -3 18 -16 9 -16 11 -1 23 14 12 18 12 26 -1 6 -10 9 -10 9 -1 0
19 28 14 52 -10 20 -20 24 -20 72 -8 28 7 56 16 61 20 22 17 50 15 53 -2 2
-10 7 -18 12 -18z m810 10 c-8 -5 -17 -7 -19 -4 -3 3 1 9 9 14 8 5 17 7 19 4
3 -3 -1 -9 -9 -14z m-730 -2 c0 14 36 16 45 2 3 -5 -1 -10 -11 -10 -9 0 -25
-10 -35 -22 -25 -28 -24 -30 6 -16 14 6 25 15 25 20 0 13 17 9 34 -8 20 -20
21 -35 0 -27 -8 3 -26 0 -40 -7 -20 -11 -28 -11 -49 0 -30 16 -31 24 -7 55 11
15 19 19 24 11 6 -8 8 -8 8 2z m-899 -93 c4 -16 7 -24 8 -16 0 8 4 12 7 8 3
-3 1 -14 -5 -24 -6 -10 -11 -12 -11 -6 0 9 -13 11 -44 7 -54 -8 -67 8 -35 42
33 35 72 29 80 -11z m1649 11 c0 -2 -9 -6 -20 -9 -11 -3 -20 -1 -20 4 0 5 9 9
20 9 11 0 20 -2 20 -4z m-1840 -26 c0 -5 -4 -10 -10 -10 -5 0 -10 5 -10 10 0
6 5 10 10 10 6 0 10 -4 10 -10z m740 -10 c-9 -17 -8 -20 10 -20 14 0 20 7 21
23 1 18 2 19 6 3 3 -10 0 -23 -6 -29 -6 -6 -11 -19 -11 -29 0 -10 -7 -18 -17
-18 -26 0 -83 37 -83 53 0 8 15 19 33 25 52 16 59 15 47 -8z m670 5 c0 -2 -7
-5 -15 -9 -9 -3 -15 0 -15 9 0 9 6 12 15 9 8 -4 15 -7 15 -9z m440 11 c0 -3
-4 -8 -10 -11 -5 -3 -10 -1 -10 4 0 6 5 11 10 11 6 0 10 -2 10 -4z m-1617 -88
c15 2 27 -1 27 -7 0 -6 -9 -11 -19 -11 -11 0 -25 -2 -33 -5 -9 -4 -13 6 -15
32 -1 31 0 33 6 13 6 -20 12 -24 34 -22z m1127 20 c0 -7 -11 -18 -25 -25 -29
-13 -32 -7 -8 19 19 21 33 23 33 6z m-466 -74 c6 -24 2 -43 -8 -33 -11 10 -17
59 -8 59 5 0 13 -12 16 -26z m746 11 c0 -8 -4 -15 -10 -15 -5 0 -10 7 -10 15
0 8 5 15 10 15 6 0 10 -7 10 -15z m720 -5 c10 -19 10 -20 -9 -8 -22 13 -28 28
-11 28 5 0 14 -9 20 -20z m-1110 -57 c0 -9 -3 -13 -7 -10 -3 4 -12 -1 -19 -11
-7 -9 -15 -14 -19 -10 -3 3 4 15 16 27 27 25 29 26 29 4z m-604 -77 c18 -18
18 -32 0 -39 -17 -7 -45 23 -39 41 6 16 21 15 39 -2z m2164 7 c0 -5 -19 -21
-43 -37 l-42 -29 35 36 c34 35 50 45 50 30z m-1479 -45 c10 -18 8 -24 -7 -35
-17 -12 -19 -12 -23 4 -2 10 -7 23 -12 29 -5 6 -6 14 -2 17 13 13 33 7 44 -15z"/>
<path d="M7000 9535 c0 -14 4 -25 8 -25 4 0 9 11 10 25 1 14 -3 25 -8 25 -6 0
-10 -11 -10 -25z"/>
<path d="M7505 9140 c-3 -5 0 -10 7 -10 8 0 9 -3 3 -8 -5 -4 -16 -17 -23 -30
-10 -19 -10 -23 2 -28 8 -3 20 -3 26 1 16 10 41 64 35 75 -8 13 -42 13 -50 0z"/>
<path d="M8165 9010 c-3 -5 3 -10 14 -10 12 0 21 5 21 10 0 6 -6 10 -14 10 -8
0 -18 -4 -21 -10z"/>
<path d="M8210 8986 c0 -9 7 -16 16 -16 9 0 14 5 12 12 -6 18 -28 21 -28 4z"/>
<path d="M8048 8983 c6 -2 18 -2 25 0 6 3 1 5 -13 5 -14 0 -19 -2 -12 -5z"/>
<path d="M8270 8910 c0 -6 11 -10 25 -10 14 0 25 4 25 8 0 4 -11 9 -25 10 -14
1 -25 -3 -25 -8z"/>
<path d="M8595 8840 c3 -5 11 -10 16 -10 6 0 7 5 4 10 -3 6 -11 10 -16 10 -6
0 -7 -4 -4 -10z"/>
<path d="M8632 8789 c2 -6 8 -10 13 -10 5 0 11 4 13 10 2 6 -4 11 -13 11 -9 0
-15 -5 -13 -11z"/>
<path d="M7890 8860 c0 -5 5 -10 10 -10 6 0 10 5 10 10 0 6 -4 10 -10 10 -5 0
-10 -4 -10 -10z"/>
<path d="M5437 10233 c-10 -9 -9 -23 1 -23 5 0 9 7 9 15 0 17 -1 18 -10 8z"/>
<path d="M6355 10230 c3 -5 8 -10 11 -10 2 0 4 5 4 10 0 6 -5 10 -11 10 -5 0
-7 -4 -4 -10z"/>
<path d="M6529 10221 c-35 -28 -16 -37 25 -11 20 12 36 24 36 26 0 12 -41 2
-61 -15z"/>
<path d="M6663 10228 c4 -14 36 -12 52 3 5 5 -4 9 -24 9 -22 0 -31 -4 -28 -12z"/>
<path d="M5840 10140 c0 -5 5 -10 10 -10 6 0 10 5 10 10 0 6 -4 10 -10 10 -5
0 -10 -4 -10 -10z"/>
<path d="M5825 10050 c-3 -5 -1 -10 4 -10 6 0 11 5 11 10 0 6 -2 10 -4 10 -3
0 -8 -4 -11 -10z"/>
<path d="M6146 10035 c-20 -15 -21 -39 -1 -31 8 3 15 1 15 -5 0 -6 4 -8 8 -5
4 2 14 1 21 -4 11 -6 9 -15 -9 -41 -40 -59 -80 -89 -116 -89 -19 0 -34 -4 -34
-9 0 -5 -12 -13 -27 -19 -16 -6 -37 -14 -48 -18 -28 -10 -26 -10 -67 -18 -39
-8 -52 -25 -20 -27 10 0 12 -3 5 -6 -7 -2 -13 -16 -13 -29 0 -20 5 -24 31 -24
24 0 30 -4 25 -16 -3 -8 -2 -12 4 -9 9 6 15 -16 11 -39 -1 -5 1 -16 5 -25 5
-13 8 -11 14 9 7 23 8 21 15 -17 9 -51 23 -57 22 -10 0 17 2 37 3 42 6 16 -11
75 -20 75 -5 0 -8 14 -8 32 2 56 78 97 78 43 0 -18 -7 -28 -25 -35 -14 -5 -25
-17 -25 -26 0 -10 3 -14 7 -11 3 4 12 2 19 -3 9 -8 17 -4 30 13 26 32 71 60
84 52 5 -3 10 -14 11 -23 0 -14 2 -13 9 3 7 16 9 16 9 4 1 -9 8 -20 17 -23 22
-8 26 -8 19 4 -3 6 3 10 14 10 28 0 39 44 18 68 -9 9 -17 31 -19 47 -3 30 -3
30 50 31 28 0 55 4 59 7 3 4 -4 7 -16 7 -28 0 -51 22 -51 50 0 12 -9 25 -22
31 l-23 10 23 -5 c12 -2 22 -1 22 4 0 25 -78 44 -104 25z"/>
<path d="M6106 9985 c-3 -8 -1 -15 4 -15 6 0 10 7 10 15 0 8 -2 15 -4 15 -2 0
-6 -7 -10 -15z"/>
<path d="M2345 9976 c-64 -28 -116 -89 -139 -163 -9 -27 21 -36 47 -15 13 12
17 12 17 2 0 -38 79 77 81 117 0 11 7 5 17 -17 9 -19 37 -54 62 -78 l45 -42
19 22 c10 13 22 22 26 21 17 -5 16 24 -2 64 -14 33 -29 47 -63 63 -24 11 -49
20 -54 20 -6 0 -11 5 -11 10 0 13 -8 12 -45 -4z m174 -131 c0 -5 -4 -3 -9 5
-5 8 -9 22 -9 30 0 16 17 -16 18 -35z"/>
<path d="M4769 9768 c-7 -13 -18 -27 -25 -31 -18 -10 -18 -38 0 -31 7 3 21 -7
31 -22 15 -23 19 -25 32 -11 12 11 13 19 4 36 -13 24 -6 26 32 9 16 -8 25 -18
22 -27 -3 -8 3 -23 12 -34 18 -19 18 -19 24 9 9 48 -51 124 -96 124 -15 0 -29
-9 -36 -22z"/>
<path d="M6540 9740 c0 -11 5 -20 10 -20 6 0 10 9 10 20 0 11 -4 20 -10 20 -5
0 -10 -9 -10 -20z"/>
<path d="M3700 9708 c0 -2 -9 -27 -20 -56 -11 -30 -16 -51 -10 -47 5 3 10 13
10 21 0 8 4 14 8 14 12 0 11 -34 -2 -42 -14 -9 -2 -20 15 -13 18 7 24 62 9 80
-8 9 -8 15 0 20 13 8 13 25 0 25 -5 0 -10 -1 -10 -2z"/>
<path d="M6050 9696 c0 -2 9 -6 20 -9 11 -3 20 -1 20 4 0 5 -9 9 -20 9 -11 0
-20 -2 -20 -4z"/>
<path d="M6102 9673 c-2 -26 -2 -26 17 -7 12 13 15 21 7 26 -18 12 -22 9 -24
-19z"/>
<path d="M6061 9664 c0 -11 3 -14 6 -6 3 7 2 16 -1 19 -3 4 -6 -2 -5 -13z"/>
<path d="M4534 9625 c-10 -14 -23 -25 -29 -25 -10 0 -55 -60 -53 -70 1 -3 -4
-15 -11 -27 -21 -40 29 -24 84 27 17 15 51 35 77 45 57 21 77 40 60 57 -9 9
-12 9 -12 -1 0 -9 -4 -10 -12 -4 -7 6 -29 13 -49 17 -31 5 -39 3 -55 -19z"/>
<path d="M1913 9623 c9 -9 19 -14 23 -11 10 10 -6 28 -24 28 -15 0 -15 -1 1
-17z"/>
<path d="M2407 9497 c-11 -12 -22 -28 -26 -35 -4 -7 -25 -15 -46 -17 -46 -6
-60 -17 -51 -40 4 -11 13 -15 26 -12 11 3 20 1 20 -4 0 -5 9 -9 20 -9 11 0 20
-4 20 -8 0 -8 43 -32 55 -32 3 0 5 9 5 20 0 11 5 20 10 20 6 0 10 -7 10 -16 0
-24 22 -12 48 26 24 35 24 51 2 58 -7 3 -10 0 -6 -6 3 -6 2 -13 -3 -16 -14 -9
-21 20 -8 33 9 9 8 15 -5 22 -10 6 -18 17 -18 24 0 23 -33 18 -53 -8z m-37
-72 c-7 -9 -15 -13 -17 -11 -7 7 7 26 19 26 6 0 6 -6 -2 -15z m100 0 c0 -8 -4
-15 -10 -15 -5 0 -10 7 -10 15 0 8 5 15 10 15 6 0 10 -7 10 -15z m-60 -55 c0
-5 -2 -10 -4 -10 -3 0 -8 5 -11 10 -3 6 -1 10 4 10 6 0 11 -4 11 -10z"/>
<path d="M8556 9437 c3 -10 9 -15 12 -12 3 3 0 11 -7 18 -10 9 -11 8 -5 -6z"/>
<path d="M2626 9341 c-4 -7 -5 -15 -2 -18 9 -9 19 4 14 18 -4 11 -6 11 -12 0z"/>
<path d="M8606 9341 c-9 -14 16 -51 34 -51 9 0 21 -5 27 -11 8 -8 13 -8 18 1
4 6 -1 17 -11 25 -15 11 -16 15 -5 29 15 18 1 22 -17 4 -8 -8 -15 -8 -26 1 -9
8 -16 8 -20 2z"/>
<path d="M2551 9314 c0 -11 3 -14 6 -6 3 7 2 16 -1 19 -3 4 -6 -2 -5 -13z"/>
<path d="M8695 9170 c-3 -5 -1 -10 4 -10 6 0 11 5 11 10 0 6 -2 10 -4 10 -3 0
-8 -4 -11 -10z"/>
<path d="M6465 9140 c3 -5 8 -10 11 -10 2 0 4 5 4 10 0 6 -5 10 -11 10 -5 0
-7 -4 -4 -10z"/>
<path d="M5459 9061 c-20 -10 -53 -33 -73 -51 -34 -32 -37 -37 -31 -75 5 -29
3 -36 -4 -25 -9 13 -11 12 -10 -5 1 -23 16 -75 18 -60 2 15 55 38 59 25 7 -20
22 -10 19 13 -2 12 -2 16 0 10 6 -18 22 -16 29 2 5 12 15 14 41 9 29 -5 37 -3
51 17 25 35 40 79 41 122 l1 37 -52 0 c-30 -1 -69 -9 -89 -19z m41 -111 c0 -5
-9 -10 -20 -10 -11 0 -20 5 -20 10 0 6 9 10 20 10 11 0 20 -4 20 -10z"/>
<path d="M2670 8980 c8 -5 20 -10 25 -10 6 0 3 5 -5 10 -8 5 -19 10 -25 10 -5
0 -3 -5 5 -10z"/>
<path d="M2205 8970 c-3 -5 1 -10 10 -10 9 0 13 5 10 10 -3 6 -8 10 -10 10 -2
0 -7 -4 -10 -10z"/>
<path d="M1535 8960 c-3 -5 -1 -10 4 -10 6 0 11 5 11 10 0 6 -2 10 -4 10 -3 0
-8 -4 -11 -10z"/>
<path d="M9480 8954 c0 -8 5 -12 10 -9 6 4 8 11 5 16 -9 14 -15 11 -15 -7z"/>
<path d="M1572 8940 c-12 -12 -22 -28 -22 -37 0 -9 1 -14 3 -12 17 22 48 69
45 69 -3 0 -14 -9 -26 -20z"/>
<path d="M9066 8947 c-17 -12 -17 -14 -3 -20 11 -4 21 1 27 13 12 23 2 26 -24
7z"/>
<path d="M9031 8920 c0 -8 4 -22 9 -30 12 -18 12 -2 0 25 -6 13 -9 15 -9 5z"/>
<path d="M2046 8895 c-3 -8 -1 -15 4 -15 5 0 12 -9 15 -20 9 -29 28 -25 23 5
-6 28 16 36 26 9 3 -8 10 -13 16 -9 5 3 23 -1 40 -10 34 -18 58 -12 40 10 -8
10 -7 15 2 19 7 3 -1 4 -18 2 -17 -3 -36 0 -42 6 -18 18 -99 20 -106 3z"/>
<path d="M2245 8869 c-4 -6 -5 -12 -2 -15 2 -3 7 2 10 11 7 17 1 20 -8 4z"/>
<path d="M9337 8853 c-4 -3 -7 -16 -7 -27 1 -21 1 -21 15 -2 8 11 15 23 15 28
0 10 -14 11 -23 1z"/>
<path d="M396 8835 c-3 -8 -1 -15 4 -15 6 0 10 7 10 15 0 8 -2 15 -4 15 -2 0
-6 -7 -10 -15z"/>
<path d="M1980 8780 c0 -33 4 -60 9 -60 5 0 7 -9 4 -20 -3 -11 0 -20 6 -20 7
0 9 19 4 60 -4 39 -2 64 6 74 9 11 8 15 -5 20 -8 3 -18 6 -20 6 -2 0 -4 -27
-4 -60z"/>
<path d="M9005 8829 c-10 -15 3 -25 16 -12 7 7 7 13 1 17 -6 3 -14 1 -17 -5z"/>
<path d="M9628 8803 c7 -3 16 -2 19 1 4 3 -2 6 -13 5 -11 0 -14 -3 -6 -6z"/>
<path d="M595 8704 c-19 -11 -37 -24 -40 -27 -3 -4 -2 -5 1 -3 3 3 25 -6 49
-20 44 -24 73 -33 45 -13 -12 8 -9 9 12 5 22 -5 31 -1 44 18 15 23 14 26 -3
46 -24 25 -60 23 -108 -6z"/>
<path d="M6592 8706 c-9 -20 -7 -27 7 -40 10 -9 21 -13 24 -9 4 3 7 1 7 -6 0
-8 11 -11 28 -9 19 2 26 -1 24 -11 -3 -12 -1 -12 13 -1 12 10 15 24 11 49 -6
41 -19 51 -67 51 -28 0 -38 -5 -47 -24z"/>
<path d="M1010 8700 c0 -5 5 -10 10 -10 6 0 10 5 10 10 0 6 -4 10 -10 10 -5 0
-10 -4 -10 -10z"/>
<path d="M937 8676 c-9 -23 1 -39 19 -32 8 3 14 -1 14 -10 0 -20 16 -9 23 15
3 14 1 18 -9 14 -8 -3 -14 0 -14 7 0 6 -4 9 -9 6 -5 -4 -11 -1 -13 6 -3 7 -7
5 -11 -6z"/>
<path d="M9781 8655 c-31 -36 -39 -51 -21 -40 6 3 10 2 10 -3 0 -14 69 -32 76
-20 3 5 16 7 27 4 13 -3 25 1 33 12 15 20 18 46 5 37 -5 -3 -22 6 -37 20 -36
34 -56 32 -93 -10z"/>
<path d="M880 8630 c0 -23 4 -24 31 -9 23 12 16 29 -12 29 -12 0 -19 -7 -19
-20z"/>
<path d="M9408 8612 c-10 -2 -18 -10 -18 -19 0 -11 6 -14 26 -9 21 6 25 4 21
-8 -4 -9 -1 -18 5 -22 6 -4 8 -3 5 3 -7 11 13 23 36 23 7 0 6 -5 -3 -11 -12
-9 -12 -10 3 -5 10 3 23 6 28 6 5 0 9 5 9 11 0 6 -7 9 -15 6 -8 -4 -17 -2 -20
2 -7 13 -57 28 -77 23z"/>
<path d="M1 8548 c-1 -31 4 -60 9 -63 7 -4 8 -11 1 -18 -6 -8 -9 -314 -9 -812
0 -440 2 -792 5 -782 2 9 8 17 12 17 12 0 21 -64 22 -155 0 -63 2 -75 10 -55
6 13 17 32 26 42 17 18 24 98 12 138 -7 25 -7 25 -8 2 -1 -14 -6 -22 -13 -19
-10 3 -13 89 -13 384 0 210 3 379 8 376 4 -2 7 3 7 11 0 8 -5 18 -10 21 -7 4
-10 44 -9 100 1 51 -1 97 -5 103 -3 6 -2 12 3 14 7 2 6 20 0 48 -6 25 -13 144
-15 265 -5 286 -10 373 -22 410 -9 27 -10 25 -11 -27z"/>
<path d="M6855 8584 c-16 -12 -17 -15 -3 -10 9 3 19 0 22 -7 3 -9 5 -8 5 1 1
7 6 10 12 6 7 -4 10 -1 7 6 -7 21 -22 22 -43 4z"/>
<path d="M9362 8490 c0 -14 2 -19 5 -12 2 6 2 18 0 25 -3 6 -5 1 -5 -13z"/>
<path d="M7430 8459 c0 -5 5 -7 10 -4 6 3 10 8 10 11 0 2 -4 4 -10 4 -5 0 -10
-5 -10 -11z"/>
<path d="M8782 8374 l-23 -16 23 -20 c37 -32 108 -62 119 -51 19 19 5 57 -30
80 -40 27 -59 29 -89 7z"/>
<path d="M9620 8370 c0 -5 5 -10 10 -10 6 0 10 5 10 10 0 6 -4 10 -10 10 -5 0
-10 -4 -10 -10z"/>
<path d="M10212 8358 c-5 -7 -13 -23 -16 -35 -4 -13 -12 -23 -17 -23 -5 0 -9
-7 -9 -15 0 -8 -3 -15 -8 -15 -4 0 -18 -25 -31 -55 l-24 -55 -41 6 -41 6 30
-21 c17 -11 36 -21 43 -21 6 0 12 -4 12 -9 0 -5 9 -12 19 -16 11 -3 22 -14 25
-23 3 -9 14 -22 25 -29 17 -10 18 -9 13 9 -4 15 -2 19 7 14 29 -18 39 26 38
161 -1 73 -4 133 -8 133 -4 0 -11 -6 -17 -12z m-42 -223 c-7 -14 -17 -25 -22
-25 -15 0 -8 39 9 49 25 13 29 5 13 -24z m36 -42 c-10 -10 -19 5 -10 18 6 11
8 11 12 0 2 -7 1 -15 -2 -18z"/>
<path d="M9046 8321 c2 -36 3 -38 13 -22 8 12 12 13 25 1 9 -7 19 -11 22 -8 2
3 -10 17 -29 31 l-33 25 2 -27z"/>
<path d="M7795 8290 c3 -5 8 -10 11 -10 2 0 4 5 4 10 0 6 -5 10 -11 10 -5 0
-7 -4 -4 -10z"/>
<path d="M9156 8243 c19 -45 32 -60 59 -65 14 -2 20 2 19 15 -2 21 6 22 32 2
17 -13 17 -14 2 -15 -9 0 -20 -4 -23 -10 -4 -6 1 -7 11 -3 11 4 15 2 11 -4 -4
-6 0 -14 9 -17 12 -4 15 -2 10 9 -3 8 0 15 7 15 7 0 13 -12 14 -26 0 -14 7
-31 13 -38 10 -8 12 -6 7 12 -4 16 -1 22 11 22 19 0 -55 69 -74 70 -6 0 -17 7
-24 15 -7 9 -19 14 -27 11 -8 -3 -11 -2 -8 4 5 8 -43 40 -59 40 -3 0 2 -17 10
-37z"/>
<path d="M7780 8260 c0 -5 5 -10 11 -10 5 0 7 5 4 10 -3 6 -8 10 -11 10 -2 0
-4 -4 -4 -10z"/>
<path d="M8998 8263 c6 -2 18 -2 25 0 6 3 1 5 -13 5 -14 0 -19 -2 -12 -5z"/>
<path d="M7791 8220 c0 -15 -4 -30 -8 -36 -5 -5 -2 -4 5 2 8 6 12 22 9 35 -4
24 -4 24 -6 -1z"/>
<path d="M8159 8208 c-1 -12 -1 -29 0 -37 2 -7 -2 -10 -7 -7 -13 8 -25 -40
-16 -66 6 -19 7 -20 16 -4 5 9 13 14 18 11 13 -8 22 34 18 80 -3 42 -27 61
-29 23z"/>
<path d="M8222 8208 c24 -36 110 -118 124 -118 7 0 19 -2 26 -5 9 -4 19 4 26
20 10 21 9 31 -5 53 -23 35 -45 53 -60 47 -7 -2 -12 1 -10 8 1 8 -17 13 -57
15 l-59 3 15 -23z"/>
<path d="M7514 8192 c5 -15 2 -22 -15 -27 -14 -5 -25 -2 -30 6 -8 12 -11 11
-19 -1 -13 -20 -12 -36 2 -60 10 -16 9 -25 -5 -49 -22 -37 -21 -41 2 -41 11 0
22 -10 26 -22 3 -13 9 -18 11 -11 3 7 11 10 17 7 8 -3 19 13 27 38 15 42 40
63 40 34 0 -20 32 -37 50 -26 9 6 11 23 7 65 -5 52 -4 57 13 52 11 -3 21 1 24
9 4 10 -3 14 -22 14 -16 0 -33 5 -40 12 -8 8 -12 8 -12 1 0 -6 7 -14 16 -17
14 -6 13 -9 -7 -30 -13 -13 -32 -34 -41 -46 -17 -23 -18 -23 -38 -5 -38 34
-14 83 34 71 20 -5 23 -3 19 14 -3 11 -11 20 -18 20 -8 0 -21 3 -30 7 -14 5
-16 2 -11 -15z"/>
<path d="M8863 8194 c-52 -26 -48 -56 11 -82 38 -17 62 -8 75 28 5 17 16 30
23 30 9 0 8 4 -2 15 -24 23 -71 27 -107 9z"/>
<path d="M5040 8191 c0 -6 15 -12 33 -13 39 -1 47 -3 70 -13 16 -7 55 1 46 9
-2 2 -26 7 -54 10 -27 3 -60 8 -72 12 -14 4 -23 2 -23 -5z"/>
<path d="M4978 8173 c7 -3 16 -2 19 1 4 3 -2 6 -13 5 -11 0 -14 -3 -6 -6z"/>
<path d="M5025 8160 c19 -8 93 -14 84 -6 -2 2 -26 6 -54 9 -32 4 -43 3 -30 -3z"/>
<path d="M7845 8160 c3 -5 8 -10 11 -10 2 0 4 5 4 10 0 6 -5 10 -11 10 -5 0
-7 -4 -4 -10z"/>
<path d="M7869 8148 c-1 -13 -2 -34 -2 -48 -1 -14 2 -36 6 -49 5 -16 4 -27 -5
-33 -10 -5 -8 -8 5 -8 10 0 16 -4 13 -9 -10 -16 5 -40 21 -34 11 4 14 15 10
39 -7 41 2 43 28 8 10 -14 26 -29 35 -34 14 -8 17 -3 16 39 -1 50 -25 98 -54
108 -9 4 -19 9 -22 12 -3 3 -15 12 -27 19 -21 11 -23 10 -24 -10z"/>
<path d="M94 8135 c-3 -14 -4 -32 0 -40 3 -8 0 -26 -6 -40 -9 -19 -8 -34 2
-65 7 -22 18 -39 23 -37 12 4 19 77 7 77 -6 0 -7 27 -4 65 4 44 3 65 -5 65 -6
0 -13 -11 -17 -25z"/>
<path d="M8960 8145 c0 -8 2 -15 4 -15 2 0 6 7 10 15 3 8 1 15 -4 15 -6 0 -10
-7 -10 -15z"/>
<path d="M7670 8129 c0 -5 5 -7 10 -4 6 3 10 8 10 11 0 2 -4 4 -10 4 -5 0 -10
-5 -10 -11z"/>
<path d="M9950 8062 c0 -5 7 -13 16 -16 10 -4 14 -1 12 6 -5 15 -28 23 -28 10z"/>
<path d="M7407 7980 c-3 -11 -1 -20 4 -20 5 0 9 9 9 20 0 11 -2 20 -4 20 -2 0
-6 -9 -9 -20z"/>
<path d="M7850 7990 c0 -5 5 -10 10 -10 6 0 10 5 10 10 0 6 -4 10 -10 10 -5 0
-10 -4 -10 -10z"/>
<path d="M66 7843 c-6 -14 -5 -15 5 -6 7 7 10 15 7 18 -3 3 -9 -2 -12 -12z"/>
<path d="M8148 7749 c-22 -12 -23 -48 -4 -93 16 -37 53 -52 100 -40 51 12 29
97 -34 129 -34 17 -39 18 -62 4z"/>
<path d="M92 7010 c0 -14 2 -19 5 -12 2 6 2 18 0 25 -3 6 -5 1 -5 -13z"/>
<path d="M176 6931 c-4 -35 -12 -76 -16 -91 -4 -15 -4 -34 1 -41 5 -8 9 -9 9
-4 0 6 7 -1 14 -14 8 -14 11 -32 8 -40 -5 -13 -3 -14 9 -4 8 6 15 24 16 40 1
24 0 25 -7 8 -13 -32 -19 -1 -22 110 l-3 100 -9 -64z"/>
<path d="M147 6961 c-17 -18 -17 -19 3 -24 16 -4 20 0 20 19 0 28 0 28 -23 5z"/>
<path d="M8146 6917 c-18 -13 -18 -15 0 -53 24 -52 47 -71 106 -89 44 -13 54
-13 96 3 32 12 48 24 50 37 3 25 -51 83 -95 101 -41 18 -134 18 -157 1z"/>
<path d="M148 6897 c-3 -19 -2 -25 4 -19 6 6 8 18 6 28 -3 14 -5 12 -10 -9z"/>
<path d="M203 6875 c0 -22 2 -30 4 -17 2 12 2 30 0 40 -3 9 -5 -1 -4 -23z"/>
<path d="M10110 6791 c-8 -4 -60 -23 -115 -41 -55 -19 -116 -42 -135 -53 -19
-11 -57 -32 -85 -47 -85 -46 -196 -121 -202 -136 -3 -8 -10 -14 -15 -14 -18 0
-178 -163 -178 -181 0 -9 -9 -19 -20 -22 -13 -3 -18 -10 -14 -21 5 -12 2 -15
-10 -10 -16 6 -23 -10 -8 -19 4 -2 1 -2 -6 -1 -13 4 -89 -74 -85 -87 1 -4 -4
-13 -12 -19 -8 -7 -15 -19 -15 -26 0 -8 -5 -14 -11 -14 -7 0 -9 -10 -7 -25 3
-14 1 -25 -3 -25 -5 0 -9 -7 -9 -15 0 -9 -11 -20 -24 -24 -24 -10 -36 -36 -36
-83 0 -16 -4 -28 -10 -28 -5 0 -10 -8 -10 -18 0 -30 -41 -146 -56 -158 -17
-13 -18 -34 -3 -34 8 0 8 -4 2 -12 -10 -13 -18 -99 -30 -336 l-6 -124 -24 29
-24 28 6 -69 c3 -37 12 -96 20 -130 8 -33 14 -70 14 -81 1 -108 5 -152 22
-230 23 -108 23 -111 2 -94 -15 13 -16 11 -10 -23 6 -41 -2 -47 -27 -22 -9 8
-16 12 -16 7 0 -4 -7 1 -15 11 -8 11 -17 17 -21 14 -8 -8 19 -58 76 -143 52
-77 94 -155 87 -161 -2 -3 -24 21 -47 53 -24 31 -45 52 -47 46 -2 -6 23 -65
56 -130 72 -141 88 -188 44 -128 -82 111 -243 224 -404 285 -64 23 -93 45
-103 78 -4 12 -11 22 -16 22 -5 0 -11 14 -15 31 -12 54 -82 163 -150 231 -55
56 -65 72 -65 102 0 19 -4 38 -10 41 -16 10 -12 18 30 65 59 66 105 138 124
193 30 88 17 263 -33 430 -15 52 -17 67 -6 67 7 0 15 10 19 23 10 36 7 230 -5
313 -19 141 -85 333 -137 399 l-19 24 -34 -46 c-19 -25 -44 -59 -56 -77 -13
-17 -27 -36 -33 -43 -5 -7 -10 -16 -10 -21 0 -5 -9 -17 -20 -27 -11 -10 -19
-23 -17 -28 2 -6 -7 -20 -20 -33 -13 -13 -23 -32 -23 -44 0 -11 -4 -20 -9 -20
-19 0 -17 -36 3 -59 19 -22 19 -24 2 -17 -100 36 -292 57 -398 43 l-81 -10
-35 39 c-77 87 -191 200 -253 253 -88 74 -185 151 -192 151 -3 0 -13 -23 -23
-52 -15 -47 -15 -55 -1 -97 23 -68 27 -95 18 -110 -5 -7 -5 -26 -1 -41 4 -14
11 -57 15 -94 3 -37 8 -77 11 -89 3 -12 7 -44 11 -72 3 -27 11 -59 16 -70 6
-11 11 -29 11 -41 1 -11 6 -27 12 -35 6 -8 14 -33 17 -57 3 -24 13 -52 23 -63
15 -16 16 -22 5 -28 -9 -6 -10 -11 -2 -15 6 -4 15 -15 21 -26 8 -15 7 -17 -10
-13 -26 7 -25 -7 1 -41 29 -37 18 -32 -36 14 -64 56 -75 53 -76 -17 0 -32 -2
-69 -4 -83 -2 -14 -5 -51 -7 -82 -1 -32 -7 -58 -13 -58 -5 0 -3 -5 5 -10 8 -5
38 -10 65 -11 38 -2 42 -3 15 -6 -74 -7 -116 -23 -117 -45 -1 -12 -8 -25 -15
-29 -10 -7 -10 -9 2 -9 13 0 13 -1 0 -10 -13 -9 -13 -11 0 -20 10 -6 11 -10 3
-10 -7 0 -13 -3 -13 -8 0 -4 19 -6 42 -4 50 5 140 -13 188 -39 19 -10 31 -18
27 -19 -5 0 -16 4 -26 10 -32 16 -154 31 -204 25 l-49 -7 7 -37 c9 -50 57
-109 128 -156 33 -22 65 -42 71 -44 27 -10 96 -63 96 -75 0 -20 64 -76 87 -76
20 0 22 -4 18 -57 -8 -104 -13 -134 -27 -176 -46 -132 -50 -160 -49 -367 1
-245 37 -469 75 -462 12 2 16 -1 10 -9 -5 -9 -2 -10 9 -6 9 3 19 2 22 -3 4 -6
11 -10 16 -10 6 0 8 3 6 8 -3 4 24 7 59 6 l64 -1 24 76 c13 42 36 110 50 151
15 41 29 82 32 90 4 12 6 12 14 0 6 -10 9 -8 13 11 2 13 3 7 0 -14 -2 -24 2
-46 12 -60 8 -12 15 -16 15 -10 0 7 -4 15 -10 18 -5 3 -10 11 -10 16 0 6 7 3
16 -6 15 -15 15 -22 -6 -91 -12 -41 -19 -80 -17 -87 4 -7 6 -6 6 4 1 9 9 36
20 58 l18 42 7 -71 c6 -60 10 -70 22 -59 12 10 14 5 14 -32 1 -24 5 -64 11
-89 21 -99 22 -113 11 -106 -5 3 -12 1 -14 -6 -3 -8 -24 -11 -60 -9 -35 1 -75
-5 -111 -17 -58 -21 -137 -77 -137 -97 0 -7 -7 -18 -15 -25 -8 -7 -15 -19 -15
-26 0 -12 -62 -101 -79 -114 -19 -14 -62 -136 -76 -214 -26 -149 -17 -278 28
-416 19 -60 73 -157 104 -188 7 -8 10 -18 7 -24 -4 -6 -3 -8 3 -5 6 4 20 -14
33 -38 13 -25 31 -52 41 -61 11 -10 19 -22 19 -27 0 -6 -13 2 -30 18 -33 31
-48 29 -30 -5 19 -36 3 -34 -22 4 -17 24 -28 32 -37 26 -9 -5 -10 -13 -5 -21
15 -24 11 -69 -5 -69 -30 0 12 -26 89 -55 48 -19 86 -41 107 -63 18 -19 33
-38 33 -42 0 -3 18 -17 41 -29 23 -13 66 -48 97 -77 30 -30 59 -54 64 -54 5 0
6 -5 2 -12 -5 -7 0 -9 14 -6 14 4 19 2 15 -7 -2 -8 5 -18 16 -25 12 -6 21 -20
21 -30 0 -11 5 -20 10 -20 6 0 10 4 10 10 0 5 7 7 15 4 8 -4 12 -10 9 -15 -3
-5 0 -9 6 -9 6 0 9 -4 6 -9 -4 -5 3 -7 14 -4 23 6 24 4 10 -33 -9 -23 -8 -26
7 -22 16 4 18 -1 14 -39 -3 -38 -1 -43 18 -43 12 0 21 -2 21 -5 0 -15 -39 -43
-68 -50 -24 -5 -32 -11 -28 -21 4 -11 2 -13 -11 -6 -18 10 -70 -1 -87 -18 -5
-5 -15 -10 -20 -10 -6 0 -4 5 4 10 11 7 3 10 -28 10 -38 0 -43 2 -37 19 5 17
2 18 -41 10 -38 -7 -51 -6 -64 6 -16 14 -18 14 -23 0 -4 -8 -13 -15 -22 -15
-8 0 -15 -4 -15 -10 0 -5 -6 -10 -14 -10 -7 0 -19 -7 -26 -15 -7 -9 -20 -15
-29 -13 -9 1 -22 -1 -30 -6 -9 -6 -17 -3 -23 8 -11 20 -30 12 -21 -10 4 -12
-3 -14 -46 -10 -48 4 -51 3 -51 -19 0 -12 -7 -26 -16 -29 -25 -9 -64 -7 -64 4
0 6 -9 10 -21 10 -11 0 -17 -4 -14 -10 4 -6 -5 -10 -19 -10 -20 0 -26 -5 -26
-22 0 -17 -3 -19 -12 -10 -16 16 -28 15 -28 -2 0 -19 -48 -27 -65 -10 -11 11
-14 11 -19 -2 -4 -12 -10 -13 -26 -4 -13 7 -20 7 -20 0 0 -14 -93 -13 -108 2
-8 8 -15 8 -24 1 -14 -11 -90 -26 -148 -29 -19 -1 -47 -5 -62 -9 -15 -4 -38
-5 -51 -1 -19 4 -23 11 -20 30 4 18 0 26 -16 31 -11 3 -26 3 -33 -2 -23 -13
-40 -13 -29 1 6 7 8 16 5 19 -4 3 2 17 13 30 15 20 23 23 38 15 13 -8 20 -7
27 5 7 13 14 14 41 5 17 -6 37 -15 44 -20 8 -7 20 -2 35 14 18 19 35 25 77 26
30 1 62 8 70 16 9 8 30 18 46 22 34 8 119 89 110 104 -3 6 2 10 13 10 26 0 54
33 46 54 -4 10 1 23 15 35 29 25 27 31 -13 31 -28 0 -142 -42 -281 -105 -36
-16 -171 -70 -240 -97 -27 -10 -66 -21 -85 -24 -19 -3 -44 -9 -55 -14 -42 -18
-162 -59 -205 -70 -25 -6 -87 -25 -138 -41 -85 -27 -129 -35 -201 -38 l-24 -1
27 -25 c14 -13 26 -29 26 -34 0 -6 13 -8 32 -4 20 4 29 3 25 -4 -4 -6 6 -16
22 -23 35 -14 90 -5 108 19 12 15 14 15 27 -2 16 -21 73 -23 102 -3 22 16 64
11 64 -7 0 -5 -8 -16 -17 -23 -17 -13 -17 -13 0 -14 9 0 20 0 23 1 4 0 11 -5
15 -13 7 -10 9 -10 9 0 0 6 6 12 14 12 8 0 16 -6 19 -12 3 -9 12 -6 28 9 26
25 20 38 -23 48 -18 5 -28 3 -28 -4 0 -6 -7 -11 -16 -11 -9 0 -14 5 -12 11 2
6 8 10 13 10 6 0 17 6 25 14 8 7 25 16 37 19 12 4 25 16 28 27 7 20 25 27 25
8 0 -5 5 -7 10 -4 13 8 13 -1 -2 -24 -20 -32 -4 -49 49 -49 86 -1 93 -2 93
-15 0 -19 -34 -36 -118 -59 -72 -19 -95 -22 -147 -19 -48 3 -105 -12 -105 -26
0 -8 -6 -13 -12 -11 -7 3 -13 9 -13 15 0 30 -57 50 -74 26 -3 -5 -19 -9 -36
-10 -16 0 -73 -7 -125 -16 -52 -9 -147 -18 -211 -21 -114 -5 -201 -24 -243
-52 -11 -8 -52 -23 -90 -35 -39 -12 -74 -27 -78 -32 -10 -16 -208 11 -208 29
0 17 -16 18 -24 2 -4 -7 -3 3 0 22 3 19 6 43 6 53 -1 9 6 17 13 17 32 0 93 33
106 56 10 19 18 24 35 20 13 -4 26 -1 29 4 4 6 11 8 16 4 13 -7 59 34 59 53 0
7 -9 13 -21 13 -11 0 -18 -4 -15 -8 5 -9 -13 -11 -114 -13 -75 -1 -175 -22
-185 -40 -4 -5 -18 -8 -33 -8 -17 1 -21 3 -9 6 9 2 17 12 17 21 0 13 -2 14 -9
4 -4 -7 -25 -15 -45 -16 -29 -3 -34 -1 -25 10 6 8 15 11 20 8 5 -3 14 -2 21 2
19 12 -24 23 -45 12 -13 -7 -23 -5 -35 5 -9 9 -33 19 -52 24 -19 5 -36 16 -38
24 -1 8 16 44 38 81 32 54 40 76 40 116 0 60 -28 105 -53 84 -8 -7 -20 -27
-27 -45 -7 -18 -19 -46 -26 -64 -8 -17 -14 -38 -14 -47 0 -25 -23 -19 -82 19
-59 40 -147 70 -161 56 -5 -5 -3 -21 6 -37 8 -16 20 -47 27 -69 12 -37 45 -93
63 -106 4 -3 5 -13 1 -22 -3 -9 -1 -17 4 -17 6 0 12 7 14 15 2 12 8 10 29 -9
15 -13 39 -26 55 -29 16 -3 -2 -3 -40 -1 -38 2 -74 8 -80 13 -14 10 -252 9
-263 -2 -4 -5 -8 -16 -8 -25 0 -21 -157 -62 -163 -43 -3 9 -9 7 -23 -5 -11
-10 -19 -12 -19 -6 0 16 -27 15 -33 0 -4 -10 -8 -10 -16 1 -23 35 31 70 68 45
18 -13 22 -12 40 8 12 12 21 25 21 29 0 21 -119 27 -175 9 -22 -7 -65 -28 -96
-46 -31 -19 -64 -34 -73 -34 -9 0 -16 -4 -16 -10 0 -5 -5 -10 -11 -10 -6 0 -9
7 -6 14 4 10 1 13 -8 10 -18 -7 -65 35 -65 59 0 12 -6 17 -17 15 -9 -2 -27 7
-40 20 -18 18 -21 27 -13 48 6 14 14 23 19 20 5 -3 9 4 9 17 -1 12 3 44 7 71
l8 49 -63 -6 c-42 -5 -85 -18 -122 -37 -33 -17 -71 -31 -86 -30 -15 0 -40 1
-57 1 -16 0 -39 9 -50 19 -24 23 -105 26 -105 4 0 -8 -3 -14 -8 -14 -4 0 -13
-12 -19 -28 -7 -15 -31 -47 -53 -72 -22 -25 -40 -48 -40 -52 0 -15 -138 -113
-184 -131 -28 -10 -84 -21 -123 -24 l-73 -6 0 29 c0 34 30 124 42 124 4 0 8 9
8 21 0 47 101 159 182 200 54 28 88 38 162 49 48 7 65 6 87 -7 36 -21 59 -11
59 26 0 40 35 61 105 61 35 0 54 4 50 10 -3 5 0 7 8 4 20 -7 27 7 20 35 -4 17
-8 19 -14 10 -14 -23 -23 0 -10 25 8 13 11 30 8 38 -4 9 -6 7 -6 -5 -1 -15 -3
-16 -15 -5 -7 7 -11 19 -8 27 3 9 1 12 -6 7 -7 -4 -12 -22 -13 -39 0 -27 -2
-29 -9 -12 -7 19 -8 19 -15 2 -4 -10 -13 -16 -21 -13 -15 6 -37 -17 -27 -28
16 -16 -25 -24 -118 -25 -54 0 -101 4 -104 9 -7 11 45 39 63 33 6 -3 12 -1 12
4 0 5 14 24 31 42 16 18 27 36 24 39 -3 4 -9 1 -13 -5 -5 -8 -12 -9 -22 -2
-13 8 -12 11 3 23 18 14 17 15 -10 29 -15 8 -56 18 -90 22 -35 4 -63 10 -63
14 0 4 -91 6 -202 4 -137 -3 -211 0 -230 8 -15 6 -50 12 -78 12 -27 1 -50 6
-50 12 0 5 -4 4 -9 -3 -9 -15 -81 -7 -81 9 0 5 -8 9 -18 9 -10 0 -23 5 -29 11
-15 15 -83 21 -99 8 -10 -8 -14 -8 -14 0 0 6 -6 11 -14 11 -7 0 -27 7 -42 15
-16 8 -37 15 -46 15 -10 0 -18 4 -18 9 0 5 -9 7 -20 4 -14 -4 -20 0 -20 10 0
9 -18 23 -40 33 -41 18 -49 29 -27 37 6 3 2 6 -10 6 -18 1 -23 7 -23 29 0 16
8 34 20 42 15 11 17 17 7 29 -9 11 -9 13 0 8 7 -5 17 1 23 13 6 11 16 18 21
14 6 -3 13 3 16 14 3 13 11 18 19 15 8 -3 14 1 14 9 0 7 10 20 21 28 12 8 28
22 37 30 9 8 17 14 19 12 2 -1 24 9 51 23 26 15 38 23 27 20 -69 -22 -226 -54
-239 -49 -17 7 -21 20 -8 27 4 2 2 3 -3 2 -6 -2 -16 4 -23 11 -13 14 -11 16
18 18 8 1 14 7 13 12 -1 6 16 30 37 54 27 31 36 48 29 56 -6 8 2 28 27 65 58
86 110 201 124 274 22 119 -11 348 -66 452 -18 33 -22 48 -13 53 15 10 -17 53
-51 69 -14 6 -45 24 -70 40 -25 16 -53 30 -62 30 -10 1 -18 6 -18 12 0 6 -9 9
-19 6 -14 -3 -18 -1 -14 9 3 9 -2 14 -12 14 -14 0 -15 3 -5 15 6 8 9 19 5 25
-3 5 1 10 9 10 17 0 17 20 1 32 -5 4 8 5 30 2 l40 -5 -24 20 c-16 15 -19 21
-8 21 8 0 18 11 21 24 10 40 56 25 56 -18 0 -16 25 -62 58 -106 2 -3 18 -5 35
-5 27 0 32 -4 35 -27 2 -16 9 -28 18 -28 8 0 14 -4 14 -10 0 -5 6 -10 14 -10
14 0 28 -22 31 -52 2 -10 3 -22 4 -28 0 -5 8 -10 16 -10 11 0 15 12 15 46 0
27 4 43 10 39 6 -4 10 10 10 34 0 22 4 51 9 64 20 52 32 189 32 357 -1 195
-15 311 -44 353 -18 26 -18 29 -3 46 10 11 14 25 10 36 -6 14 -3 16 14 10 25
-7 24 -5 -20 95 -14 30 -28 63 -31 73 -4 9 -11 17 -16 17 -10 0 -5 34 12 68 9
18 8 25 -2 31 -9 6 -3 16 25 37 22 16 41 31 44 34 3 3 17 11 33 17 33 15 35
33 5 33 -20 1 -19 2 7 14 17 7 34 11 39 8 5 -3 6 0 2 6 -4 7 3 14 18 18 31 7
60 39 53 58 -4 9 2 16 15 19 13 4 19 11 15 20 -3 8 1 23 8 34 18 23 19 57 1
91 -7 15 -19 50 -26 78 -11 44 -11 57 4 102 18 55 36 61 36 13 0 -68 59 -175
115 -207 l30 -17 -34 32 c-40 40 -70 104 -78 170 -7 61 3 121 21 121 12 0 23
23 32 68 1 8 -3 11 -12 8 -11 -4 -14 -1 -9 13 3 11 0 25 -8 32 -8 8 -12 23
-10 34 4 18 3 19 -7 2 -6 -9 -15 -15 -21 -12 -5 4 -9 2 -9 -2 0 -5 -18 -30
-39 -55 l-39 -48 3 49 c2 49 2 49 -22 40 l-25 -9 23 37 c52 86 72 143 51 143
-4 0 -14 -6 -21 -12 -7 -7 -1 12 15 42 40 80 41 81 53 141 9 44 10 92 1 149 0
3 -5 -2 -10 -10 -7 -11 -10 -3 -11 30 -1 30 -3 36 -6 18 -4 -28 -26 -38 -38
-18 -4 6 -11 8 -16 4 -5 -3 -6 -10 -3 -16 4 -7 2 -8 -5 -4 -7 5 -33 -15 -67
-48 -30 -31 -59 -56 -65 -56 -25 0 -116 -111 -154 -186 -26 -54 -34 -35 -10
23 19 45 19 46 -4 33 -11 -5 -46 -10 -78 -10 -101 0 -266 -19 -330 -39 -57
-17 -62 -17 -54 -2 5 9 19 25 30 35 24 22 28 46 7 46 -8 0 -21 8 -28 18 -24
32 -96 81 -137 94 -23 7 -41 16 -41 20 0 5 -9 17 -21 29 -14 14 -18 26 -13 42
12 38 10 49 -14 58 -21 8 -25 4 -42 -35 -72 -162 -74 -413 -3 -549 l15 -29 24
23 24 23 -21 -60 c-28 -82 -49 -194 -49 -267 0 -54 18 -172 33 -217 2 -8 13
-41 23 -72 10 -31 22 -54 27 -51 6 3 7 1 3 -5 -10 -16 12 -54 26 -46 6 4 8 3
5 -3 -11 -17 45 -71 71 -67 12 2 22 1 22 -4 0 -9 -62 -97 -98 -136 -15 -18
-48 -56 -73 -86 -30 -36 -65 -64 -98 -79 -28 -14 -51 -28 -51 -33 0 -4 -6 -8
-14 -8 -7 0 -19 -7 -26 -15 -8 -9 -9 -15 -2 -15 6 0 14 4 17 10 3 5 11 10 16
10 11 0 -3 -30 -24 -52 -65 -67 -197 -243 -197 -263 0 -3 20 6 43 20 67 39 66
30 -7 -36 -42 -39 -82 -88 -107 -133 -22 -39 -38 -60 -35 -46 4 14 13 52 21
85 17 67 43 160 55 190 4 11 20 71 35 134 24 100 27 133 26 271 0 210 -22 313
-98 480 -34 75 -104 180 -120 180 -7 0 -13 8 -13 18 -1 20 -33 62 -49 62 -6 0
-11 5 -11 10 0 6 -7 10 -15 10 -8 0 -15 5 -15 10 0 6 -5 10 -10 10 -6 0 -22
12 -35 28 -15 17 -24 22 -25 13 0 -11 -4 -10 -13 4 -8 10 -19 15 -25 11 -8 -4
-10 -2 -6 8 4 10 -2 16 -17 18 -12 2 -24 9 -27 17 -3 8 0 11 7 7 6 -4 11 -2
11 4 0 8 -9 10 -25 6 -14 -4 -25 -2 -25 3 0 5 -26 17 -57 26 -32 9 -67 20 -78
25 -11 5 -64 16 -118 25 -55 10 -111 23 -125 31 -15 8 -45 14 -67 14 -37 1
-39 2 -21 15 23 18 14 20 -16 4 -24 -13 -103 13 -112 36 -3 10 -20 15 -46 15
l-40 0 0 -564 c0 -625 -6 -576 66 -576 34 0 104 -23 104 -35 0 -3 -18 -2 -40
1 -59 10 -91 -14 -83 -61 5 -31 3 -35 -15 -35 -11 0 -23 8 -25 18 -3 9 -5 3
-6 -15 0 -17 3 -34 8 -38 5 -3 13 -31 17 -62 5 -46 4 -57 -10 -65 -14 -8 -16
-58 -16 -529 l0 -520 59 -61 59 -61 -45 7 c-25 3 -52 11 -59 17 -11 9 -14 4
-14 -29 0 -37 6 -46 61 -99 33 -32 73 -66 87 -75 25 -17 26 -18 5 -18 -29 0
-57 -11 -46 -19 4 -3 22 -21 38 -40 28 -31 28 -33 8 -27 -13 4 -23 3 -23 -2 0
-8 -71 -7 -112 2 -17 4 -18 -40 -18 -818 l0 -822 55 -54 c30 -29 52 -57 49
-62 -3 -4 3 -8 13 -8 15 -1 15 -3 -4 -13 -21 -12 -21 -14 -8 -40 8 -15 14 -31
14 -34 -1 -18 23 -13 28 6 3 12 10 21 15 21 6 0 5 7 -2 15 -15 18 -8 18 43 4
23 -6 65 -34 103 -70 37 -32 69 -59 74 -59 4 0 6 -12 4 -27 -1 -16 -6 -53 -9
-84 -6 -49 -4 -59 13 -75 11 -11 23 -31 27 -47 10 -37 16 -39 58 -19 38 17 45
26 27 37 -18 11 -11 64 11 86 11 11 18 27 15 34 -8 21 22 26 58 11 38 -16 55
-36 31 -36 -9 0 -13 -4 -10 -10 9 -15 -14 -90 -31 -97 -7 -3 -14 -14 -14 -25
0 -16 3 -18 14 -9 10 9 15 8 20 -4 4 -10 -1 -15 -15 -15 -12 0 -19 -5 -17 -12
8 -23 49 -20 89 6 21 14 48 26 60 26 12 0 19 3 16 7 -4 3 1 11 12 17 10 6 30
19 44 30 25 17 30 17 72 3 25 -9 45 -14 45 -13 0 6 -115 83 -160 108 -25 13
-67 30 -93 38 -35 9 -45 16 -35 22 10 7 8 8 -4 4 -20 -6 -50 3 -44 13 2 3 -6
7 -19 7 -12 1 -37 8 -56 17 -19 8 -53 20 -76 26 -44 12 -131 77 -132 98 -2 26
21 23 52 -7 22 -21 38 -29 53 -26 11 3 29 -1 40 -9 10 -8 25 -15 33 -15 8 0
42 -13 75 -29 34 -16 104 -47 156 -70 135 -59 200 -93 194 -103 -3 -4 1 -5 9
-2 8 3 29 -7 46 -22 18 -14 35 -24 38 -20 4 3 1 6 -5 6 -7 0 -12 4 -12 9 0 18
38 -1 43 -21 5 -16 11 -19 32 -14 16 4 36 1 53 -8 44 -24 193 -68 238 -70 34
-1 44 -6 57 -28 11 -18 12 -30 5 -34 -11 -7 -125 25 -207 58 -25 10 -33 9 -49
-5 -26 -24 -42 -21 -93 13 -24 16 -48 30 -54 30 -5 0 16 -17 48 -39 55 -36 63
-39 179 -49 107 -10 126 -15 160 -39 87 -62 80 -60 72 -28 -6 26 -5 28 17 21
13 -4 62 -14 109 -22 125 -23 264 -61 268 -73 5 -14 32 -14 32 -1 0 16 17 12
93 -23 40 -19 99 -45 131 -58 33 -13 74 -39 91 -56 18 -18 34 -33 37 -33 3 0
27 -9 53 -21 33 -15 44 -24 36 -32 -7 -7 -14 -7 -23 0 -16 13 -239 95 -244 90
-2 -2 58 -30 133 -62 76 -31 149 -65 163 -75 35 -23 154 -60 193 -59 29 0 27
2 -18 15 -94 27 -155 48 -155 54 0 3 4 12 10 20 8 12 16 11 62 -9 29 -13 85
-36 123 -50 l70 -26 3355 0 3355 0 132 58 c73 32 174 70 225 86 51 15 120 40
154 54 33 14 107 35 165 46 57 12 132 28 167 37 l62 17 0 1013 c0 558 -3 1014
-7 1014 -5 0 -29 -11 -54 -24 -30 -15 -74 -26 -124 -30 -86 -8 -111 -17 -119
-43 -9 -29 -108 -64 -121 -44 -3 6 -17 8 -31 5 -15 -4 -24 -2 -24 6 0 6 9 14
19 17 11 3 24 18 30 34 5 16 9 29 8 30 -1 0 -10 2 -19 5 -10 2 -26 6 -35 8
-10 3 -25 5 -33 5 -13 1 -13 2 0 11 12 8 11 10 -7 10 -13 0 -23 5 -23 10 0 6
5 10 10 10 6 0 10 5 10 10 0 6 -17 10 -37 10 l-38 0 40 25 c25 15 33 24 23 25
-10 0 -18 -4 -18 -10 0 -5 -4 -10 -10 -10 -5 0 -7 7 -4 15 4 8 1 15 -6 15 -21
0 8 27 36 34 22 6 23 8 10 21 -8 8 -22 12 -30 9 -23 -9 -20 6 6 33 20 22 20
23 3 17 -17 -7 -16 -4 6 25 13 18 29 42 35 53 6 10 15 20 20 21 5 0 24 19 42
42 18 22 48 52 65 67 34 29 26 38 -11 13 -12 -9 -39 -23 -59 -31 -37 -14 -37
-14 22 41 33 31 59 60 58 65 -2 5 5 6 14 3 13 -5 15 -2 10 11 -5 14 -3 17 8
12 9 -3 15 0 15 8 0 8 6 16 13 19 10 4 10 7 0 18 -10 9 -13 10 -13 1 0 -7 -5
-12 -12 -12 -6 0 -20 -8 -31 -18 -19 -16 -19 -16 -8 3 12 20 31 50 62 96 51
76 132 215 143 247 6 20 17 36 24 35 6 -2 9 4 6 12 -4 8 -1 15 6 15 7 0 9 9 6
23 -3 12 -3 16 0 10 7 -17 24 -17 24 0 0 7 7 22 16 33 15 18 15 18 5 -3 -14
-27 -14 -33 -1 -33 6 0 10 7 10 15 0 8 4 15 8 15 16 0 62 108 62 145 l0 36
-39 -39 c-21 -21 -48 -57 -61 -81 -21 -42 -94 -121 -112 -121 -12 0 -10 13 5
35 7 11 35 76 61 145 26 69 51 133 56 142 18 32 50 132 50 153 0 18 -3 16 -25
-10 -14 -16 -47 -61 -75 -100 -33 -45 -50 -63 -50 -50 0 28 34 156 48 182 7
12 12 29 12 38 0 9 6 31 14 48 25 60 43 135 35 148 -5 9 -18 -9 -41 -56 -44
-92 -60 -96 -51 -13 4 35 8 97 8 138 0 65 -2 75 -19 78 -10 2 -23 -2 -28 -10
-7 -9 -8 -8 -4 7 2 11 8 40 11 64 4 24 14 59 21 77 8 18 14 44 13 56 0 14 -3
17 -6 8 -11 -33 -46 -106 -60 -125 -13 -18 -14 7 -11 213 3 213 -3 285 -17
197 -3 -19 -7 -51 -10 -70 -17 -104 -42 42 -32 184 3 47 15 127 26 176 29 126
25 156 -8 60 -41 -124 -53 -136 -46 -45 3 41 6 99 7 128 1 28 5 52 10 52 4 0
8 12 8 28 0 42 27 117 40 114 6 -1 10 1 7 5 -6 11 88 138 101 136 6 -1 15 11
21 27 l10 30 -44 -30 c-25 -17 -45 -28 -45 -24 0 15 75 104 92 110 10 3 18 10
18 15 0 5 7 9 15 9 8 0 19 9 25 20 6 11 20 20 31 20 11 0 17 5 14 10 -3 6 1
10 9 10 14 0 16 62 16 585 l0 585 -30 -5 c-19 -3 -39 0 -53 10 -24 17 -26 17
-47 6z m-680 -446 c-7 -9 -15 -13 -17 -11 -6 6 20 36 26 30 2 -2 -2 -10 -9
-19z m-6857 -339 c4 -10 1 -13 -8 -9 -8 3 -12 9 -9 14 7 12 11 11 17 -5z
m-2500 -393 c-7 -2 -19 -2 -25 0 -7 3 -2 5 12 5 14 0 19 -2 13 -5z m9906
-1208 c0 -16 -6 -52 -14 -80 l-15 -50 5 49 c3 27 5 72 6 100 0 38 3 46 9 31 5
-11 9 -33 9 -50z m-9869 -92 c-11 -17 -11 -16 -5 1 3 11 0 23 -7 27 -10 7 -10
11 0 21 6 6 13 21 14 33 1 11 3 1 5 -22 2 -24 -1 -51 -7 -60z m-45 -3 c10 -17
23 -110 15 -110 -10 0 -40 75 -40 100 0 21 15 27 25 10z m9104 -262 c11 -32
16 -58 11 -58 -5 0 -29 41 -53 91 l-45 91 34 -33 c20 -19 41 -55 53 -91z
m-8028 -166 c-6 -11 -17 -26 -23 -34 -7 -7 -26 -30 -42 -51 -40 -54 -44 -38
-6 25 41 67 103 120 71 60z m1014 -1322 c-3 -5 -12 -10 -18 -10 -7 0 -6 4 3
10 19 12 23 12 15 0z m-35 -20 c0 -12 -42 -51 -48 -45 -5 5 37 55 45 55 2 0 3
-4 3 -10z m-37 -150 c4 -4 -12 -7 -36 -6 -32 1 -40 4 -33 13 11 11 53 7 69 -7z
m317 -400 c0 -12 -24 -12 -60 0 -21 7 -19 8 18 9 23 1 42 -3 42 -9z m-422
-157 c9 -15 11 -15 25 -1 19 18 77 12 77 -8 0 -10 -13 -14 -40 -14 -29 0 -40
-4 -40 -15 0 -8 -4 -15 -10 -15 -5 0 -10 9 -10 20 0 26 -15 26 -33 -1 -12 -17
-19 -19 -35 -10 -11 6 -29 8 -39 5 -10 -3 -7 2 7 10 14 8 33 15 43 16 9 0 17
7 17 15 0 20 27 19 38 -2z m940 -10 c-5 -25 -25 -27 -38 -4 -10 19 -8 21 15
21 19 0 26 -5 23 -17z m-808 -42 c0 -10 -6 -21 -13 -24 -10 -4 -13 2 -9 19 5
28 22 32 22 5z m5638 -198 c-10 -2 -26 -2 -35 0 -10 3 -2 5 17 5 19 0 27 -2
18 -5z m-4343 -53 c3 -5 1 -10 -4 -10 -6 0 -11 5 -11 10 0 6 2 10 4 10 3 0 8
-4 11 -10z m3171 -102 c-9 -12 -16 -19 -16 -15 0 11 24 47 28 42 2 -2 -3 -14
-12 -27z m-2819 -74 c-3 -3 -12 -4 -19 -1 -8 3 -5 6 6 6 11 1 17 -2 13 -5z
m1219 -41 c-11 -11 -19 6 -11 24 8 17 8 17 12 0 3 -10 2 -21 -1 -24z m-1216 7
c0 -5 -4 -10 -10 -10 -5 0 -10 5 -10 10 0 6 5 10 10 10 6 0 10 -4 10 -10z
m1150 0 c0 -5 -8 -10 -17 -10 -15 0 -16 2 -3 10 19 12 20 12 20 0z m-1070 -15
c0 -8 -7 -15 -15 -15 -8 0 -15 7 -15 15 0 8 7 15 15 15 8 0 15 -7 15 -15z
m-3790 -195 c0 -5 -2 -10 -4 -10 -3 0 -8 5 -11 10 -3 6 -1 10 4 10 6 0 11 -4
11 -10z m55 -30 c-3 -5 4 -11 15 -15 11 -3 20 -10 20 -15 0 -12 -32 0 -42 14
-11 16 -10 38 2 31 6 -4 8 -10 5 -15z m103 -72 c20 -23 6 -23 -23 1 -19 14
-21 21 -12 30 9 9 13 9 16 -1 2 -7 10 -21 19 -30z m5595 -34 c-3 -7 -13 -16
-24 -19 -10 -4 -19 -13 -19 -22 0 -15 2 -15 18 0 11 11 22 13 32 7 12 -7 11
-10 -5 -16 -11 -4 -28 -16 -37 -27 -18 -20 -18 -19 -18 21 0 23 4 42 9 42 5 0
7 8 4 19 -4 15 0 18 20 14 16 -3 24 -10 20 -19z m37 -70 c0 -8 -5 -12 -10 -9
-6 4 -8 11 -5 16 9 14 15 11 15 -7z m-23 -20 c-3 -3 -12 -4 -19 -1 -8 3 -5 6
6 6 11 1 17 -2 13 -5z m-16 -84 c12 0 -1 -33 -19 -47 -25 -21 -90 -14 -121 13
-12 11 31 29 67 28 39 0 42 1 43 25 0 26 0 26 11 4 6 -13 15 -23 19 -23z m-59
-459 c-3 -40 -26 -87 -60 -124 -27 -29 -146 -71 -184 -65 -19 3 -17 7 18 58
21 30 49 64 62 75 43 35 146 95 157 92 5 -2 9 -19 7 -36z m-1572 -26 c10 -12
9 -16 -4 -21 -9 -3 -23 -3 -32 0 -13 5 -14 9 -4 21 16 19 24 19 40 0z"/>
<path d="M226 6733 c-6 -14 -5 -15 5 -6 7 7 10 15 7 18 -3 3 -9 -2 -12 -12z"/>
<path d="M205 6693 c5 -10 9 -33 10 -50 3 -56 12 -46 11 12 0 40 -4 55 -14 55
-10 0 -12 -6 -7 -17z"/>
<path d="M222 6560 c0 -19 2 -27 5 -17 2 9 2 25 0 35 -3 9 -5 1 -5 -18z"/>
<path d="M220 6479 c0 -24 5 -51 10 -59 6 -10 8 2 7 37 -3 64 -17 83 -17 22z"/>
<path d="M30 6465 c0 -8 2 -15 4 -15 2 0 6 7 10 15 3 8 1 15 -4 15 -6 0 -10
-7 -10 -15z"/>
<path d="M1 6064 c-2 -263 2 -309 23 -275 3 5 15 7 26 4 12 -3 20 0 20 6 0 7
3 10 8 7 10 -6 -3 159 -18 217 -10 37 -10 57 -1 87 18 61 17 141 -3 152 -13 7
-14 13 -6 29 8 14 8 24 0 37 -11 16 -11 16 -6 0 3 -10 1 -18 -4 -18 -6 0 -10
6 -10 14 0 8 -6 16 -14 19 -11 4 -14 -43 -15 -279z m26 119 c-2 -16 -4 -5 -4
22 0 28 2 40 4 28 2 -13 2 -35 0 -50z"/>
<path d="M2943 6254 c-29 -14 -31 -18 -20 -41 22 -50 116 -70 178 -38 24 13
28 19 20 34 -27 49 -122 74 -178 45z"/>
<path d="M171 6073 c0 -12 -7 -23 -13 -26 -7 -2 -11 -7 -8 -10 12 -13 31 12
27 34 -4 22 -4 22 -6 2z"/>
<path d="M9031 5764 c0 -11 3 -14 6 -6 3 7 2 16 -1 19 -3 4 -6 -2 -5 -13z"/>
<path d="M3849 5731 c7 -5 10 -14 7 -20 -4 -7 1 -11 13 -11 11 0 23 -4 26 -10
12 -20 24 -9 22 20 -2 28 -5 30 -42 30 -27 0 -35 -3 -26 -9z"/>
<path d="M7061 5720 c-15 -9 -12 -27 13 -100 9 -25 19 -63 22 -85 7 -40 7 -40
14 -10 8 38 6 66 -9 137 -13 62 -20 71 -40 58z"/>
<path d="M3756 5703 c-6 -14 -5 -15 5 -6 7 7 10 15 7 18 -3 3 -9 -2 -12 -12z"/>
<path d="M3807 5703 c-4 -3 -7 -11 -7 -17 0 -6 5 -5 12 2 6 6 9 14 7 17 -3 3
-9 2 -12 -2z"/>
<path d="M7030 5705 c-10 -53 -10 -60 1 -42 6 10 8 25 6 35 -3 9 -6 13 -7 7z"/>
<path d="M3520 5694 c0 -17 36 -32 63 -27 33 6 36 23 5 23 -13 0 -33 3 -45 6
-13 4 -23 2 -23 -2z"/>
<path d="M10130 5485 c-7 -9 -11 -18 -8 -20 3 -3 11 1 18 10 7 9 11 18 8 20
-3 3 -11 -1 -18 -10z"/>
<path d="M2690 5402 c-8 -10 -16 -28 -17 -40 -2 -19 -1 -21 11 -10 8 7 12 16
9 20 -2 4 3 5 11 2 8 -3 27 -40 43 -82 26 -73 28 -75 31 -41 4 47 -28 139 -53
155 -18 12 -23 11 -35 -4z"/>
<path d="M2746 4971 c-4 -5 3 -7 14 -4 23 6 26 13 6 13 -8 0 -17 -4 -20 -9z"/>
<path d="M3798 4893 c7 -3 16 -2 19 1 4 3 -2 6 -13 5 -11 0 -14 -3 -6 -6z"/>
<path d="M3807 4873 c-4 -3 -7 -20 -6 -37 l1 -31 8 35 c9 36 8 45 -3 33z"/>
<path d="M3798 4755 c-4 -27 -10 -75 -13 -106 -5 -42 -12 -63 -30 -79 -19 -18
-22 -26 -14 -37 9 -10 8 -13 -5 -13 -17 0 -22 -16 -7 -22 14 -4 15 -108 2
-140 -6 -16 -16 -40 -22 -55 -10 -26 -12 -27 -19 -8 -5 13 -2 24 9 33 14 11
13 12 -4 3 -39 -19 -106 -91 -101 -109 2 -9 12 -48 22 -86 l18 -69 -23 -19
c-22 -17 -23 -19 -7 -37 19 -21 14 -81 -8 -104 -15 -16 -14 -77 2 -77 21 0 13
-52 -19 -120 -40 -84 -55 -100 -96 -100 l-33 0 25 -40 c14 -22 25 -45 25 -51
0 -11 26 -40 35 -39 3 1 11 -1 18 -3 9 -4 9 -6 0 -6 -7 -1 -17 -11 -23 -23
-11 -22 -10 -22 4 -4 15 18 16 18 24 -5 5 -13 12 -44 15 -68 3 -31 12 -50 28
-63 13 -10 20 -18 14 -17 -5 1 -35 1 -65 0 -40 -1 -51 -4 -40 -11 8 -5 29 -10
46 -10 17 0 37 -7 44 -15 8 -9 21 -13 32 -9 32 10 208 13 214 3 9 -16 35 -10
32 8 -2 11 6 19 22 24 17 5 5 7 -38 8 -59 1 -62 2 -52 20 6 12 6 22 1 25 -5 3
-12 -5 -15 -19 -5 -19 -13 -25 -33 -25 l-26 0 26 20 c25 20 52 103 40 123 -5
9 25 47 38 47 4 0 10 -8 12 -17 3 -11 5 -6 6 11 1 23 4 26 15 17 16 -14 39
-131 30 -155 -5 -13 0 -16 22 -15 18 1 22 3 11 6 -16 4 -17 15 -14 93 4 85 -3
105 -25 75 -4 -6 -8 -2 -8 8 0 9 7 18 15 19 8 0 21 1 28 2 6 1 11 -7 9 -17 -2
-11 6 -21 23 -27 14 -5 25 -15 25 -21 0 -7 3 -10 6 -6 3 3 3 20 -1 37 -6 25
-9 29 -21 19 -11 -9 -14 -8 -14 5 0 11 9 16 33 16 22 0 44 10 67 29 37 31 36
32 -25 46 -30 7 -30 7 -7 16 l24 9 -21 33 c-50 77 -73 138 -68 177 5 36 3 39
-21 42 -55 6 -51 92 5 123 10 6 20 13 23 16 3 3 12 8 20 11 9 3 1 8 -19 13
-33 7 -33 7 -27 53 3 25 10 48 14 51 8 6 32 66 32 80 0 4 -17 8 -37 9 -40 3
-66 19 -57 34 4 6 -3 8 -17 4 -20 -6 -21 -5 -6 4 9 6 17 16 17 21 0 6 -4 8 -9
5 -18 -12 -35 153 -19 186 6 12 3 20 -8 26 -11 6 -15 16 -10 27 4 11 0 25 -10
36 -12 13 -18 47 -23 121 -6 93 -7 98 -13 53z m156 -571 c4 -9 2 -22 -3 -28
-5 -6 -15 -30 -22 -54 -8 -29 -15 -38 -20 -30 -9 13 -7 24 13 91 12 40 22 47
32 21z m-194 -719 c-7 -8 -17 -15 -23 -15 -6 0 -2 7 9 15 25 19 30 19 14 0z
m27 -17 c-3 -8 -6 -5 -6 6 -1 11 2 17 5 13 3 -3 4 -12 1 -19z m-147 -14 c0 -8
-19 -13 -24 -6 -3 5 1 9 9 9 8 0 15 -2 15 -3z m99 -24 c6 0 11 -14 11 -31 0
-16 -4 -28 -8 -25 -5 3 -15 -5 -22 -19 -13 -25 -46 -30 -55 -7 -3 9 0 10 12 4
11 -7 21 -6 30 3 15 16 17 45 3 45 -5 0 -9 -5 -7 -11 1 -6 -6 -13 -15 -14 -13
-2 -18 3 -17 18 0 12 3 16 6 10 9 -23 35 14 28 39 -6 21 -5 22 8 6 8 -10 19
-18 26 -18z m-146 -20 c3 -11 1 -18 -4 -14 -5 3 -9 12 -9 20 0 20 7 17 13 -6z
m64 -8 c0 -17 -6 -29 -14 -29 -7 0 -13 4 -13 9 0 5 -5 6 -12 2 -7 -5 -8 -2 -3
7 27 47 42 50 42 11z m-29 -50 c6 -18 -15 -14 -22 4 -4 10 -1 14 6 12 6 -2 14
-10 16 -16z m97 -42 c3 -5 -1 -10 -10 -10 -9 0 -13 5 -10 10 3 6 8 10 10 10 2
0 7 -4 10 -10z"/>
<path d="M10209 4399 c-11 -5 -15 -17 -12 -34 5 -24 25 -26 22 -2 -4 30 4 39
11 12 l8 -30 1 27 c1 31 -8 40 -30 27z"/>
<path d="M5893 4375 c-3 -9 -3 -37 0 -62 3 -26 -1 -67 -8 -92 -30 -106 -30
-101 17 -102 l43 -1 -37 -7 c-55 -11 -71 -28 -63 -69 4 -20 2 -39 -5 -47 -7
-8 -9 -19 -5 -26 4 -6 2 -15 -4 -19 -7 -4 -14 -16 -15 -26 -2 -10 -9 -18 -16
-16 -6 1 -9 -2 -6 -7 4 -5 -5 -21 -18 -34 -14 -14 -28 -38 -32 -54 -4 -15 -11
-30 -15 -33 -4 -3 -4 -25 2 -48 5 -24 7 -48 3 -53 -3 -5 -1 -16 5 -23 6 -7 12
-35 13 -62 3 -46 2 -49 -27 -55 -16 -4 -25 -7 -18 -8 6 0 21 -17 33 -36 18
-30 20 -40 11 -67 -6 -18 -24 -47 -40 -63 -38 -41 -52 -70 -44 -91 4 -11 3
-15 -4 -11 -6 4 -13 -2 -16 -13 -3 -11 -10 -20 -17 -20 -6 0 -8 5 -5 10 7 12
-5 13 -23 1 -11 -6 -10 -10 1 -19 38 -32 91 -41 289 -52 194 -10 207 -9 263
10 58 20 79 20 58 -1 -15 -15 -117 -38 -173 -40 -33 -1 -39 -3 -20 -8 14 -3
-19 -8 -75 -12 l-100 -5 103 -2 c78 -2 104 -5 108 -16 5 -12 9 -12 32 0 15 8
37 14 50 14 12 0 34 7 47 16 15 10 25 12 25 5 0 -6 4 -11 9 -11 5 0 9 18 9 41
1 22 8 52 17 65 17 26 15 27 -27 24 -41 -2 -70 10 -64 26 3 8 -3 19 -13 26
-30 18 -14 38 25 32 28 -4 33 -2 28 10 -3 9 -9 16 -13 16 -11 0 -48 72 -54
107 -4 20 -2 37 6 45 28 28 27 46 -4 53 -37 8 -38 35 -4 90 30 49 32 64 4 39
-18 -16 -17 -12 6 33 18 33 25 59 20 72 -9 30 -55 82 -66 75 -14 -8 -11 -26 4
-18 6 4 3 -2 -7 -14 -26 -30 -64 -29 -68 0 -2 13 -15 28 -29 35 -39 19 -52 39
-45 68 7 29 36 33 60 10 8 -8 16 -15 18 -15 2 0 3 37 3 83 l-1 82 -39 6 c-22
3 -32 7 -23 8 9 0 19 9 21 19 4 16 5 16 6 0 1 -12 9 -18 24 -17 21 0 21 1 2 9
-14 6 -15 9 -5 10 12 0 11 3 -2 11 -10 5 -18 20 -18 32 0 16 -3 18 -9 9 -6
-10 -10 -4 -15 20 -5 23 -9 29 -15 20 -6 -10 -10 -4 -15 18 -9 48 -8 98 3 82
6 -10 10 -6 14 15 3 15 3 31 0 35 -8 14 -54 8 -60 -7z m52 -15 c-3 -5 -10 -10
-16 -10 -5 0 -9 5 -9 10 0 6 7 10 16 10 8 0 12 -4 9 -10z m172 -932 c13 -12
23 -27 23 -34 0 -18 -43 -13 -63 8 -21 21 -22 42 -1 34 8 -3 12 -2 9 4 -11 18
8 11 32 -12z m3 -83 c0 -8 -4 -15 -10 -15 -5 0 -10 7 -10 15 0 8 5 15 10 15 6
0 10 -7 10 -15z"/>
<path d="M3189 4274 c-1 -43 -1 -83 1 -89 1 -5 -6 -15 -15 -21 -13 -10 -14
-17 -6 -33 18 -33 -9 -126 -56 -199 -26 -39 -43 -58 -47 -50 -3 7 -4 -9 -1
-36 3 -27 10 -54 15 -61 11 -13 -6 -75 -20 -75 -5 0 -11 -9 -15 -19 -4 -12
-12 -17 -24 -14 -15 4 -20 -3 -25 -31 -5 -27 -1 -46 19 -83 14 -26 25 -56 25
-65 0 -16 2 -16 21 3 18 18 31 20 117 18 53 -1 103 -7 111 -13 11 -8 13 -8 7
2 -4 7 -2 12 6 12 7 0 20 5 28 10 13 8 13 11 1 19 -11 7 -11 13 3 32 25 36 19
53 -26 79 -73 41 -76 47 -40 81 18 17 35 41 38 55 8 30 -19 94 -38 94 -7 0
-20 5 -28 10 -13 8 -12 11 4 23 19 14 19 16 2 57 -27 68 -38 140 -24 157 10
12 9 17 -4 24 -12 7 -16 28 -17 96 -2 110 -11 122 -12 17z"/>
<path d="M5732 3850 c-18 -29 -15 -38 4 -12 9 13 14 25 12 27 -2 2 -9 -5 -16
-15z"/>
<path d="M10231 3614 c0 -11 3 -14 6 -6 3 7 2 16 -1 19 -3 4 -6 -2 -5 -13z"/>
<path d="M3080 3489 c0 -5 5 -7 10 -4 6 3 10 8 10 11 0 2 -4 4 -10 4 -5 0 -10
-5 -10 -11z"/>
<path d="M3140 3460 c0 -5 5 -10 10 -10 6 0 10 5 10 10 0 6 -4 10 -10 10 -5 0
-10 -4 -10 -10z"/>
<path d="M3931 3433 c0 -10 3 -13 6 -5 6 15 29 16 36 2 3 -6 4 -5 3 2 -1 7
-12 14 -24 16 -16 3 -22 -2 -21 -15z"/>
<path d="M4220 3419 c0 -16 4 -28 9 -25 8 5 3 56 -5 56 -2 0 -4 -14 -4 -31z"/>
<path d="M2335 3429 c-6 -8 -4 -10 5 -4 10 6 12 4 6 -11 -6 -15 -5 -17 5 -6 9
9 10 15 2 23 -8 8 -13 7 -18 -2z"/>
<path d="M3852 3420 c0 -14 2 -19 5 -12 2 6 2 18 0 25 -3 6 -5 1 -5 -13z"/>
<path d="M3881 3404 c0 -11 3 -14 6 -6 3 7 2 16 -1 19 -3 4 -6 -2 -5 -13z"/>
<path d="M4165 3356 c-54 -12 -51 -7 -46 -87 1 -9 11 -24 24 -32 23 -15 23
-14 21 17 -2 17 -1 23 2 13 5 -16 8 -15 30 8 l25 27 19 -25 c11 -14 20 -31 20
-38 0 -6 12 -27 26 -46 14 -19 30 -46 34 -61 6 -18 9 -21 9 -9 1 20 -28 88
-40 97 -14 10 -29 60 -19 60 9 0 -7 38 -21 50 -3 3 -8 13 -12 23 -7 19 -5 19
-72 3z m95 -66 c0 -5 -5 -10 -11 -10 -5 0 -7 5 -4 10 3 6 8 10 11 10 2 0 4 -4
4 -10z"/>
<path d="M6535 3310 c4 -6 11 -8 16 -5 14 9 11 15 -7 15 -8 0 -12 -5 -9 -10z"/>
<path d="M3274 3244 c-20 -19 -24 -31 -20 -50 5 -17 3 -23 -3 -19 -6 3 -9 0
-6 -7 6 -15 45 -20 91 -13 30 5 31 7 28 48 -5 67 -46 86 -90 41z"/>
<path d="M3042 3248 c-15 -15 -16 -38 -1 -38 6 0 9 -9 6 -20 -3 -11 -1 -20 4
-20 5 0 9 9 9 21 0 11 5 17 10 14 11 -7 12 0 4 33 -7 25 -15 27 -32 10z"/>
<path d="M6543 3231 c-3 -11 -9 -19 -13 -16 -4 2 -7 -22 -6 -53 1 -48 -4 -66
-26 -100 -15 -22 -25 -48 -22 -56 3 -8 2 -21 -2 -28 -9 -14 -8 -107 1 -116 3
-3 -2 -16 -10 -28 -17 -26 -11 -32 34 -36 25 -2 31 -7 31 -26 0 -13 4 -20 10
-17 6 4 8 11 5 16 -4 5 -1 9 4 9 6 0 11 -6 11 -14 0 -8 3 -21 6 -30 4 -11 1
-16 -10 -16 -9 0 -16 5 -16 10 0 15 -27 12 -33 -4 -3 -9 -14 -12 -25 -9 -12 3
-22 -2 -26 -12 -3 -9 -10 -14 -14 -11 -5 3 -15 -6 -22 -19 -11 -20 -10 -28 3
-48 18 -28 13 -37 -19 -37 -36 0 -18 -35 35 -70 26 -16 52 -30 57 -30 5 0 2 5
-6 10 -12 8 -11 10 6 10 55 0 83 -12 95 -44 7 -17 24 -44 38 -59 l26 -28 -35
14 c-19 8 -40 12 -47 10 -6 -2 -14 1 -18 7 -4 7 -11 5 -21 -5 -9 -8 -23 -15
-32 -14 -12 0 -11 3 6 9 12 5 22 12 22 15 0 10 -44 -6 -52 -19 -5 -8 -8 -8 -8
0 0 6 -7 11 -17 11 -13 0 -11 -4 7 -19 27 -22 21 -34 -9 -18 -14 7 -21 7 -21
0 0 -5 5 -10 12 -10 6 0 3 -7 -8 -15 -29 -22 -13 -18 42 10 27 14 55 25 62 25
6 0 12 4 12 9 0 5 12 6 28 2 33 -8 156 -71 150 -77 -3 -2 -32 7 -66 21 -79 32
-98 32 -178 -6 -36 -17 -69 -28 -73 -23 -7 11 -91 14 -88 3 1 -4 -2 -7 -8 -7
-5 -1 -9 6 -7 14 2 8 -3 17 -10 19 -15 6 -18 48 -5 61 4 5 5 0 1 -11 -5 -15
-4 -17 5 -9 6 6 14 23 17 39 4 22 2 26 -10 22 -21 -8 -29 9 -16 33 9 17 14 19
26 9 11 -9 14 -8 14 4 0 9 -5 19 -11 23 -18 11 -47 -28 -53 -71 -3 -22 -3 -32
0 -22 3 9 10 15 15 11 6 -4 6 -11 -2 -20 -6 -7 -15 -11 -20 -8 -13 7 -11 124
1 124 6 0 5 8 -2 20 -14 22 -6 36 14 24 14 -9 19 -11 44 -13 11 -1 13 -7 9
-21 -3 -11 -2 -20 4 -20 5 0 11 -6 14 -12 2 -7 2 0 0 15 -3 18 2 35 13 48 15
16 16 22 5 28 -8 5 -10 14 -7 20 4 6 -1 19 -10 29 -16 15 -17 15 -12 0 4 -9 1
-21 -5 -26 -15 -13 -66 -20 -67 -9 -2 41 1 46 32 49 23 2 34 9 36 22 3 12 0
16 -8 11 -9 -5 -10 -1 -5 16 12 40 11 42 -25 50 -43 9 -50 5 -50 -31 0 -22 -6
-31 -32 -41 l-33 -13 30 -3 30 -4 -1 -87 c0 -48 -2 -133 -2 -189 l-2 -102 -30
-16 c-16 -8 -33 -15 -38 -15 -5 0 -8 38 -6 85 2 46 -1 87 -6 90 -15 9 -12 55
3 53 7 -2 13 9 15 26 l4 28 -44 -24 c-28 -16 -42 -30 -40 -41 2 -9 -2 -25 -7
-35 -10 -16 -10 -15 -11 3 0 17 -2 17 -10 5 -15 -23 -12 -30 10 -30 18 0 20
-7 20 -88 l0 -89 -40 -13 c-42 -14 -56 -31 -17 -23 49 10 -41 -26 -128 -52
-49 -15 -95 -31 -101 -36 -6 -5 -23 -10 -38 -11 -28 -3 -30 -6 -17 -26 7 -11
9 -11 14 2 5 11 19 16 49 15 38 -1 40 -2 18 -10 -23 -8 -23 -8 5 -5 81 11 165
30 165 38 0 5 7 5 16 0 10 -6 31 -4 56 5 31 10 43 11 54 2 9 -7 14 -8 14 -1 0
6 8 13 18 16 9 3 -14 4 -53 2 -65 -4 -67 -3 -25 6 25 5 52 13 61 18 9 4 22 4
30 -1 27 -16 102 17 96 43 -1 6 4 13 11 15 7 3 11 0 10 -5 -2 -6 2 -9 7 -9 6
1 10 7 11 12 1 15 16 65 19 65 1 0 30 -9 64 -20 l61 -19 36 24 c19 13 45 27
56 30 18 6 129 -27 154 -47 8 -5 26 -1 48 12 43 24 57 25 50 5 -4 -8 -2 -15 2
-15 17 0 31 15 38 38 6 18 12 21 29 16 39 -12 42 -10 48 36 5 45 5 45 10 10 5
-47 23 -40 27 10 3 37 5 40 33 40 28 0 29 2 29 43 0 24 -3 46 -6 49 -10 11
-44 -4 -45 -21 -1 -9 -5 4 -10 28 -5 24 -6 47 -4 51 3 5 -1 10 -9 13 -10 4
-12 0 -9 -14 7 -24 -23 -37 -48 -21 -10 7 -26 9 -35 5 -12 -4 -15 -2 -12 8 3
9 17 13 36 12 18 -1 32 3 32 8 0 5 -18 9 -40 9 -22 0 -40 5 -40 10 0 6 7 10
16 10 9 0 14 6 11 13 -2 6 0 20 5 31 7 12 6 22 -1 29 -6 6 -11 21 -11 34 0 35
-15 28 -16 -8 -1 -16 -6 -41 -13 -55 -6 -13 -16 -35 -22 -48 -7 -14 -9 -32 -6
-40 4 -9 -4 -23 -18 -35 -14 -10 -25 -23 -25 -29 0 -5 -7 -23 -15 -38 l-15
-29 0 37 c0 37 34 108 52 108 5 0 7 4 3 9 -3 5 0 13 6 17 8 5 8 8 -1 14 -9 5
-9 17 -1 46 6 22 11 51 11 65 0 23 4 25 47 28 64 3 68 11 7 12 -27 0 -57 2
-68 4 -11 2 -20 -3 -23 -16 -7 -27 -14 -24 -46 23 -23 32 -27 48 -23 73 7 38
0 48 -26 34 -18 -10 -18 -9 -3 27 12 30 13 39 3 46 -10 6 -8 8 4 8 18 0 38 28
38 53 0 8 -19 36 -42 62 -39 44 -43 53 -48 114 -5 60 -7 66 -28 69 -17 3 -25
-2 -29 -17z m7 -226 c0 -8 -7 -15 -15 -15 -16 0 -20 12 -8 23 11 12 23 8 23
-8z m-230 -269 c0 -2 -7 -7 -16 -10 -8 -3 -12 -2 -9 4 6 10 25 14 25 6z m388
-23 c2 -9 -7 -13 -27 -13 -21 0 -31 5 -31 16 0 19 51 16 58 -3z m107 -173 c3
-5 1 -10 -4 -10 -6 0 -11 5 -11 10 0 6 2 10 4 10 3 0 8 -4 11 -10z m-141 -56
c9 -25 7 -64 -4 -64 -5 0 -10 8 -10 18 0 9 -9 23 -20 30 -11 7 -20 17 -20 22
0 16 47 11 54 -6z m316 -24 c0 -5 -4 -10 -10 -10 -5 0 -10 5 -10 10 0 6 5 10
10 10 6 0 10 -4 10 -10z m0 -42 c0 -13 -32 -6 -37 9 -3 7 3 9 16 6 12 -3 21
-10 21 -15z m-163 -14 c7 -18 -23 -80 -42 -87 -6 -3 -18 -1 -26 4 -11 7 -12
12 -1 26 7 10 20 30 30 45 20 32 30 35 39 12z m-107 -14 c0 -5 -5 -10 -11 -10
-5 0 -7 5 -4 10 3 6 8 10 11 10 2 0 4 -4 4 -10z"/>
<path d="M10185 3222 c-17 -2 -20 -9 -17 -37 3 -27 1 -35 -12 -35 -19 0 -20
-13 -5 -42 9 -17 8 -19 -9 -14 -29 10 -36 -10 -12 -34 11 -11 20 -15 20 -10 0
6 7 10 15 10 8 0 15 8 15 18 0 15 6 18 30 14 l30 -4 -1 65 c-1 69 -8 77 -54
69z m5 -87 c0 -8 -7 -15 -15 -15 -13 0 -14 3 -3 15 16 18 18 18 18 0z"/>
<path d="M3431 3162 c20 -33 6 -38 -119 -46 -59 -3 -177 -11 -262 -16 -85 -6
-236 -15 -335 -20 -215 -12 -266 -18 -242 -32 9 -5 17 -16 17 -25 0 -9 8 -22
18 -29 16 -13 16 -14 -1 -8 -16 6 -16 3 4 -30 l21 -36 -29 -1 c-16 -1 -21 -3
-10 -6 22 -6 22 -24 -1 -30 -26 -6 -17 -53 9 -53 11 0 19 -4 19 -10 0 -5 -11
-10 -24 -10 -40 0 -38 -15 2 -16 81 -2 84 -3 77 -23 -5 -15 2 -20 39 -30 25
-6 54 -11 66 -11 12 0 18 -4 15 -10 -3 -6 1 -7 10 -4 8 4 21 2 28 -4 6 -5 32
-12 57 -16 25 -4 59 -10 75 -12 17 -3 63 -8 104 -11 68 -5 72 -7 50 -19 -13
-7 -31 -11 -40 -8 -9 2 -27 0 -40 -5 -26 -10 -27 -10 36 -15 13 0 19 -7 17
-18 -3 -21 28 -26 90 -14 33 6 45 12 41 22 -6 17 32 20 42 3 4 -6 13 -8 21 -5
8 3 14 0 14 -7 0 -8 3 -8 8 -2 4 6 18 15 31 21 22 9 19 11 -35 23 -32 8 -72
17 -89 21 -28 8 -29 9 -7 15 12 4 22 12 22 17 0 6 6 8 14 5 8 -3 17 1 20 9 4
11 11 12 23 6 39 -20 51 16 15 44 -13 9 -12 12 2 17 23 9 37 0 30 -18 -5 -12
7 -14 66 -11 41 2 75 9 80 15 5 9 10 8 20 -4 7 -9 21 -13 31 -10 11 4 19 2 19
-4 0 -6 10 -10 23 -8 19 2 22 -2 19 -27 -3 -25 0 -28 17 -23 23 6 72 -27 68
-46 -1 -7 6 -11 15 -11 9 1 14 -4 12 -10 -3 -7 -19 -12 -37 -12 -18 0 -87 -12
-155 -27 -80 -18 -152 -27 -210 -27 -48 0 -94 -5 -102 -10 -13 -9 -13 -10 0
-11 91 -7 236 11 376 47 34 9 78 15 98 12 20 -2 38 1 41 7 3 6 7 6 11 -2 3 -7
14 -13 24 -13 28 0 34 -19 8 -24 -13 -3 -80 -10 -150 -17 -103 -9 -125 -14
-121 -26 3 -8 9 -11 12 -6 3 5 17 8 31 7 14 -1 57 2 95 6 39 5 118 14 178 21
59 7 107 15 107 19 0 3 -28 49 -62 101 -34 52 -63 107 -64 123 -2 27 -1 28 29
21 18 -3 47 -9 65 -12 17 -3 32 -11 32 -17 0 -7 7 -21 15 -32 13 -18 14 -16
15 24 0 42 0 42 -37 42 -48 0 -38 9 12 11 96 4 97 28 2 31 l-62 1 60 7 c41 5
24 6 -52 4 -99 -3 -113 -2 -113 12 0 10 -6 14 -14 11 -14 -5 -36 10 -36 25 0
4 9 8 20 8 25 0 25 9 3 27 -14 10 -14 13 -3 11 17 -3 25 39 16 78 -6 21 -12
24 -54 24 -37 -1 -43 -3 -29 -11 9 -5 17 -17 17 -25 0 -8 7 -28 15 -43 14 -27
13 -29 -4 -24 -11 3 -25 19 -32 36 -7 18 -21 41 -31 51 -32 35 -23 43 45 40
34 -1 78 1 97 6 53 14 178 18 190 6 12 -12 17 -7 22 18 3 17 -3 20 -47 21 -27
1 -68 7 -90 13 -63 16 -232 25 -240 13 -4 -8 16 -11 62 -12 83 0 196 -9 203
-16 3 -3 -60 -3 -140 -1 -122 3 -150 7 -174 23 l-29 19 14 -22z m-874 -278
c-3 -3 -12 -4 -19 -1 -8 3 -5 6 6 6 11 1 17 -2 13 -5z m761 -70 c2 -1 -6 -12
-17 -23 -22 -22 -51 -28 -51 -11 0 6 9 10 21 10 18 0 20 4 14 27 -6 24 -5 25
12 13 10 -8 20 -15 21 -16z m32 -4 c0 -5 -4 -10 -10 -10 -5 0 -10 5 -10 10 0
6 5 10 10 10 6 0 10 -4 10 -10z m56 0 c8 0 14 -4 14 -9 0 -5 -13 -9 -30 -9
-19 1 -30 6 -30 16 0 9 6 12 16 8 9 -3 22 -6 30 -6z m-576 -74 c0 -2 -7 -6
-15 -10 -8 -3 -15 -1 -15 4 0 6 7 10 15 10 8 0 15 -2 15 -4z m265 -25 c3 -5 1
-12 -5 -16 -5 -3 -10 1 -10 9 0 18 6 21 15 7z m-58 -107 c-3 -3 -12 -4 -19 -1
-8 3 -5 6 6 6 11 1 17 -2 13 -5z"/>
<path d="M3788 3163 c7 -3 16 -2 19 1 4 3 -2 6 -13 5 -11 0 -14 -3 -6 -6z"/>
<path d="M5768 3123 c7 -3 16 -2 19 1 4 3 -2 6 -13 5 -11 0 -14 -3 -6 -6z"/>
<path d="M3698 3093 c7 -3 16 -2 19 1 4 3 -2 6 -13 5 -11 0 -14 -3 -6 -6z"/>
<path d="M3677 3035 c-3 -19 -3 -51 0 -70 5 -32 9 -35 39 -35 l34 0 0 70 0 70
-34 0 c-30 0 -34 -3 -39 -35z"/>
<path d="M10054 3024 c3 -9 6 -18 6 -20 0 -13 18 -1 22 14 4 12 -1 18 -14 19
-14 1 -18 -3 -14 -13z"/>
<path d="M6097 2983 c-6 -10 -10 -96 -8 -191 l1 -73 33 3 32 3 0 130 0 130
-27 3 c-14 2 -28 0 -31 -5z"/>
<path d="M5780 2960 c-17 -17 -20 -33 -20 -124 l0 -103 53 -7 c28 -3 63 -6 76
-6 l23 0 -4 111 c-3 102 -5 113 -27 130 -30 25 -76 24 -101 -1z"/>
<path d="M10141 2950 c-5 -17 -8 -37 -4 -45 6 -16 45 -30 78 -27 16 1 17 -1 5
-9 -12 -8 -12 -10 -1 -7 24 7 21 53 -5 82 -14 14 -29 24 -35 21 -5 -4 -9 -1
-9 4 0 22 -18 10 -29 -19z"/>
<path d="M4852 2893 c0 -29 -25 -108 -41 -127 -5 -6 -12 -26 -16 -43 -3 -18
-11 -33 -16 -33 -6 0 -7 -5 -4 -10 4 -6 -3 -29 -14 -51 -12 -22 -21 -42 -21
-46 0 -9 36 40 43 60 4 10 11 16 16 13 5 -4 12 0 14 6 3 7 6 3 6 -9 1 -17 7
-23 24 -24 41 -2 62 3 70 17 4 8 13 14 19 14 6 0 17 8 25 18 13 16 14 15 8 -6
-6 -21 -4 -22 22 -16 15 4 33 11 39 15 6 5 15 5 19 1 5 -4 5 1 2 11 -5 13 -2
18 11 16 43 -4 87 2 73 10 -17 11 1 23 23 15 9 -3 16 -1 16 4 0 6 9 10 20 9
11 -1 20 -8 20 -16 0 -11 4 -10 15 5 13 16 16 17 25 4 9 -13 11 -13 20 0 5 8
10 11 10 5 0 -5 4 -5 10 1 13 13 80 5 80 -9 0 -6 8 -1 17 12 l16 24 9 -23 c8
-22 9 -23 23 -4 11 15 15 16 15 4 1 -8 7 -1 15 15 7 17 14 26 14 20 1 -5 5 -4
10 3 4 7 6 -12 3 -43 -3 -37 -1 -55 7 -55 6 0 11 7 11 16 0 11 6 14 23 8 12
-4 24 -10 27 -15 3 -4 16 -7 28 -6 20 1 22 6 17 34 -3 18 -9 41 -14 51 -17 32
-51 125 -51 138 0 8 -4 14 -10 14 -14 0 -12 -37 3 -43 18 -8 -379 -8 -527 0
-113 5 -129 8 -134 25 -7 28 -21 22 -20 -9z"/>
<path d="M3698 2883 c7 -3 16 -2 19 1 4 3 -2 6 -13 5 -11 0 -14 -3 -6 -6z"/>
<path d="M10185 2860 c3 -5 8 -10 11 -10 2 0 4 5 4 10 0 6 -5 10 -11 10 -5 0
-7 -4 -4 -10z"/>
<path d="M6373 2753 c9 -2 23 -2 30 0 6 3 -1 5 -18 5 -16 0 -22 -2 -12 -5z"/>
<path d="M6978 2743 c7 -3 16 -2 19 1 4 3 -2 6 -13 5 -11 0 -14 -3 -6 -6z"/>
<path d="M3258 2723 c7 -3 16 -2 19 1 4 3 -2 6 -13 5 -11 0 -14 -3 -6 -6z"/>
<path d="M4037 2689 c-88 -21 -136 -43 -156 -72 -26 -37 -62 -62 -99 -70 -62
-12 -257 -38 -392 -51 -25 -3 -79 -8 -120 -12 l-75 -8 40 -10 c53 -14 95 -44
95 -67 0 -10 5 -21 10 -24 6 -4 10 6 10 24 0 34 -5 33 160 51 52 6 105 13 118
16 19 4 22 0 23 -28 0 -18 4 -42 9 -53 6 -14 9 -4 9 36 l1 57 37 7 c41 7 60
-7 70 -57 3 -17 12 -28 22 -28 9 0 23 -8 30 -18 11 -16 19 -17 60 -8 25 5 48
12 51 15 11 12 40 11 40 -1 1 -7 7 -2 15 12 21 36 18 7 -6 -75 -29 -100 -31
-135 -8 -135 11 0 19 3 19 8 0 9 73 9 81 -1 3 -4 22 -10 41 -14 30 -4 37 -2
41 13 4 17 5 17 6 2 1 -11 9 -18 22 -18 15 0 19 -5 15 -15 -3 -8 -1 -15 5 -15
5 0 12 14 16 30 3 17 10 33 16 37 6 4 8 -4 3 -20 -5 -20 -2 -29 14 -37 30 -16
63 -8 76 18 11 22 12 22 17 3 3 -14 11 -18 26 -14 12 3 21 9 21 14 0 5 11 9
25 9 17 0 29 9 39 29 26 50 69 49 79 -2 4 -22 4 -22 6 1 1 23 21 32 21 9 0
-23 25 -67 38 -67 8 0 11 -7 7 -19 -3 -10 1 -24 10 -31 10 -9 15 -9 15 -1 0 7
9 9 26 5 14 -4 35 -2 47 4 12 6 29 13 39 15 9 3 19 18 22 34 7 31 40 58 58 47
7 -5 9 -2 5 8 -3 9 0 24 7 34 12 16 15 16 46 0 18 -9 40 -16 48 -16 11 0 13
-8 8 -31 -5 -24 -3 -30 8 -26 18 7 25 -12 18 -48 -4 -23 -2 -27 11 -22 10 4
18 -1 22 -13 8 -24 45 -22 45 2 0 10 5 18 10 18 6 0 10 -7 8 -16 -2 -10 3 -19
10 -21 8 -3 12 7 12 31 0 35 13 48 23 24 3 -7 6 0 6 16 1 24 3 26 15 16 8 -6
17 -21 19 -33 3 -15 4 -13 2 5 -1 14 7 37 17 50 15 20 18 21 18 4 0 -12 5 -16
15 -12 10 4 15 -1 15 -14 0 -11 6 -19 13 -17 7 1 12 -9 12 -25 -1 -30 9 -37
19 -13 7 20 52 19 60 -1 4 -12 17 -15 49 -14 62 4 67 2 67 -21 0 -17 4 -20 23
-15 53 15 80 19 74 10 -7 -12 53 -40 62 -28 3 5 15 16 26 24 19 14 19 14 6 -3
-18 -23 -7 -34 14 -13 20 20 20 20 50 0 24 -15 25 -15 25 4 0 10 -9 41 -19 68
-89 230 -115 312 -119 372 -1 12 -6 22 -11 22 -6 0 -8 -9 -6 -20 2 -11 1 -19
-3 -16 -4 2 -155 7 -337 10 -581 10 -896 19 -891 23 2 2 53 7 113 10 59 3 110
7 112 9 2 2 -47 4 -110 4 -154 0 -160 2 -153 50 3 21 2 46 -3 55 -9 15 -12 13
-22 -16 -29 -83 -34 -89 -73 -89 -46 0 -52 9 -27 46 10 16 19 39 19 52 0 12 5
22 10 22 23 0 7 29 -21 39 -41 14 -48 13 -142 -10z"/>
<path d="M6884 2645 c-8 -43 -7 -55 3 -55 9 0 13 17 13 55 0 30 -1 55 -3 55
-1 0 -7 -25 -13 -55z"/>
<path d="M4331 2665 c-6 -16 -13 -34 -15 -40 -2 -6 30 -11 80 -12 65 -2 84 1
84 12 0 8 8 12 23 9 20 -4 20 -4 2 4 -11 5 -26 7 -32 5 -7 -3 -13 2 -13 11 0
9 5 16 12 16 6 0 8 3 5 6 -4 4 -29 9 -57 11 -40 3 -50 1 -50 -12 0 -21 -18
-19 -23 3 -3 13 -7 10 -16 -13z"/>
<path d="M4520 2665 c0 -15 32 -45 48 -45 7 0 12 6 12 14 0 14 50 10 60 -5 3
-4 14 0 25 8 15 12 17 17 6 20 -11 5 -11 7 0 14 9 6 -18 9 -68 8 -58 -1 -83
-5 -83 -14z"/>
<path d="M6090 2651 c-8 -6 -17 -8 -21 -5 -4 2 -12 -3 -19 -11 -7 -8 -19 -15
-27 -15 -11 0 -13 -16 -11 -79 2 -58 6 -77 15 -74 7 3 11 9 8 14 -6 9 66 49
89 49 8 0 24 12 35 26 16 20 18 30 10 40 -6 8 -8 25 -5 39 6 23 4 25 -26 25
-18 0 -40 -4 -48 -9z"/>
<path d="M6939 2641 c-16 -7 -24 -51 -9 -51 6 0 10 9 10 20 0 12 7 20 16 20 9
0 18 -9 21 -20 6 -23 23 -27 23 -6 0 7 9 20 21 27 19 13 17 14 -24 15 -25 0
-51 -2 -58 -5z"/>
<path d="M2176 2594 c-5 -14 -4 -15 9 -4 17 14 19 20 6 20 -5 0 -12 -7 -15
-16z"/>
<path d="M6363 2554 c-3 -8 -1 -20 5 -26 7 -7 10 -2 9 16 -2 30 -5 32 -14 10z"/>
<path d="M6987 2540 c-7 -27 -1 -39 12 -24 5 5 5 18 2 28 -7 18 -8 18 -14 -4z"/>
<path d="M3350 2540 c-8 -5 -27 -10 -42 -10 -16 0 -28 -5 -28 -10 0 -6 19 -9
43 -8 33 2 43 7 44 21 2 20 2 20 -17 7z"/>
<path d="M3051 2524 c0 -11 3 -14 6 -6 3 7 2 16 -1 19 -3 4 -6 -2 -5 -13z"/>
<path d="M7041 2524 c0 -11 3 -14 6 -6 3 7 2 16 -1 19 -3 4 -6 -2 -5 -13z"/>
<path d="M3215 2524 c-11 -2 -46 -6 -77 -9 -32 -4 -58 -11 -58 -16 0 -5 10 -7
23 -4 23 6 81 12 130 14 16 1 26 5 22 11 -3 6 -9 9 -13 9 -4 -1 -16 -3 -27 -5z"/>
<path d="M7035 2480 c3 -5 8 -10 11 -10 2 0 4 5 4 10 0 6 -5 10 -11 10 -5 0
-7 -4 -4 -10z"/>
<path d="M6561 2444 c0 -11 3 -14 6 -6 3 7 2 16 -1 19 -3 4 -6 -2 -5 -13z"/>
<path d="M6052 2375 c0 -16 2 -22 5 -12 2 9 2 23 0 30 -3 6 -5 -1 -5 -18z"/>
<path d="M3150 2380 c-13 -8 -13 -10 2 -10 9 0 20 5 23 10 8 13 -5 13 -25 0z"/>
<path d="M3790 2375 c7 -9 15 -13 17 -11 7 7 -7 26 -19 26 -6 0 -6 -6 2 -15z"/>
<path d="M6965 2380 c3 -5 12 -10 20 -10 8 0 17 5 20 10 4 6 -5 10 -20 10 -15
0 -24 -4 -20 -10z"/>
<path d="M6968 2353 c6 -2 18 -2 25 0 6 3 1 5 -13 5 -14 0 -19 -2 -12 -5z"/>
<path d="M6552 2274 c-9 -10 -10 -19 -3 -32 6 -9 11 -12 11 -5 0 18 41 28 51
12 4 -7 11 -10 16 -5 7 6 -21 30 -37 31 -3 0 -9 3 -15 7 -5 3 -16 0 -23 -8z"/>
<path d="M6052 2260 c0 -14 2 -19 5 -12 2 6 2 18 0 25 -3 6 -5 1 -5 -13z"/>
<path d="M6520 2251 c0 -6 4 -13 10 -16 6 -3 7 1 4 9 -7 18 -14 21 -14 7z"/>
<path d="M6476 2215 c-9 -26 -7 -32 5 -12 6 10 9 21 6 23 -2 3 -7 -2 -11 -11z"/>
<path d="M6195 2130 c3 -5 8 -10 11 -10 2 0 4 5 4 10 0 6 -5 10 -11 10 -5 0
-7 -4 -4 -10z"/>
<path d="M6168 2083 c6 -2 18 -2 25 0 6 3 1 5 -13 5 -14 0 -19 -2 -12 -5z"/>
<path d="M2240 2070 c0 -5 7 -7 15 -4 8 4 15 8 15 10 0 2 -7 4 -15 4 -8 0 -15
-4 -15 -10z"/>
<path d="M6048 2073 c7 -3 16 -2 19 1 4 3 -2 6 -13 5 -11 0 -14 -3 -6 -6z"/>
<path d="M3711 2047 c-6 -6 -11 -23 -11 -38 0 -16 -11 -49 -24 -74 -15 -27
-23 -56 -20 -70 2 -14 0 -25 -6 -25 -11 0 -14 -33 -4 -43 11 -11 34 5 34 24 0
10 5 19 11 19 16 0 48 39 54 64 3 12 7 49 9 83 3 52 1 62 -14 66 -10 3 -23 0
-29 -6z"/>
<path d="M5953 2053 c9 -2 23 -2 30 0 6 3 -1 5 -18 5 -16 0 -22 -2 -12 -5z"/>
<path d="M5198 1982 c-43 -2 -78 -7 -78 -12 0 -6 -18 -10 -40 -10 -23 0 -40 5
-40 11 0 8 -5 8 -15 -1 -8 -7 -31 -10 -50 -8 -19 2 -35 0 -35 -5 0 -21 24 -87
31 -87 4 0 14 -6 21 -14 8 -7 25 -16 38 -20 14 -3 19 -3 13 0 -7 3 -13 13 -13
21 0 14 3 13 21 -3 17 -14 23 -16 26 -6 4 10 9 9 24 -4 10 -9 19 -13 19 -8 0
5 5 2 10 -6 9 -13 11 -13 19 0 7 9 6 19 -1 27 -6 8 -8 16 -4 20 3 4 13 -3 22
-15 8 -12 22 -22 30 -22 8 0 14 -4 14 -10 0 -5 5 -10 10 -10 6 0 9 3 9 8 -5
28 2 44 18 38 9 -4 20 -1 24 5 4 8 9 4 14 -10 8 -25 23 -27 39 -5 10 14 14 13
38 -5 l26 -21 6 23 c7 21 8 21 15 3 5 -13 10 -16 15 -8 3 6 14 8 23 5 14 -5
15 -1 9 35 -3 23 -4 42 -1 42 2 0 13 -17 24 -37 23 -44 26 -29 8 42 l-13 50
-100 0 c-54 0 -134 -1 -176 -3z"/>
<path d="M4890 1950 c0 -5 5 -10 10 -10 6 0 10 5 10 10 0 6 -4 10 -10 10 -5 0
-10 -4 -10 -10z"/>
<path d="M4910 1901 c16 -30 28 -33 22 -6 -2 14 -11 25 -19 25 -10 0 -11 -4
-3 -19z"/>
<path d="M3430 1870 c0 -6 7 -10 15 -10 8 0 15 2 15 4 0 2 -7 6 -15 10 -8 3
-15 1 -15 -4z"/>
<path d="M6415 1630 c3 -5 10 -10 16 -10 5 0 9 5 9 10 0 6 -7 10 -16 10 -8 0
-12 -4 -9 -10z"/>
<path d="M7878 1617 c-14 -11 -12 -13 18 -14 29 -1 33 1 23 13 -14 17 -19 17
-41 1z"/>
<path d="M6195 1610 c-8 -13 5 -13 25 0 13 8 13 10 -2 10 -9 0 -20 -4 -23 -10z"/>
<path d="M3330 1585 c0 -8 5 -15 10 -15 6 0 10 7 10 15 0 8 -4 15 -10 15 -5 0
-10 -7 -10 -15z"/>
<path d="M6150 1590 c-9 -6 -10 -10 -3 -10 6 0 15 5 18 10 8 12 4 12 -15 0z"/>
<path d="M6025 1555 c-54 -13 -110 -39 -120 -55 -10 -16 17 -12 81 13 122 49
140 67 39 42z"/>
<path d="M7200 1493 c0 -6 -3 -18 -6 -27 -3 -9 -2 -16 4 -16 15 0 21 25 11 41
-5 9 -9 9 -9 2z"/>
<path d="M5585 1190 c-3 -5 -1 -10 4 -10 6 0 11 5 11 10 0 6 -2 10 -4 10 -3 0
-8 -4 -11 -10z"/>
<path d="M131 833 c-1 -34 2 -41 14 -37 8 4 12 10 9 16 -3 5 -10 22 -14 36 -7
24 -8 22 -9 -15z"/>
<path d="M130 760 c0 -5 7 -10 16 -10 8 0 12 5 9 10 -3 6 -10 10 -16 10 -5 0
-9 -4 -9 -10z"/>
<path d="M0 636 c0 -8 7 -17 16 -20 8 -3 13 -10 9 -15 -3 -5 4 -12 14 -16 11
-3 18 -12 15 -19 -3 -7 2 -18 9 -25 12 -9 18 -8 31 4 25 26 19 42 -19 49 -19
4 -35 12 -35 17 0 11 -25 39 -34 39 -3 0 -6 -6 -6 -14z"/>
<path d="M101 401 c-13 -3 -29 -15 -35 -26 -6 -11 -17 -24 -23 -28 -17 -10
-17 -27 0 -27 6 0 25 -14 40 -32 17 -20 26 -25 23 -15 -3 11 -3 24 1 30 4 7 6
26 4 43 -1 19 4 38 14 48 17 17 14 18 -24 7z"/>
<path d="M1466 369 c5 -9 100 -32 113 -27 6 1 -18 10 -54 18 -35 9 -62 13 -59
9z"/>
<path d="M1620 330 c14 -4 34 -8 45 -8 l20 -1 -20 9 c-11 5 -31 8 -45 8 l-25
0 25 -8z"/>
<path d="M1735 306 c28 -7 60 -16 73 -20 12 -4 22 -3 22 2 0 5 -26 14 -57 21
-74 15 -102 13 -38 -3z"/>
<path d="M635 191 c-4 -8 1 -14 13 -18 11 -3 19 -10 16 -17 -2 -6 9 -22 26
-34 17 -13 29 -30 28 -40 -2 -10 3 -16 11 -14 7 1 19 -3 27 -9 11 -9 14 -8 14
5 0 9 5 16 10 16 6 0 10 -3 10 -7 0 -14 99 -6 117 8 10 8 14 9 10 2 -10 -16
12 -28 26 -14 8 8 8 11 -1 11 -10 0 -10 5 -1 21 6 12 9 30 6 40 -3 12 0 19 9
19 8 0 14 -10 14 -25 0 -34 18 -32 22 3 3 27 4 27 75 27 40 0 66 -4 60 -8 -7
-5 1 -6 17 -2 19 4 32 2 38 -7 8 -10 11 -10 15 0 6 14 83 17 83 2 0 -5 16 -9
36 -8 21 1 39 -4 45 -13 6 -10 9 -10 9 -1 0 18 18 15 23 -5 4 -17 5 -17 6 0 0
9 8 17 17 17 9 0 14 6 12 13 -9 27 -52 34 -206 35 -86 1 -252 5 -368 8 -160 5
-213 4 -219 -5z m280 -41 c-3 -5 -10 -10 -16 -10 -5 0 -9 5 -9 10 0 6 7 10 16
10 8 0 12 -4 9 -10z m-35 -45 c0 -14 -4 -25 -10 -25 -11 0 -14 33 -3 43 11 11
13 8 13 -18z"/>
<path d="M1010 135 c0 -14 5 -25 10 -25 6 0 10 11 10 25 0 14 -4 25 -10 25 -5
0 -10 -11 -10 -25z"/>
<path d="M840 51 c0 -5 14 -14 30 -20 17 -5 30 -16 30 -23 0 -9 3 -9 10 2 15
23 12 30 -10 30 -11 0 -20 5 -20 10 0 6 -9 10 -20 10 -11 0 -20 -4 -20 -9z"/>
<path d="M770 26 c0 -9 5 -16 10 -16 6 0 10 4 10 9 0 6 -4 13 -10 16 -5 3 -10
-1 -10 -9z"/>
</g>
</svg>
